<?xml version="1.0" encoding="utf-8"?>
<!-- Generator: Adobe Illustrator 23.0.2, SVG Export Plug-In . SVG Version: 6.00 Build 0)  -->
<svg version="1.1" xmlns="http://www.w3.org/2000/svg" xmlns:xlink="http://www.w3.org/1999/xlink" x="0px" y="0px"
	 viewBox="0 0 1920 1080" style="enable-background:new 0 0 1920 1080;" xml:space="preserve">
<style type="text/css">
	.st0{fill:#C84829;}
	.st1{opacity:0.5;fill-rule:evenodd;clip-rule:evenodd;fill:#75380A;}
	.st2{fill-rule:evenodd;clip-rule:evenodd;fill:#E2B33A;}
	.st3{fill-rule:evenodd;clip-rule:evenodd;fill:#92C4AF;}
	.st4{fill-rule:evenodd;clip-rule:evenodd;fill:#FFFFFF;}
	.st5{fill-rule:evenodd;clip-rule:evenodd;fill:#020203;}
	.st6{fill:#27453A;}
	.st7{fill-rule:evenodd;clip-rule:evenodd;fill:#A85E1C;}
	.st8{fill-rule:evenodd;clip-rule:evenodd;fill:#512A06;}
	.st9{fill:#E2B33A;}
</style>
<g id="Ebene_1">
	<g>
		<rect class="st0" width="1920" height="1080"/>
	</g>
	<g>
		<path class="st1" d="M476.52,894.32c3.06,2.97,7.07,5.8,12.25,8.13c16.03,7.19-14.69,17.76-40.44,7.36
			c-43.53,0.81-30.73-6.67-3.72-6.93c19.55-0.19,27.92-1.93,27.17-6.33c-2.62,0.08-5.42-1.27-6.33-5.01
			c-1.98-8.18-19.11-7.02-19.41-1.39c-0.29,5.63-12.25,5.95-12.88-1.42c-0.63-7.36-24.06-7.88-19.8-2.97
			c4.25,4.91-10.35,3.53-11.38-2.18c-1.02-5.71-9.45-6.63-14.52-3.37c-5.06,3.26-18.57,1.47-7.29-1.99
			c11.27-3.47,0.91-5.07-10.02-3.15c-10.93,1.91-28.02-2.22-9.39-3.52c18.63-1.3,7.25-6.02-12.22-5.89c-6.85-0.21-18.27-3-5.51-3.55
			c12.76-0.55,7.61-3.58-4.52-3.89c-12.13-0.31-26.48-3.38-2.71-3.51c23.77-0.14,9.71-4.69-1.38-6.58
			c-11.08-1.9-21.35-4.77,0.81-2.36c22.17,2.41,18.18-0.89,3.83-4.48c-14.35-3.58-8.05-5.45,5.49-3.43
			c13.55,2.01,20.98,0.62,6.11-2.56c-14.88-3.18-1.62-6.9,10.52-2.98c12.13,3.92,25.67,2.67,10.75-1.99
			c-14.92-4.67,3.67-10.19,17.91-1.92c14.24,8.28,21.11,6.42,13.4-0.62c-7.71-7.04,13.9-5.05,19.43,0.05
			c5.53,5.11,16.15,7.76,18.69,0.98c2.54-6.78,21-2.39,16.41,1.55c-4.59,3.94,3.4,6.83,16.54,2.22c13.15-4.61,24.67-2.22,18.51,3.33
			c-6.15,5.55,3.01,6.11,15.32,3.54c12.31-2.57,20.57-0.3,11.39,3.22c-9.18,3.52-4.17,4.78,11.09,3.78
			c15.25-0.99,24.06,1.41,7.77,3.18c-16.28,1.77-17.02,4.95,7.02,3.45c24.04-1.51,25.19,3.24,7.09,4.41
			c-18.1,1.16-7.86,5.89,5.84,5.32c13.69-0.57,19.17,4.93,2.52,4.35c-16.65-0.58-29.18,1.93,0.26,4.83
			c29.45,2.91,16.72,7.93-2.23,4.16c-18.94-3.77-23.28,1.43-4.48,3.79c18.8,2.36,14.12,10.74-6.26,3.21
			c-20.38-7.52-26.46-2.67-8.97,3.03c17.49,5.7,12.01,7.28-9.32,2.13c-21.34-5.15-37.1-6.34-16.71,2.34
			c10.02,4.27,8.21,6.56,2.56,6.83c8.93,3.71,20.83,5.21,39.31,5.39c27.58,0.25,57.24,7.74,11.89,6.93
			c-2.36,10.4-56.87-0.17-57.03-7.36c-0.04-1.71-1.34-3.7-3.47-5.82c-4.34-0.91-8.75-2.51-11.66-4.8c-10.2-8.03-19.66-4.4-17.96,0.1
			C477.13,892.79,476.98,893.61,476.52,894.32z"/>
		<g>
			<path class="st2" d="M502.94,801.02c-6.27,19.71-16.43,62.83-8.08,88.15c7.94,24.07-34.68,59.43-48.73,24.64
				c-44.44,2.71-23.21-22.34,4.08-23.2c27.29-0.85,36.61-11.66,36.61-42.12C486.82,818.04,503.84,754.44,502.94,801.02z"/>
			<path class="st2" d="M507.91,801.02c6.27,19.71,16.43,62.83,8.08,88.15c-7.94,24.07,34.68,59.43,48.74,24.64
				c44.44,2.71,23.21-22.34-4.08-23.2c-27.29-0.85-36.61-11.66-36.61-42.12C524.04,818.04,507.01,754.44,507.91,801.02z"/>
			<path class="st3" d="M396.06,766.03c-6.62-0.69-14.89-10.03-1.52-11.86c13.38-1.83,11.64-11.97-0.14-13.02
				c-11.78-1.05-22.68-11.29,1.24-11.75c23.92-0.46,14.98-15.68,6.03-22.02c-8.95-6.34-15.99-15.95,3.46-7.89
				c19.45,8.06,19.19-3,8.87-15c-10.32-12-1.93-18.22,9.36-11.49c11.28,6.74,20.28,2.09,8.98-8.56
				c-11.29-10.64,6.15-23.08,13.87-9.98c7.72,13.1,22.67,8.93,13-6.69c-9.67-15.61,15.14-34.1,20.06-6.39
				c4.92,27.7,13.89,21.47,14.1-2.08c0.21-23.55,19.58-16.9,19.36,0.19c-0.22,17.09,7.42,25.96,17.58,3.29
				c10.16-22.68,23.69-8,14.66,5.19c-9.03,13.19-4.29,22.86,14.05,7.43c18.34-15.43,27.17-7.44,14.77,11.12
				c-12.4,18.57-3.86,20.45,11.34,11.85c15.2-8.6,20.91-1.01,7.77,10.77c-13.14,11.77-9.54,15.98,6.83,12.65
				c16.38-3.33,22.47,4.73,4.19,10.65c-18.28,5.92-22.59,16.57,3.14,11.52c25.73-5.04,21.54,10.86,2.13,14.75
				c-19.41,3.88-14.49,19.73-0.16,17.82c14.33-1.91,13.62,16.49-2.37,14.54c-15.99-1.94-31.35,6.46-5.18,16.19
				c26.18,9.73,7.79,26.55-6.91,13.92c-14.69-12.63-24.88,4.78-8.74,12.67c16.15,7.9,2.03,35.94-9.88,10.76
				c-11.91-25.18-23.45-8.95-12.37,10.12c11.08,19.07,3.81,24.38-11.72,7.14c-15.54-17.24-29.96-21.21-19.34,7.83
				c10.62,29.04-18.55,30.79-19.71,3.91c-1.16-26.89-14.7-14.75-18.08,0.33c-3.38,15.09-18.15,26.1-10.93-1.29
				c7.23-27.38-11.22-23.48-17.84-4.65c-6.62,18.82-18.94,19.91-11.28-4.75c7.66-24.65-15.19-26.35-16.46-9.95
				c-1.27,16.41-14.32,11.8-8.92-7.3c5.4-19.09-1.99-22.19-10.72-11.29c-8.72,10.89-20.23,4.93-5.05-6.67
				c15.18-11.6,6.62-16.96-6.47-10.55c-13.09,6.41-25.53-7.42-5.43-11.77C421.75,781.39,415.68,765.58,396.06,766.03z"/>
			<path class="st4" d="M534.92,761.36c14.82,0,26.91-12.09,26.91-26.92c0-14.82-12.09-26.91-26.91-26.91
				c-14.82,0-26.91,12.09-26.91,26.91C508,749.27,520.09,761.36,534.92,761.36z"/>
			<path class="st5" d="M531.71,720.4c4.23-1.77,9.1,0.22,10.87,4.45c1.77,4.23-0.22,9.1-4.45,10.87
				c-4.23,1.77-9.09-0.22-10.87-4.45C525.48,727.03,527.48,722.17,531.71,720.4z"/>
			<path class="st4" d="M535.69,720.77c1.37-0.58,2.95,0.07,3.52,1.44c0.57,1.37-0.07,2.95-1.44,3.52
				c-1.37,0.57-2.95-0.07-3.52-1.44C533.67,722.92,534.32,721.34,535.69,720.77z"/>
			<path class="st4" d="M471.55,761.36c14.82,0,26.91-12.09,26.91-26.92c0-14.82-12.09-26.91-26.91-26.91
				c-14.82,0-26.91,12.09-26.91,26.91C444.64,749.27,456.73,761.36,471.55,761.36z"/>
			<path class="st5" d="M468.34,720.4c4.23-1.77,9.1,0.22,10.87,4.45c1.77,4.23-0.22,9.1-4.45,10.87c-4.23,1.77-9.1-0.22-10.87-4.45
				C462.12,727.03,464.11,722.17,468.34,720.4z"/>
			<path class="st4" d="M472.32,720.77c1.37-0.58,2.95,0.07,3.52,1.44c0.57,1.37-0.07,2.95-1.44,3.52
				c-1.37,0.57-2.95-0.07-3.52-1.44C470.3,722.92,470.95,721.34,472.32,720.77z"/>
			<path class="st3" d="M436.98,738.88c10.33-8.92,41.3-17.83,66.17-15.49C528.02,725.74,436.98,650.65,436.98,738.88z"/>
			<path class="st3" d="M569.48,738.88c-10.32-8.92-41.29-17.83-66.17-15.49C478.44,725.74,569.48,650.65,569.48,738.88z"/>
			<path class="st6" d="M439.75,707.25c-0.75,0.9-1.35,0.36-1.34-1.2c0.01-1.57,0.63-3.57,1.38-4.47
				c4.12-4.94,13.48-10.53,24.56-14.94c10.22-4.06,21.95-7.17,32.39-7.89c0.66-0.04,0.89,1.38,0.52,3.19
				c-0.37,1.81-1.2,3.31-1.85,3.35c-10.37,0.71-21.98,3.79-32.08,7.8C452.55,697.39,443.55,702.69,439.75,707.25z"/>
			<path class="st6" d="M572.08,727.66c0.7,0.94,1.33,0.43,1.4-1.13c0.08-1.56-0.43-3.59-1.13-4.54
				c-3.85-5.16-12.9-11.25-23.72-16.25c-9.98-4.61-21.53-8.35-31.92-9.62c-0.65-0.08-0.97,1.34-0.69,3.16
				c0.27,1.83,1.01,3.37,1.67,3.45c10.31,1.27,21.74,4.97,31.61,9.52C559.84,717.12,568.53,722.89,572.08,727.66z"/>
			<path class="st6" d="M450.74,772.15l0.94,4.71l-0.12,0.02l-0.12,0.02l-0.12,0.01l-0.12,0l-0.12,0l-0.12-0.01l-0.12-0.02
				l-0.11-0.02l-0.11-0.03l-0.11-0.03l-0.11-0.04l-0.11-0.05l-0.11-0.04l-0.1-0.05l-0.1-0.06l-0.1-0.06l-0.09-0.07l-0.09-0.07
				l-0.09-0.08l-0.08-0.08l-0.08-0.08l-0.08-0.09l-0.07-0.09l-0.07-0.09l-0.06-0.1l-0.06-0.1l-0.06-0.11l-0.05-0.11l-0.05-0.11
				l-0.04-0.11l-0.03-0.12l-0.03-0.12l-0.02-0.12l-0.01-0.12l-0.01-0.12l0-0.12l0-0.12l0.01-0.12l0.01-0.12l0.02-0.11l0.03-0.11
				l0.03-0.11l0.04-0.11l0.04-0.11l0.05-0.11l0.05-0.1l0.06-0.1l0.06-0.1l0.07-0.1l0.07-0.09l0.08-0.08l0.08-0.09l0.08-0.08
				l0.09-0.07l0.09-0.07l0.09-0.07l0.1-0.06l0.1-0.06l0.11-0.05l0.11-0.05l0.11-0.04l0.12-0.04l0.12-0.03L450.74,772.15
				L450.74,772.15z M555.44,794.11l-4.78,0.47l-0.47-2.63l-0.83-2.4l-1.18-2.19l-1.53-2.01l-1.87-1.85l-2.2-1.7l-2.52-1.54
				l-2.81-1.39l-3.08-1.23l-3.33-1.08l-3.54-0.93l-3.73-0.79l-3.89-0.65l-4.02-0.52l-4.12-0.39l-4.19-0.28l-4.24-0.17l-4.27-0.08
				l-4.26,0.01l-4.23,0.09l-4.17,0.17l-4.09,0.22l-3.98,0.28l-3.84,0.32l-3.67,0.36l-3.49,0.38l-3.27,0.4l-3.03,0.4l-2.76,0.4
				l-2.46,0.39l-2.14,0.37l-1.78,0.33l-0.94-4.71l1.87-0.36l2.21-0.38l2.52-0.41l2.81-0.41l3.08-0.41l3.33-0.4l3.54-0.39l3.74-0.36
				l3.9-0.33l4.04-0.28l4.16-0.23l4.25-0.17l4.31-0.09l4.36-0.01l4.37,0.08l4.36,0.18l4.33,0.29l4.27,0.41l4.18,0.54l4.07,0.68
				l3.94,0.83l3.79,0.99l3.61,1.17l3.41,1.36l3.18,1.57l2.92,1.8l2.64,2.04l2.32,2.3l1.96,2.58l1.54,2.86l1.09,3.13L555.44,794.11
				L555.44,794.11z M550.65,794.57l4.78-0.47l0.01,0.12l0,0.12l0,0.12l-0.01,0.12l-0.01,0.12l-0.02,0.12l-0.03,0.11l-0.03,0.11
				l-0.04,0.11l-0.04,0.11l-0.05,0.1l-0.05,0.11l-0.06,0.1l-0.06,0.1l-0.07,0.1l-0.07,0.09l-0.07,0.09l-0.08,0.09l-0.08,0.08
				l-0.09,0.08l-0.09,0.07l-0.09,0.07l-0.1,0.06l-0.1,0.06l-0.1,0.05l-0.11,0.05l-0.11,0.04l-0.11,0.04l-0.12,0.03l-0.12,0.03
				l-0.12,0.02l-0.12,0.02l-0.12,0.01l-0.12,0l-0.12,0l-0.12-0.01l-0.12-0.01l-0.11-0.02l-0.11-0.03l-0.11-0.03l-0.11-0.04
				l-0.11-0.04l-0.1-0.05l-0.1-0.05l-0.1-0.06l-0.1-0.06l-0.09-0.07l-0.09-0.07l-0.09-0.08l-0.08-0.07l-0.08-0.09l-0.08-0.09
				l-0.07-0.09l-0.07-0.1l-0.06-0.1l-0.06-0.1l-0.05-0.1l-0.05-0.11l-0.04-0.11l-0.04-0.11l-0.03-0.12l-0.03-0.12l-0.02-0.12
				L550.65,794.57z"/>
		</g>
		<path class="st1" d="M727.15,889.37c3.27,4.68,8.46,9.48,16.48,13.07c16.03,7.19-14.69,17.76-40.45,7.36
			c-43.52,0.81-30.73-6.67-3.72-6.93c27.01-0.25,32.69-3.49,22.44-12.59c-0.7-0.62-1.38-1.3-2.02-2c-4.41,0.04-8.6,1.27-9.63,3.7
			c-1.64,1.68-12.56,2.67-12.61-1.16c-0.05-3.83-10.9-4.7-13.64-1.67c-2.73,3.02-14.97,4.59-12.12-1.88
			c2.85-6.48-14.31-6.08-22.19-4.52c-7.88,1.56-18.91,2.19-7.77-1.97c11.14-4.15-0.46-5.54-14.45-4.36
			c-13.99,1.18-19.33-1.89-10.72-4.02c8.61-2.14,5-5.16-7.7-3.54c-12.71,1.62-23.29-4.69-8.51-5.04c14.78-0.34,12.49-4.9-5.18-4.36
			c-17.67,0.54-33.56-8.56-3.9-6.22c29.66,2.33,24.39-0.89-0.21-4.05c-24.6-3.16-14.94-7.48,2.9-5.17
			c17.84,2.31,28.18,1.43,5.88-4.28c-22.3-5.72-5.06-7.41,7.48-3.25c12.54,4.16,23.31,4.16,9.72-2.79c-13.58-6.95-4-8.27,13.69-2.5
			c17.69,5.77,20.84,3.73,13.97-1.48c-6.88-5.21,1.86-5.74,12.34-0.66c10.49,5.08,15.38,4.66,14.18-0.16
			c-1.21-4.84,8.07-5.41,11.72,0.28c3.65,5.68,14.18,8.24,12.49,0.67c-1.69-7.56,14.36-4.35,15.72,1.38
			c1.36,5.72,18.62,6.49,18.62,2.39c0-4.1,19.14-1.48,14.88,2.55c-4.26,4.03,2.39,9.26,16.21,3.52c13.82-5.74,28.85,1.41,13.6,3.69
			c-15.26,2.27,1.53,7.3,12.03,4.02c10.5-3.29,37.87,4.19,9.88,4.06c-27.99-0.12-12.62,5.11,8.86,4.65
			c21.48-0.45,26.02,2.19,5.83,4.09c-20.19,1.89-26.35,5.24,5.5,6.22c31.85,0.98,29.62,9.04,1.34,5.8
			c-28.28-3.23-17.47,1.99-2.16,4.89c15.31,2.9,24.76,8.31-2.87,2.76c-27.63-5.55-26.11-0.09-7.35,4.17
			c18.76,4.25,18.18,7.7-6.53,2.4c-24.71-5.3-29.68,0.6-12.69,3.1c16.98,2.5,10.34,5.39-8.88,1.43c-19.22-3.97-23.48-2.39-13.3,1.38
			c5.38,2,5.73,3.58,3.38,3.8c9.23,4.68,21.66,6.52,42.19,6.72c27.58,0.25,57.24,7.74,11.89,6.93c-2.36,10.4-56.87-0.17-57.03-7.36
			c-0.06-2.62-3.04-5.87-7.46-9.25c-0.22-0.11-0.43-0.23-0.65-0.36c-10.02-5.6-16.82-4-11.93,0.35c4.88,4.35-11.32,5.86-13.07-0.1
			C731.15,891.41,729.43,890.18,727.15,889.37z"/>
		<g>
			<path class="st2" d="M757.8,801.02c-6.27,19.71-16.43,62.83-8.08,88.15c7.94,24.07-34.68,59.43-48.73,24.64
				c-44.44,2.71-23.21-22.34,4.08-23.2c27.29-0.85,36.61-11.66,36.61-42.12C741.68,818.04,758.7,754.44,757.8,801.02z"/>
			<path class="st2" d="M762.77,801.02c6.27,19.71,16.43,62.83,8.08,88.15c-7.94,24.07,34.68,59.43,48.74,24.64
				c44.44,2.71,23.21-22.34-4.08-23.2c-27.29-0.85-36.61-11.66-36.61-42.12C778.89,818.04,761.87,754.44,762.77,801.02z"/>
			<path class="st3" d="M728.11,854.19c-3.54,5.64-15.57,8.94-11.31-3.87c4.26-12.81-5.61-15.72-11.75-5.61
				c-6.13,10.11-20.14,15.38-10-6.3c10.14-21.67-7.47-20.36-17.11-15.12c-9.64,5.24-21.37,7.32-5.55-6.59
				c15.82-13.91,5.78-18.54-9.55-14.57c-15.32,3.96-17.2-6.31-6.19-13.47c11.02-7.16,10.82-17.29-3.72-11.84
				c-14.54,5.44-18-15.7-2.84-16.85c15.17-1.15,18.01-16.41-0.27-14.61c-18.27,1.8-23.93-28.62,3.11-20.82
				c27.04,7.79,25.39-2.99,4.35-13.57c-21.04-10.58-6.52-25.03,8.71-17.29c15.24,7.73,26.57,4.79,10.7-14.34
				c-15.87-19.12,3.27-24.78,11.13-10.86c7.86,13.92,18.62,13.93,12.86-9.33c-5.76-23.26,5.3-27.66,16.5-8.35
				c11.19,19.31,16.65,12.48,15.63-4.96c-1.02-17.43,8.32-19.21,13.09-2.22c4.77,16.98,10.13,15.61,14.36-0.56
				c4.23-16.17,14.15-18.08,11.41,0.94c-2.74,19.02,4.91,27.58,11.73,2.26c6.82-25.32,19.25-14.54,14.17,4.59
				c-5.07,19.14,11.32,21.71,15.92,8.01c4.6-13.71,20.8-4.96,12.01,8.53c-8.8,13.5-8.03,30.99,12.24,11.79
				c20.28-19.2,27.26,4.72,9.45,12.34c-17.82,7.61-6.69,24.44,7.52,13.43c14.21-11.01,33.15,14.03,5.3,13.61
				c-27.85-0.41-18.37,17.1,3.63,15.57c22-1.53,23.56,7.33,1.23,13.67c-22.33,6.34-32.25,17.54-1.5,20.81
				c30.75,3.28,19.45,30.23-5.19,19.42c-24.64-10.82-19.72,6.68-7.67,16.37c12.05,9.68,15.41,27.8-5.97,9.24
				c-21.39-18.56-26.02-0.29-12.05,13.96c13.97,14.25,9.51,25.78-9.23,8.03c-18.74-17.74-30.35,2.01-16.19,10.38
				c14.17,8.37,4.27,18.06-10.48,4.79c-14.76-13.27-20.79-8-14.86,4.64c5.93,12.64-4.5,20.32-8.22,1.59
				c-3.72-18.74-12.3-13.42-12.32,1.16c-0.02,14.57-17.92,19.63-12.96-0.32C753.22,837.9,736.37,836.38,728.11,854.19z"/>
			<path class="st6" d="M824.96,699.25c0.7,0.88,1.28,0.37,1.3-1.13c0.02-1.49-0.53-3.42-1.23-4.29
				c-3.85-4.8-12.68-10.31-23.18-14.71c-9.68-4.07-20.83-7.25-30.79-8.12c-0.62-0.05-0.87,1.31-0.56,3.04
				c0.32,1.74,1.08,3.18,1.71,3.24c9.88,0.87,20.92,4.01,30.49,8.03C812.92,689.6,821.41,694.82,824.96,699.25z"/>
			<path class="st6" d="M690.62,700.11c-0.67,0.9-1.27,0.41-1.34-1.08c-0.07-1.49,0.42-3.43,1.09-4.33
				c3.69-4.92,12.34-10.71,22.69-15.46c9.54-4.37,20.58-7.92,30.51-9.12c0.62-0.08,0.92,1.28,0.65,3.02
				c-0.26,1.74-0.98,3.21-1.6,3.29c-9.85,1.19-20.77,4.69-30.21,9.02C702.34,690.07,694.02,695.57,690.62,700.11z"/>
			<path class="st4" d="M789.89,761.36c14.82,0,26.91-12.09,26.91-26.92c0-14.82-12.09-26.91-26.91-26.91
				c-14.82,0-26.91,12.09-26.91,26.91C762.98,749.27,775.07,761.36,789.89,761.36z"/>
			<path class="st5" d="M786.68,726.79c4.23-1.77,9.1,0.23,10.87,4.46c1.77,4.23-0.22,9.09-4.45,10.87
				c-4.23,1.77-9.1-0.23-10.87-4.46C780.46,733.42,782.45,728.56,786.68,726.79z"/>
			<path class="st4" d="M790.66,727.16c1.37-0.57,2.95,0.07,3.52,1.44c0.57,1.38-0.07,2.95-1.44,3.52
				c-1.37,0.57-2.95-0.07-3.52-1.44C788.65,729.32,789.29,727.73,790.66,727.16z"/>
			<path class="st4" d="M726.53,761.36c14.82,0,26.91-12.09,26.91-26.92c0-14.82-12.09-26.91-26.91-26.91
				c-14.82,0-26.91,12.09-26.91,26.91C699.61,749.27,711.7,761.36,726.53,761.36z"/>
			<path class="st5" d="M723.32,726.79c4.23-1.77,9.1,0.23,10.87,4.46c1.77,4.23-0.22,9.09-4.46,10.87
				c-4.23,1.77-9.1-0.23-10.87-4.46C717.1,733.42,719.09,728.56,723.32,726.79z"/>
			<path class="st4" d="M727.3,727.16c1.37-0.57,2.95,0.07,3.52,1.44c0.57,1.38-0.07,2.95-1.44,3.52c-1.37,0.57-2.95-0.07-3.52-1.44
				C725.28,729.32,725.93,727.73,727.3,727.16z"/>
			<path class="st6" d="M740.93,780.98l4.23,2.3l-0.06,0.11l-0.07,0.1l-0.07,0.09l-0.08,0.1l-0.08,0.09l-0.08,0.09l-0.09,0.08
				l-0.09,0.08l-0.09,0.07l-0.1,0.06l-0.1,0.06l-0.1,0.06l-0.1,0.05l-0.1,0.05l-0.11,0.04l-0.11,0.03l-0.11,0.03l-0.11,0.02
				l-0.11,0.02l-0.11,0.01l-0.12,0.01l-0.12,0l-0.12,0l-0.12-0.01l-0.11-0.02l-0.12-0.02l-0.12-0.02l-0.12-0.04l-0.12-0.03
				l-0.11-0.05l-0.11-0.05l-0.11-0.06l-0.1-0.06l-0.1-0.07l-0.1-0.07l-0.09-0.07l-0.09-0.08l-0.09-0.08l-0.08-0.09l-0.07-0.09
				l-0.07-0.09l-0.06-0.1l-0.06-0.1l-0.05-0.1l-0.05-0.11l-0.05-0.11l-0.04-0.11l-0.04-0.11l-0.03-0.11l-0.03-0.11l-0.02-0.11
				l-0.01-0.11l-0.01-0.12l0-0.12l0-0.12l0.01-0.11l0.01-0.12l0.02-0.11l0.03-0.11l0.03-0.12l0.04-0.11l0.04-0.11l0.05-0.11
				L740.93,780.98L740.93,780.98z M781.29,777.94l-4.15,2.42l-0.59-0.91l-0.66-0.84l-0.72-0.77l-0.78-0.71l-0.85-0.65l-0.9-0.58
				l-0.96-0.52l-1.01-0.45l-1.06-0.39l-1.1-0.32l-1.14-0.26l-1.17-0.19l-1.19-0.12l-1.22-0.06l-1.23,0.01l-1.24,0.08l-1.24,0.14
				l-1.23,0.21l-1.22,0.27l-1.21,0.34l-1.19,0.4l-1.16,0.47l-1.12,0.52l-1.09,0.59l-1.04,0.64l-0.99,0.7l-0.94,0.75l-0.88,0.81
				l-0.82,0.86l-0.75,0.91l-0.67,0.96l-0.6,1.01l-4.23-2.3l0.79-1.33l0.88-1.26l0.97-1.18l1.05-1.1l1.12-1.03l1.18-0.95l1.24-0.87
				l1.29-0.79l1.33-0.71l1.37-0.64l1.4-0.56l1.43-0.48l1.45-0.41l1.47-0.33l1.48-0.25l1.49-0.17l1.49-0.09l1.49-0.01l1.48,0.07
				l1.47,0.15l1.45,0.23l1.43,0.33l1.4,0.41l1.36,0.5l1.32,0.6l1.27,0.68l1.22,0.79l1.16,0.88l1.09,0.98l1.01,1.08l0.92,1.18
				L781.29,777.94L781.29,777.94z M777.13,780.36l4.15-2.42l0.06,0.11l0.05,0.11l0.05,0.11l0.04,0.11l0.03,0.11l0.03,0.11l0.02,0.12
				l0.02,0.11l0.01,0.11l0.01,0.12v0.11l-0.01,0.12l-0.01,0.11l-0.02,0.12l-0.02,0.12l-0.03,0.11l-0.03,0.11l-0.04,0.11l-0.04,0.11
				l-0.05,0.1l-0.05,0.1l-0.06,0.1l-0.06,0.09l-0.07,0.1l-0.07,0.09l-0.08,0.09l-0.08,0.09l-0.09,0.08l-0.09,0.07l-0.1,0.07
				l-0.1,0.07l-0.11,0.07l-0.11,0.06l-0.11,0.05l-0.11,0.05l-0.11,0.04l-0.11,0.03l-0.11,0.03l-0.11,0.02l-0.12,0.02l-0.11,0.02
				l-0.12,0.01h-0.12l-0.11,0l-0.12-0.02l-0.12-0.01l-0.11-0.02l-0.11-0.03l-0.11-0.03l-0.11-0.04l-0.11-0.04l-0.1-0.05l-0.1-0.05
				l-0.1-0.06l-0.1-0.07l-0.09-0.07l-0.09-0.07l-0.09-0.08l-0.09-0.08l-0.08-0.09l-0.08-0.09l-0.07-0.1l-0.07-0.1L777.13,780.36z"/>
		</g>
		<path class="st1" d="M1129.85,826.04c-0.07-1.8,8.32-3.54,11.66,0.28c3.33,3.83,13.25,3.95,12.96,0.73
			c-0.29-3.21,8.71-5.63,11.86,1.05c3.16,6.67,17.33,5.1,22.65,2.99c5.32-2.11,14.11-3.49,8.26,1.44
			c-5.85,4.92,5.15,5.51,15.96,3.36c10.81-2.15,17.96,0.55,12.52,3.29c-5.44,2.73,0.21,5.51,9.56,3.01
			c9.34-2.5,23.71,3.09,11.51,4.45c-12.2,1.36-6.34,5.77,8.13,4.01c14.48-1.76,35.72,6.25,8.65,5.96
			c-27.08-0.28-19.85,2.58,3.66,4.05c23.51,1.46,19.06,6.45,2,5.37c-17.07-1.08-25.06,0.51-1.29,4.69
			c23.76,4.18,10.65,7.06-3.53,3.76c-14.18-3.3-23.28-2.55-5.82,3.46s10.49,7.99-9.43,3.44c-19.92-4.56-20.83-2.3-10.54,2.44
			c10.29,4.74,3.36,5.87-9.87,1.52c-13.23-4.36-17.01-3.61-11.84,1.15c2.82,2.59,1.92,4.13-0.78,4.11
			c8.98,5.22,21.06,7.22,42.04,7.42c26.24,0.24,54.46,7.37,11.31,6.59c-2.24,9.89-54.11-0.16-54.26-7.01
			c-0.08-3.79-6.61-8.98-14.57-13.86c-6.16-2.51-11-2.17-5.02,3.46c7.94,7.45-8.4,5.34-14.47-0.29c-0.33-0.31-0.7-0.6-1.09-0.87
			c3.14,4.17,7.91,8.37,15.05,11.57c15.26,6.84-13.98,16.9-38.48,7.01c-41.41,0.78-29.23-6.35-3.54-6.59
			c25.7-0.24,31.1-3.32,21.35-11.98c-1.05-0.93-2.04-1.99-2.95-3.09c-5.46-0.77-10.28,0.37-8.13,2.86c3.53,4.1-14.9,2.8-14.77-1.53
			c0.13-4.33-9.99-9.1-16.73-2.4c-6.75,6.69-25.61,0.57-14.66-2.76c10.94-3.33-7.58-7.2-13.63-3.18
			c-6.05,4.02-35.62-1.58-11.85-3.39c23.77-1.81,6.28-5.99-11.49-4.05c-17.77,1.94-23.89-0.4-8.44-3.69
			c15.44-3.29,17.77-7.06-10-5.85c-27.77,1.22-32.81-6.99-6.12-5.71c26.69,1.28,13.05-3.21-2.38-5.05
			c-15.43-1.84-28.08-6.61,0.05-2.96c28.13,3.65,22.15-1.71,2.63-4.68c-19.52-2.97-21.99-6.45,3.46-2.85
			c25.45,3.6,24.57-2.65,8.06-3.98c-16.51-1.33-13.39-4.69,6.27-2.04c19.66,2.64,21.91,0.77,10.06-2.31c-11.85-3.08-7.2-5.92,6.09-1
			c13.29,4.91,17.67,2.85,9.79-1.17c-7.87-4.02,4.52-6.65,11.13-0.8C1117.44,832.26,1132.51,831.51,1129.85,826.04z"/>
		<g>
			<path class="st2" d="M1208.62,801.1c-5.97,18.75-15.63,59.78-7.69,83.87c7.55,22.9-33,56.54-46.37,23.45
				c-42.28,2.58-22.09-21.26,3.88-22.07c25.97-0.81,34.83-11.09,34.83-40.08C1193.27,817.3,1209.47,756.79,1208.62,801.1z"/>
			<path class="st2" d="M1213.34,801.1c5.97,18.75,15.64,59.78,7.69,83.87c-7.56,22.9,32.99,56.54,46.37,23.45
				c42.28,2.58,22.08-21.26-3.89-22.07c-25.97-0.81-34.83-11.09-34.83-40.08C1228.68,817.3,1212.49,756.79,1213.34,801.1z"/>
			<path class="st3" d="M1216.2,645.47c1.96-6.02,12.31-11.85,11.33,0.96c-0.98,12.81,8.81,13.22,12.13,2.47
				c3.33-10.75,15.05-18.84,10.69,3.51c-4.35,22.34,11.59,17.06,19.28,10.01c7.68-7.06,18.03-11.69,6.65,4.8
				c-11.39,16.49-1.05,18.45,12.18,11.25c13.22-7.19,17.34,1.85,8.82,11c-8.52,9.15-5.99,18.45,6.17,10.07
				c12.16-8.38,20.24,10.33,6.51,14.9c-13.74,4.57-12.83,19.3,3.62,13.43c16.45-5.88,28.69,20.9,1.94,19.94
				c-26.75-0.96-22.75,8.62-0.88,13.53c21.86,4.91,11.79,21.59-4.05,17.97c-15.85-3.62-25.63,1.71-6.57,15.7
				c19.06,13.99,2.7,23.63-7.76,12.59c-10.47-11.04-20.41-8.56-9.72,11.58c10.69,20.14,1.49,26.76-13.3,11.52
				c-14.79-15.24-18.25-7.68-13.29,8.18c4.96,15.86-3.24,19.65-11.57,5.07c-8.33-14.57-12.95-12.07-13.13,3.83
				c-0.17,15.91-8.89,19.96-10.74,1.77c-1.86-18.19-10.9-24.32-11.35,0.62c-0.45,24.95-14.41,17.87-14.14-0.97
				c0.27-18.83-15.46-17.43-16.55-3.71c-1.08,13.71-18.05,9.38-13.05-5.11c5-14.49,0.26-30.46-14.02-8.05
				c-14.28,22.4-26.26,1.93-11.57-9.21c14.69-11.15,0.53-24.11-10.04-10.67c-10.57,13.44-33.84-5.29-8.04-11.34
				c25.8-6.05,13.01-20.02-6.94-13.53c-19.95,6.49-23.44-1.33-4.3-12.33c19.14-11,25.72-23.63-3.42-19.56
				c-29.14,4.08-24.93-23.41,0.31-19.12c25.24,4.3,16.66-10.72,3.3-16.88c-13.36-6.16-20.65-22.1,3.38-9.9
				c24.03,12.2,24.08-5.75,7.9-15.67c-16.18-9.92-14.73-21.6,6.67-9.55c21.4,12.06,27.56-8.86,12.54-13.32
				c-15.01-4.45-8.11-15.68,8.57-6.84c16.69,8.84,21.04,2.58,12.65-7.71c-8.39-10.29-0.54-19.8,7.22-3.36
				c7.77,16.44,14.46,9.54,11.11-3.91c-3.34-13.46,12.01-22.26,12.04-2.69C1196.78,666.3,1212.69,663.81,1216.2,645.47z"/>
			<path class="st4" d="M1254.85,763.37c14.1,0,25.61-11.5,25.61-25.61c0-14.1-11.5-25.61-25.61-25.61
				c-14.1,0-25.6,11.51-25.6,25.61C1229.24,751.87,1240.74,763.37,1254.85,763.37z"/>
			<path class="st5" d="M1234.21,730.48c4.03-1.69,8.65,0.21,10.34,4.24c1.69,4.03-0.21,8.65-4.24,10.34
				c-4.03,1.68-8.66-0.21-10.34-4.24C1228.29,736.79,1230.18,732.16,1234.21,730.48z"/>
			<path class="st4" d="M1238,730.83c1.31-0.54,2.8,0.07,3.35,1.37c0.54,1.31-0.07,2.81-1.37,3.35c-1.3,0.55-2.8-0.07-3.35-1.37
				C1236.08,732.88,1236.69,731.38,1238,730.83z"/>
			<path class="st4" d="M1194.56,763.37c14.1,0,25.6-11.5,25.6-25.61c0-14.1-11.5-25.61-25.6-25.61c-14.11,0-25.6,11.51-25.6,25.61
				C1168.96,751.87,1180.45,763.37,1194.56,763.37z"/>
			<path class="st5" d="M1173.92,730.48c4.03-1.69,8.65,0.21,10.34,4.24c1.69,4.03-0.21,8.65-4.24,10.34
				c-4.03,1.68-8.66-0.21-10.34-4.24C1168,736.79,1169.89,732.16,1173.92,730.48z"/>
			<path class="st4" d="M1177.71,730.83c1.3-0.54,2.81,0.07,3.35,1.37c0.54,1.31-0.07,2.81-1.37,3.35c-1.3,0.55-2.8-0.07-3.35-1.37
				C1175.79,732.88,1176.4,731.38,1177.71,730.83z"/>
			<path class="st6" d="M1278.34,714.17c0.67,0.9,1.27,0.41,1.34-1.07c0.07-1.49-0.41-3.42-1.08-4.32
				c-3.66-4.91-12.27-10.7-22.57-15.46c-9.5-4.38-20.49-7.94-30.37-9.16c-0.62-0.07-0.92,1.27-0.67,3.01
				c0.26,1.74,0.97,3.2,1.59,3.28c9.81,1.2,20.69,4.72,30.07,9.06C1266.68,704.14,1274.96,709.63,1278.34,714.17z"/>
			<path class="st6" d="M1156.73,698.15c-0.66,0.9-1.26,0.42-1.34-1.07c-0.07-1.49,0.41-3.42,1.08-4.31
				c3.66-4.91,12.27-10.7,22.57-15.46c9.5-4.38,20.48-7.94,30.37-9.16c0.62-0.08,0.91,1.27,0.66,3.01
				c-0.26,1.74-0.97,3.21-1.59,3.28c-9.81,1.21-20.69,4.73-30.08,9.06C1168.38,688.13,1160.11,693.62,1156.73,698.15z"/>
			<path class="st6" d="M1203.7,804.03l0.89,4.49l-0.11,0.02l-0.12,0.01l-0.11,0.01l-0.11,0l-0.11,0l-0.11-0.01l-0.11-0.01
				l-0.11-0.02l-0.11-0.02l-0.11-0.03l-0.1-0.04l-0.1-0.04l-0.1-0.05l-0.1-0.05l-0.1-0.06l-0.09-0.06l-0.09-0.06l-0.09-0.07
				l-0.08-0.07l-0.08-0.08l-0.08-0.08l-0.07-0.08l-0.07-0.09l-0.07-0.09l-0.06-0.09l-0.06-0.1l-0.05-0.1l-0.04-0.1l-0.04-0.1
				l-0.04-0.11l-0.03-0.11l-0.03-0.11l-0.02-0.12l-0.01-0.12l-0.01-0.11l0-0.11l0-0.12l0.01-0.11l0.01-0.11l0.02-0.11l0.03-0.11
				l0.03-0.11l0.03-0.11l0.04-0.1l0.04-0.1l0.05-0.1l0.06-0.09l0.06-0.09l0.07-0.09l0.07-0.09l0.07-0.08l0.07-0.08l0.08-0.08
				l0.09-0.07l0.09-0.07l0.09-0.06l0.09-0.06l0.1-0.05l0.1-0.05l0.1-0.05l0.1-0.04l0.11-0.04l0.11-0.03L1203.7,804.03L1203.7,804.03
				z M1268.28,773.82l-2.56,3.79l-1.82-1.08l-1.8-0.79l-1.79-0.52l-1.8-0.28l-1.81-0.06l-1.84,0.16l-1.88,0.37l-1.91,0.56
				l-1.94,0.75l-1.97,0.92l-1.98,1.09l-2,1.23l-2.01,1.36l-2.02,1.47l-2.01,1.56l-2.01,1.64l-2.01,1.7l-1.99,1.74l-1.99,1.77
				l-1.97,1.77l-1.96,1.76l-1.94,1.73l-1.93,1.69l-1.9,1.63l-1.89,1.55l-1.87,1.46l-1.85,1.35l-1.84,1.22l-1.83,1.07l-1.83,0.9
				l-1.84,0.71l-1.85,0.49l-0.89-4.49l1.32-0.35l1.42-0.55l1.51-0.75l1.58-0.93l1.66-1.09l1.71-1.24l1.76-1.37l1.81-1.48l1.85-1.58
				l1.89-1.66l1.92-1.71l1.96-1.76l1.98-1.78l2.01-1.79l2.04-1.78l2.07-1.75l2.09-1.7l2.11-1.64l2.14-1.56l2.16-1.46l2.18-1.34
				l2.21-1.21l2.24-1.05l2.26-0.87l2.3-0.68l2.33-0.45l2.35-0.2l2.37,0.07l2.37,0.37l2.35,0.69l2.33,1.02L1268.28,773.82
				L1268.28,773.82z M1265.72,777.61l2.56-3.79l0.1,0.07l0.09,0.08l0.09,0.07l0.08,0.08l0.08,0.08l0.07,0.08l0.07,0.09l0.07,0.09
				l0.06,0.09l0.06,0.1l0.05,0.1l0.05,0.1l0.04,0.1l0.03,0.11l0.03,0.1l0.02,0.11l0.02,0.11l0.01,0.11l0.01,0.11l0,0.11l0,0.11
				l-0.01,0.11l-0.01,0.11l-0.02,0.11l-0.02,0.11l-0.03,0.11l-0.04,0.1l-0.04,0.1l-0.05,0.11l-0.05,0.1l-0.06,0.1l-0.06,0.1
				l-0.07,0.1l-0.07,0.09l-0.08,0.08l-0.08,0.08l-0.08,0.08l-0.09,0.07l-0.09,0.07l-0.09,0.06l-0.1,0.06l-0.1,0.05l-0.1,0.05
				l-0.1,0.04l-0.1,0.04l-0.11,0.04l-0.11,0.03l-0.1,0.02l-0.11,0.02l-0.11,0.01l-0.11,0.01l-0.11,0l-0.11,0l-0.11-0.01l-0.11-0.01
				l-0.11-0.02l-0.11-0.02l-0.11-0.03l-0.11-0.04l-0.11-0.04l-0.11-0.05l-0.1-0.05l-0.1-0.05L1265.72,777.61z"/>
		</g>
		<path class="st1" d="M1509.16,847.99c6.35-0.23,18.92,1.96,7.83,3.36c-11.08,1.4-3.98,4.25,7.23,3.79
			c11.21-0.46,26.65,1.82,5.29,3.51c-21.35,1.69-4.97,5.55,6.57,6.81c11.54,1.27,23.14,3.62,1.17,2.53
			c-21.97-1.09-15.69,2.12,0.17,4.95c15.86,2.83,11.68,5.19-2.18,3.96c-13.86-1.23-19.46,0.71-3.45,3.08
			c16.01,2.37,7.04,7.13-7.09,3.81c-14.12-3.32-25.34-1.13-8.09,2.79c17.25,3.93,4.93,10.93-14.63,3.17
			c-19.56-7.76-24.25-5.36-11.6,1.52c10.46,5.69-2.17,6.21-12.01,3.39c9.51,5.81,22.29,8.01,44.9,8.23
			c27.58,0.25,57.24,7.74,11.89,6.93c-2.36,10.4-56.88-0.17-57.03-7.36c-0.07-3.69-5.99-8.65-13.52-13.44
			c-6.5-1.96-11.76-1.52-9.5,3.65c1.65,3.76-2.95,4.66-7.65,4.05c2.62,2.09,5.77,4.05,9.54,5.74c16.04,7.19-14.69,17.76-40.45,7.36
			c-43.52,0.81-30.72-6.67-3.72-6.93c27.01-0.25,32.69-3.49,22.44-12.59c-0.95-0.84-1.85-1.77-2.69-2.75
			c-3.07-0.07-6.81,0.86-10.29,3.29c-8.14,5.69-20.48,3.93-19.41-2.28c1.07-6.22-7.66-6.22-16.7-2.73
			c-9.04,3.5-18.33,1.65-12.89-2.64c5.44-4.29-0.1-5.28-13.07-3.24c-12.97,2.03-22.87,0.08-9.6-2.83c13.28-2.91,11.37-6.3-9.12-3.16
			s-25.37-1.77-9.96-4.16c15.41-2.4,2.33-6.7-9.57-5.21c-11.9,1.49-21.3-3.93-5.79-4.4c15.5-0.47,24.79-3.92-4.15-5.06
			c-28.95-1.14-21.51-7.24-1.35-4.51c20.16,2.73,19.87-3.01,0.98-4.27c-18.89-1.26-21.44-10.35,3.05-3.78
			c24.49,6.57,26.06,1.09,5.65-3.76c-20.4-4.84-16.74-6.86,6.7-2.84c23.43,4.02,38.63,4.24,13.19-3.54
			c-25.44-7.78-0.04-10.18,15.67-2.42c15.71,7.77,21.32,3.35,16.14-1.27c-5.17-4.62,2.17-8.79,10.57-0.33
			c8.41,8.45,22.93,6.12,18.65,0.2c-4.28-5.92,6.25-7.03,12.78,0.65c6.53,7.69,28.1,6.7,20.29,1.84c-7.81-4.87,6.5-4.37,12.04,1.55
			c5.54,5.92,13.9,6.34,15.83,2.6c1.94-3.74,15.58-2.75,8.2,1.62c-7.38,4.37,3.28,5.38,11.6,2.66c8.32-2.72,27.1,0.51,11.32,3.08
			C1477.59,845.17,1491.68,849.39,1509.16,847.99z"/>
		<g>
			<path class="st2" d="M1471.19,801.02c-6.27,19.71-16.44,62.83-8.08,88.15c7.94,24.07-34.68,59.43-48.74,24.64
				c-44.44,2.71-23.21-22.34,4.09-23.2c27.3-0.85,36.61-11.66,36.61-42.12C1455.06,818.04,1472.08,754.44,1471.19,801.02z"/>
			<path class="st2" d="M1476.16,801.02c6.27,19.71,16.43,62.83,8.07,88.15c-7.94,24.07,34.68,59.43,48.74,24.64
				c44.44,2.71,23.21-22.34-4.08-23.2c-27.3-0.85-36.61-11.66-36.61-42.12C1492.28,818.04,1475.26,754.44,1476.16,801.02z"/>
			<path class="st3" d="M1576.55,706.92c6.61-0.77,16.71,6.56,4.05,11.24c-12.66,4.69-8.76,14.21,2.97,12.68
				c11.73-1.54,24.6,6.1,1.34,11.74c-23.25,5.64-11.22,18.56-1.11,22.81c10.11,4.25,19.07,12.1-1.67,8.45
				c-20.74-3.65-18.07,7.09-5.4,16.57c12.68,9.48,5.84,17.37-6.64,13.25c-12.47-4.13-20.25,2.36-6.91,10.3
				c13.34,7.94-0.99,23.87-11.37,12.75c-10.39-11.12-24.06-3.79-11.24,9.34c12.83,13.14-7.37,36.58-18.19,10.6
				c-10.82-25.97-18.21-17.95-13.31,5.09c4.91,23.04-15.45,20.74-18.94,4.01c-3.49-16.72-12.88-23.73-17.88,0.62
				c-5,24.34-21.39,12.95-15.44-1.89c5.95-14.84-0.78-23.25-15.32-4.2c-14.55,19.04-24.91,13.16-16.84-7.65
				c8.07-20.81-0.67-20.8-13.64-9.1c-12.97,11.69-20.19,5.52-9.93-8.83c10.27-14.35,5.85-17.67-9.41-10.86
				c-15.26,6.81-22.96,0.26-6.4-9.49c16.55-9.75,18.45-21.07-5.57-10.56c-24.02,10.51-23.38-5.93-5.28-13.93
				c18.11-8,9.86-22.41-3.72-17.43c-13.57,4.98-16.87-13.13-0.84-14.71c16.03-1.57,29.21-13.11,1.54-16.93
				c-27.67-3.81-13.37-24.23,3.72-15.09c17.09,9.14,23.25-10.06,5.78-14.27c-17.47-4.2-9.78-34.64,7.31-12.65
				c17.09,21.99,24.83,3.64,9.88-12.57c-14.95-16.21-9.02-22.97,9.89-9.51c18.91,13.45,33.86,14.19,17.18-11.85
				c-16.68-26.04,11.43-34.09,18.39-8.09c6.97,25.99,17.55,11.21,17.57-4.25c0.02-15.46,12.06-29.41,10.94-1.11
				c-1.11,28.3,16.05,20.48,18.43,0.67c2.38-19.81,14.17-23.54,12.04,2.18c-2.13,25.72,20.55,22.43,18.22,6.14
				c-2.33-16.29,11.42-14.62,10.29,5.19c-1.13,19.82,6.76,21.23,12.91,8.7c6.15-12.53,18.67-9.2,6.38,5.42
				c-12.29,14.62-2.78,17.99,8.61,8.89c11.39-9.1,26.53,1.71,7.86,10.32C1548.14,697.51,1557.49,711.62,1576.55,706.92z"/>
			<path class="st4" d="M1508.53,761.36c14.82,0,26.92-12.09,26.92-26.92c0-14.82-12.09-26.91-26.92-26.91
				c-14.82,0-26.91,12.09-26.91,26.91C1481.62,749.27,1493.71,761.36,1508.53,761.36z"/>
			<path class="st5" d="M1505.33,726.79c4.23-1.77,9.1,0.23,10.87,4.46c1.77,4.23-0.22,9.09-4.45,10.87
				c-4.23,1.77-9.09-0.23-10.87-4.46C1499.1,733.42,1501.09,728.56,1505.33,726.79z"/>
			<path class="st4" d="M1509.3,727.16c1.37-0.57,2.94,0.07,3.52,1.44c0.57,1.38-0.07,2.95-1.44,3.52
				c-1.37,0.57-2.95-0.07-3.53-1.44C1507.29,729.32,1507.93,727.73,1509.3,727.16z"/>
			<path class="st4" d="M1445.17,761.36c14.83,0,26.91-12.09,26.91-26.92c0-14.82-12.08-26.91-26.91-26.91
				c-14.82,0-26.91,12.09-26.91,26.91C1418.26,749.27,1430.35,761.36,1445.17,761.36z"/>
			<path class="st5" d="M1441.96,726.79c4.23-1.77,9.1,0.23,10.87,4.46c1.77,4.23-0.22,9.09-4.46,10.87
				c-4.23,1.77-9.09-0.23-10.86-4.46C1435.73,733.42,1437.73,728.56,1441.96,726.79z"/>
			<path class="st4" d="M1445.94,727.16c1.37-0.57,2.94,0.07,3.52,1.44c0.58,1.38-0.07,2.95-1.44,3.52
				c-1.37,0.57-2.95-0.07-3.52-1.44C1443.93,729.32,1444.57,727.73,1445.94,727.16z"/>
			<path class="st3" d="M1406.16,730.9c12.21-1.47,49.08-8.22,72.85,13.43C1477.19,723.04,1449.88,667.13,1406.16,730.9z"/>
			<path class="st3" d="M1545.74,730.9c-12.2-1.47-49.08-8.22-72.85,13.43C1474.71,723.04,1502.03,667.13,1545.74,730.9z"/>
			<path class="st6" d="M1455.63,810.05l4.23,2.3l-0.06,0.11l-0.06,0.1l-0.07,0.1l-0.07,0.1l-0.08,0.08l-0.08,0.09l-0.08,0.08
				l-0.09,0.07l-0.1,0.07l-0.09,0.06l-0.1,0.06l-0.1,0.05l-0.1,0.05l-0.11,0.04l-0.1,0.04l-0.11,0.04l-0.11,0.03l-0.11,0.03
				l-0.12,0.02l-0.11,0.01l-0.12,0.01l-0.11,0l-0.12,0l-0.11-0.01l-0.12-0.01l-0.12-0.02l-0.11-0.03l-0.11-0.03l-0.11-0.04
				l-0.12-0.04l-0.11-0.05l-0.11-0.06l-0.1-0.06l-0.11-0.07l-0.1-0.07l-0.09-0.08l-0.09-0.08l-0.09-0.08l-0.08-0.09l-0.07-0.09
				l-0.07-0.09l-0.06-0.1l-0.06-0.1l-0.06-0.1l-0.05-0.1l-0.05-0.1l-0.04-0.11l-0.03-0.11l-0.03-0.11l-0.02-0.11l-0.02-0.11
				l-0.01-0.11l-0.01-0.12l0-0.11l0-0.11l0.01-0.12l0.01-0.11l0.02-0.12l0.02-0.11l0.04-0.12l0.04-0.11l0.04-0.11l0.05-0.11
				L1455.63,810.05L1455.63,810.05z M1495.98,807l-4.16,2.42l-0.59-0.91l-0.66-0.84l-0.72-0.77l-0.78-0.71l-0.85-0.64l-0.91-0.58
				l-0.96-0.52l-1.01-0.45l-1.06-0.39l-1.1-0.32l-1.14-0.26l-1.17-0.19l-1.19-0.12l-1.21-0.05l-1.23,0.01l-1.23,0.08l-1.24,0.14
				l-1.23,0.21l-1.23,0.28l-1.21,0.34l-1.19,0.4l-1.16,0.46l-1.13,0.52l-1.09,0.58l-1.04,0.64l-0.99,0.7l-0.94,0.75l-0.88,0.81
				l-0.82,0.86l-0.75,0.91l-0.68,0.96l-0.6,1.01l-4.23-2.3l0.79-1.33l0.89-1.26l0.97-1.18l1.05-1.11l1.12-1.03l1.18-0.95l1.24-0.87
				l1.29-0.79l1.33-0.72l1.37-0.64l1.41-0.57l1.43-0.48l1.45-0.41l1.47-0.33l1.49-0.25l1.49-0.18l1.49-0.09l1.49-0.01l1.48,0.07
				l1.47,0.15l1.45,0.24l1.43,0.32l1.4,0.41l1.37,0.5l1.32,0.59l1.28,0.69l1.23,0.78l1.15,0.88l1.09,0.98l1.01,1.08l0.92,1.18
				L1495.98,807L1495.98,807z M1491.82,809.43l4.16-2.42l0.06,0.11l0.05,0.11l0.04,0.11l0.05,0.11l0.03,0.12l0.03,0.11l0.02,0.11
				l0.02,0.11l0.01,0.12l0,0.12v0.12l0,0.11l-0.01,0.11l-0.02,0.11l-0.02,0.11l-0.03,0.12l-0.03,0.11l-0.04,0.11l-0.04,0.1
				l-0.05,0.1l-0.06,0.1l-0.06,0.1l-0.06,0.1l-0.07,0.09l-0.08,0.09l-0.07,0.09l-0.08,0.09l-0.09,0.08l-0.09,0.08l-0.1,0.08
				l-0.1,0.07l-0.11,0.07l-0.1,0.06l-0.11,0.06l-0.12,0.04l-0.11,0.04l-0.12,0.04l-0.11,0.03l-0.12,0.02l-0.12,0.02l-0.11,0.01
				l-0.11,0.01h-0.12l-0.12-0.01l-0.11-0.01l-0.12-0.01l-0.11-0.02l-0.11-0.03l-0.11-0.03l-0.11-0.04l-0.11-0.04l-0.11-0.05
				l-0.11-0.05l-0.1-0.06l-0.09-0.06l-0.1-0.07l-0.09-0.07l-0.09-0.08l-0.09-0.08l-0.08-0.09l-0.07-0.09l-0.08-0.09l-0.07-0.1
				L1491.82,809.43z"/>
			<path class="st6" d="M1546.33,696.53c1.13,0.32,1.32-0.46,0.43-1.75c-0.89-1.29-2.53-2.6-3.65-2.92
				c-6.19-1.77-17.08-1.11-28.71,1.49c-10.73,2.4-22.18,6.44-31.21,11.73c-0.56,0.34,0.05,1.65,1.37,2.93
				c1.32,1.28,2.85,2.06,3.42,1.73c8.97-5.25,20.29-9.25,30.9-11.63C1530.2,695.59,1540.61,694.9,1546.33,696.53z"/>
			<path class="st6" d="M1411.64,697.39c-1.12,0.37-1.34-0.41-0.5-1.73c0.83-1.32,2.41-2.7,3.52-3.07
				c6.11-2.03,17.01-1.83,28.75,0.27c10.82,1.94,22.42,5.49,31.68,10.4c0.58,0.31,0.02,1.65-1.24,2.99
				c-1.27,1.35-2.76,2.18-3.34,1.87c-9.18-4.87-20.67-8.38-31.37-10.31C1427.71,695.76,1417.28,695.51,1411.64,697.39z"/>
		</g>
		<g>
			<g>
				<path class="st3" d="M988.89,534.72c58.18,0,105.63-25.61,105.63-57c0-31.4-47.45-57.01-105.63-57.01
					c-58.18,0-105.63,25.61-105.63,57.01C883.26,509.11,930.71,534.72,988.89,534.72z"/>
				<polygon class="st3" points="967.73,559.84 988.89,600.56 1010.04,559.84 988.89,567.44 				"/>
				<polygon class="st3" points="967.73,494.05 988.89,587.35 1010.04,494.05 				"/>
			</g>
		</g>
		<g>
			<path class="st7" d="M990.51,941.77c64.77,0,117.59-16.98,117.59-37.81c0-20.82-52.82-37.8-117.59-37.8
				c-64.77,0-117.59,16.98-117.59,37.8C872.92,924.79,925.74,941.77,990.51,941.77z"/>
			<path class="st8" d="M1103.07,914.92c-14.62,15.54-59.48,26.85-112.56,26.85c-53.08,0-97.94-11.31-112.56-26.85
				c14.62-15.53,59.48-26.84,112.56-26.84C1043.59,888.08,1088.45,899.39,1103.07,914.92z"/>
			<path class="st4" d="M943.55,918.07c-5.53-74.35-7.46-150.74,0-232.49C946.83,767.33,944.64,843.72,943.55,918.07L943.55,918.07z
				 M985.99,857.69c-5.58-76.55-5.24-154.1,0-232.49C987.19,703.59,986.95,781.14,985.99,857.69L985.99,857.69z M1019.59,940.72
				c6.5-77.5,6.47-154.99,0-232.49C1016.35,785.73,1016.33,863.22,1019.59,940.72z"/>
			<path class="st3" d="M899.96,648.52c0,11.7,2.91,19.8,13.97,22.12c11.06,2.33,5.24,0,0-4.66c-5.24-4.66-7.9-10.83-6.15-17.24
				C909.53,642.35,899.96,639.72,899.96,648.52z"/>
			<path class="st3" d="M1039.05,726.32c11.68-0.76,19.56-4.2,21.16-15.39c1.6-11.19-5.03-10.38-9.33-4.85
				c-4.3,5.53-4.43,17.42-10.93,16.09C1033.44,720.86,1030.26,726.9,1039.05,726.32z"/>
		</g>
	</g>
	<g>
		<path class="st9" d="M631.67,181.71h-38.84v27.48h46.56v19.69h-72.15V118.64h72.23v19.69h-46.64v23.7h38.84V181.71z"/>
		<path class="st9" d="M679.37,186.63v42.25h-25.59V118.64h38.39c12.77,0,22.89,2.95,30.36,8.86c7.47,5.91,11.21,13.98,11.21,24.23
			c0,5.7-1.5,10.6-4.5,14.69c-3,4.09-7.43,7.42-13.29,9.99c6.76,1.92,11.62,5.11,14.57,9.58s4.43,10.03,4.43,16.69v6.97
			c0,2.88,0.43,6.16,1.29,9.84c0.86,3.69,2.35,6.31,4.47,7.87v1.51h-26.42c-2.02-1.56-3.33-4.32-3.94-8.25
			c-0.61-3.94-0.91-7.65-0.91-11.13v-6.66c0-5.25-1.39-9.26-4.16-12.04c-2.78-2.78-6.84-4.16-12.19-4.16H679.37z M679.37,166.94
			h12.95c5.15,0,9.09-1.17,11.81-3.52c2.73-2.35,4.09-5.72,4.09-10.11c0-4.49-1.4-8.11-4.2-10.86c-2.8-2.75-6.75-4.13-11.85-4.13
			h-12.8V166.94z"/>
		<path class="st9" d="M778.25,186.63v42.25h-25.59V118.64h38.39c12.77,0,22.89,2.95,30.36,8.86c7.47,5.91,11.21,13.98,11.21,24.23
			c0,5.7-1.5,10.6-4.5,14.69c-3,4.09-7.43,7.42-13.29,9.99c6.76,1.92,11.62,5.11,14.57,9.58s4.43,10.03,4.43,16.69v6.97
			c0,2.88,0.43,6.16,1.29,9.84c0.86,3.69,2.35,6.31,4.47,7.87v1.51h-26.42c-2.02-1.56-3.33-4.32-3.94-8.25
			c-0.61-3.94-0.91-7.65-0.91-11.13v-6.66c0-5.25-1.39-9.26-4.16-12.04c-2.78-2.78-6.84-4.16-12.19-4.16H778.25z M778.25,166.94
			h12.95c5.15,0,9.09-1.17,11.81-3.52c2.73-2.35,4.09-5.72,4.09-10.11c0-4.49-1.4-8.11-4.2-10.86c-2.8-2.75-6.75-4.13-11.85-4.13
			h-12.8V166.94z"/>
		<path class="st9" d="M943.15,183.68c0,13.58-4.3,24.77-12.91,33.58c-8.61,8.81-19.85,13.21-33.73,13.21
			c-13.98,0-25.31-4.4-33.99-13.21c-8.68-8.81-13.02-20-13.02-33.58v-19.84c0-13.53,4.33-24.71,12.98-33.54
			c8.66-8.83,19.95-13.25,33.88-13.25c13.83,0,25.09,4.42,33.77,13.25c8.68,8.83,13.02,20.01,13.02,33.54V183.68z M917.64,163.69
			c0-7.87-1.85-14.33-5.56-19.38c-3.71-5.05-8.95-7.57-15.71-7.57c-6.92,0-12.2,2.51-15.86,7.53c-3.66,5.02-5.49,11.5-5.49,19.42
			v19.99c0,7.98,1.85,14.49,5.56,19.53c3.71,5.05,9.02,7.57,15.94,7.57c6.71,0,11.91-2.52,15.6-7.57
			c3.68-5.05,5.53-11.56,5.53-19.53V163.69z"/>
		<path class="st9" d="M984.34,186.63v42.25h-25.59V118.64h38.39c12.77,0,22.89,2.95,30.36,8.86c7.47,5.91,11.21,13.98,11.21,24.23
			c0,5.7-1.5,10.6-4.5,14.69c-3,4.09-7.43,7.42-13.29,9.99c6.76,1.92,11.62,5.11,14.57,9.58s4.43,10.03,4.43,16.69v6.97
			c0,2.88,0.43,6.16,1.29,9.84c0.86,3.69,2.35,6.31,4.47,7.87v1.51h-26.42c-2.02-1.56-3.33-4.32-3.94-8.25
			c-0.61-3.94-0.91-7.65-0.91-11.13v-6.66c0-5.25-1.39-9.26-4.16-12.04c-2.78-2.78-6.84-4.16-12.19-4.16H984.34z M984.34,166.94
			h12.95c5.15,0,9.09-1.17,11.81-3.52s4.09-5.72,4.09-10.11c0-4.49-1.4-8.11-4.2-10.86c-2.8-2.75-6.75-4.13-11.85-4.13h-12.8V166.94
			z"/>
		<path class="st9" d="M1162.04,185.8h11.13v19.84h-11.13v23.24h-25.59v-23.24h-43.84l-1.51-15.75l45.35-71.02v-0.23h25.59V185.8z
			 M1113.05,185.8h23.4v-34.3l-0.45-0.08l-2.8,5.68L1113.05,185.8z"/>
		<path class="st9" d="M1260.54,188.37c0,13.17-3.51,23.48-10.52,30.93c-7.02,7.45-16.28,11.17-27.79,11.17
			c-11.61,0-20.92-3.72-27.94-11.17c-7.02-7.44-10.52-17.75-10.52-30.93v-29.22c0-13.17,3.48-23.48,10.45-30.93
			c6.97-7.44,16.25-11.17,27.86-11.17c11.51,0,20.79,3.74,27.86,11.21c7.07,7.47,10.6,17.77,10.6,30.89V188.37z M1235.02,157.4
			c0-6.71-1.15-11.84-3.44-15.37c-2.3-3.53-5.46-5.3-9.5-5.3c-4.09,0-7.24,1.77-9.46,5.3c-2.22,3.53-3.33,8.66-3.33,15.37v32.56
			c0,6.87,1.12,12.05,3.37,15.56c2.24,3.51,5.44,5.26,9.58,5.26c4.04,0,7.18-1.75,9.43-5.26c2.24-3.51,3.37-8.69,3.37-15.56V157.4z"
			/>
		<path class="st9" d="M1341.63,185.8h11.13v19.84h-11.13v23.24h-25.59v-23.24h-43.84l-1.51-15.75l45.35-71.02v-0.23h25.59V185.8z
			 M1292.64,185.8h23.4v-34.3l-0.45-0.08l-2.8,5.68L1292.64,185.8z"/>
	</g>
	<g>
		<path class="st9" d="M546.13,331.19v-52.36h16.47c6.83,0,12.33,2.1,16.49,6.31c4.16,4.21,6.24,9.64,6.24,16.31v7.16
			c0,6.69-2.08,12.13-6.24,16.31c-4.16,4.18-9.66,6.28-16.49,6.28H546.13z M553.22,284.4v41.25h9.39c4.84,0,8.66-1.59,11.45-4.78
			c2.79-3.19,4.19-7.28,4.19-12.26v-7.23c0-4.94-1.4-9-4.19-12.19c-2.79-3.19-6.61-4.78-11.45-4.78H553.22z"/>
		<path class="st9" d="M602.7,282.32h-7.08v-7.23h7.08V282.32z M602.7,331.19h-7.08v-38.91h7.08V331.19z"/>
		<path class="st9" d="M629.71,331.95c-5.59,0-9.94-1.79-13.07-5.36c-3.13-3.57-4.69-8.27-4.69-14.1v-1.58
			c0-5.59,1.61-10.21,4.84-13.86c3.22-3.66,7.16-5.48,11.81-5.48c5.2,0,9.1,1.62,11.71,4.86c2.6,3.24,3.9,7.54,3.9,12.91v3.74
			h-24.89l-0.11,0.18c0,3.91,0.86,7.08,2.59,9.51c1.73,2.43,4.36,3.65,7.91,3.65c2.4,0,4.5-0.34,6.31-1.03
			c1.81-0.68,3.36-1.62,4.66-2.82l2.77,4.6c-1.39,1.34-3.23,2.48-5.5,3.4C635.67,331.49,632.93,331.95,629.71,331.95z M628.6,297.13
			c-2.47,0-4.51,0.95-6.13,2.86c-1.62,1.91-2.61,4.35-2.97,7.32l0.07,0.18h17.55v-0.58c0-2.83-0.7-5.17-2.09-7.01
			C633.65,298.06,631.5,297.13,628.6,297.13z"/>
		<path class="st9" d="M674.77,320.73c0-1.56-0.59-2.83-1.78-3.81c-1.19-0.98-3.43-1.85-6.74-2.59c-4.58-0.98-8.1-2.36-10.56-4.14
			c-2.46-1.77-3.69-4.15-3.69-7.12c0-3.16,1.35-5.87,4.05-8.13c2.7-2.25,6.19-3.38,10.48-3.38c4.41,0,7.98,1.2,10.72,3.6
			c2.73,2.4,4.04,5.19,3.92,8.38l-0.07,0.22h-6.76c0-1.68-0.74-3.2-2.21-4.57c-1.47-1.37-3.34-2.05-5.59-2.05
			c-2.49,0-4.36,0.56-5.59,1.69c-1.24,1.13-1.85,2.47-1.85,4.03c0,1.53,0.53,2.72,1.6,3.56c1.07,0.84,3.27,1.61,6.6,2.3
			c4.77,1.01,8.39,2.43,10.86,4.28c2.47,1.85,3.7,4.26,3.7,7.23c0,3.45-1.4,6.27-4.19,8.45c-2.79,2.18-6.44,3.27-10.95,3.27
			c-4.96,0-8.87-1.26-11.72-3.78s-4.21-5.45-4.06-8.81l0.07-0.22h6.76c0.12,2.52,1.05,4.36,2.81,5.52c1.75,1.16,3.8,1.74,6.15,1.74
			c2.52,0,4.49-0.53,5.92-1.6C674.06,323.74,674.77,322.38,674.77,320.73z"/>
		<path class="st9" d="M706.78,331.95c-5.59,0-9.94-1.79-13.07-5.36c-3.13-3.57-4.69-8.27-4.69-14.1v-1.58
			c0-5.59,1.61-10.21,4.84-13.86c3.22-3.66,7.16-5.48,11.81-5.48c5.2,0,9.1,1.62,11.71,4.86c2.6,3.24,3.9,7.54,3.9,12.91v3.74
			h-24.89l-0.11,0.18c0,3.91,0.86,7.08,2.59,9.51c1.73,2.43,4.36,3.65,7.91,3.65c2.4,0,4.5-0.34,6.31-1.03
			c1.81-0.68,3.36-1.62,4.66-2.82l2.77,4.6c-1.39,1.34-3.22,2.48-5.5,3.4C712.74,331.49,709.99,331.95,706.78,331.95z
			 M705.67,297.13c-2.47,0-4.51,0.95-6.13,2.86c-1.62,1.91-2.61,4.35-2.97,7.32l0.07,0.18h17.55v-0.58c0-2.83-0.7-5.17-2.09-7.01
			C710.71,298.06,708.57,297.13,705.67,297.13z"/>
		<path class="st9" d="M776.41,317.99c0-2.37-0.85-4.36-2.55-5.97c-1.7-1.61-4.7-2.97-8.99-4.1c-5.32-1.32-9.48-3.26-12.46-5.83
			c-2.98-2.57-4.48-5.79-4.48-9.67c0-4.1,1.61-7.52,4.82-10.25c3.21-2.73,7.38-4.1,12.52-4.1c5.51,0,9.91,1.56,13.18,4.69
			c3.27,3.13,4.86,6.78,4.77,10.95l-0.11,0.22h-6.76c0-2.97-1.04-5.43-3.11-7.37c-2.07-1.94-4.73-2.91-7.97-2.91
			c-3.31,0-5.84,0.8-7.61,2.41c-1.76,1.61-2.64,3.69-2.64,6.26c0,2.28,0.96,4.18,2.89,5.7c1.93,1.52,5.07,2.86,9.4,4.01
			c5.27,1.37,9.29,3.38,12.05,6.04s4.14,5.95,4.14,9.85c0,4.22-1.66,7.61-4.98,10.18c-3.32,2.57-7.65,3.85-13,3.85
			c-5.06,0-9.52-1.41-13.4-4.24c-3.87-2.83-5.75-6.62-5.63-11.36l0.07-0.22h6.76c0,3.29,1.25,5.82,3.74,7.61
			c2.49,1.79,5.31,2.68,8.45,2.68c3.36,0,6.01-0.76,7.96-2.27C775.43,322.63,776.41,320.58,776.41,317.99z"/>
		<path class="st9" d="M808.67,331.95c-5.59,0-9.94-1.79-13.07-5.36c-3.13-3.57-4.69-8.27-4.69-14.1v-1.58
			c0-5.59,1.61-10.21,4.84-13.86c3.22-3.66,7.16-5.48,11.81-5.48c5.2,0,9.1,1.62,11.71,4.86c2.6,3.24,3.9,7.54,3.9,12.91v3.74
			h-24.89l-0.11,0.18c0,3.91,0.86,7.08,2.59,9.51c1.73,2.43,4.36,3.65,7.91,3.65c2.4,0,4.5-0.34,6.31-1.03
			c1.81-0.68,3.36-1.62,4.66-2.82l2.77,4.6c-1.39,1.34-3.23,2.48-5.5,3.4C814.62,331.49,811.88,331.95,808.67,331.95z
			 M807.55,297.13c-2.47,0-4.51,0.95-6.13,2.86c-1.62,1.91-2.61,4.35-2.97,7.32l0.07,0.18h17.55v-0.58c0-2.83-0.7-5.17-2.09-7.01
			C812.6,298.06,810.45,297.13,807.55,297.13z"/>
		<path class="st9" d="M838.77,282.32h-7.08v-7.23h7.08V282.32z M838.77,331.19h-7.08v-38.91h7.08V331.19z"/>
		<path class="st9" d="M859.52,282.89v9.39h7.37v5.25h-7.37v23.63c0,1.82,0.38,3.11,1.13,3.85c0.76,0.74,1.76,1.11,3,1.11
			c0.41,0,0.86-0.05,1.37-0.16c0.5-0.11,0.92-0.22,1.26-0.34l0.97,4.86c-0.53,0.43-1.31,0.78-2.34,1.06
			c-1.03,0.28-2.05,0.41-3.06,0.41c-2.88,0-5.17-0.87-6.87-2.61c-1.7-1.74-2.55-4.46-2.55-8.18v-23.63h-6.19v-5.25h6.19v-9.39
			H859.52z"/>
		<path class="st9" d="M890.59,331.95c-5.59,0-9.94-1.79-13.07-5.36c-3.13-3.57-4.69-8.27-4.69-14.1v-1.58
			c0-5.59,1.61-10.21,4.84-13.86c3.22-3.66,7.16-5.48,11.81-5.48c5.2,0,9.1,1.62,11.71,4.86c2.6,3.24,3.9,7.54,3.9,12.91v3.74H880.2
			l-0.11,0.18c0,3.91,0.86,7.08,2.59,9.51c1.73,2.43,4.36,3.65,7.91,3.65c2.4,0,4.5-0.34,6.31-1.03c1.81-0.68,3.36-1.62,4.66-2.82
			l2.77,4.6c-1.39,1.34-3.22,2.48-5.5,3.4C896.55,331.49,893.8,331.95,890.59,331.95z M889.48,297.13c-2.47,0-4.51,0.95-6.13,2.86
			c-1.62,1.91-2.61,4.35-2.97,7.32l0.07,0.18H898v-0.58c0-2.83-0.7-5.17-2.08-7.01C894.52,298.06,892.38,297.13,889.48,297.13z"/>
		<path class="st9" d="M947.45,331.95c-5.59,0-9.94-1.79-13.07-5.36c-3.13-3.57-4.69-8.27-4.69-14.1v-1.58
			c0-5.59,1.61-10.21,4.84-13.86c3.22-3.66,7.16-5.48,11.81-5.48c5.2,0,9.1,1.62,11.71,4.86c2.6,3.24,3.9,7.54,3.9,12.91v3.74
			h-24.89l-0.11,0.18c0,3.91,0.86,7.08,2.59,9.51c1.73,2.43,4.36,3.65,7.91,3.65c2.4,0,4.5-0.34,6.31-1.03
			c1.81-0.68,3.36-1.62,4.66-2.82l2.77,4.6c-1.39,1.34-3.22,2.48-5.5,3.4C953.41,331.49,950.66,331.95,947.45,331.95z
			 M946.33,297.13c-2.47,0-4.51,0.95-6.13,2.86c-1.62,1.91-2.61,4.35-2.97,7.32l0.07,0.18h17.55v-0.58c0-2.83-0.7-5.17-2.08-7.01
			C951.38,298.06,949.23,297.13,946.33,297.13z"/>
		<path class="st9" d="M983.09,306.63l8.27-14.35h8.27l-12.62,19.24l12.98,19.67h-8.13l-8.63-14.71l-8.63,14.71h-8.2l12.98-19.67
			l-12.62-19.24h8.16L983.09,306.63z"/>
		<path class="st9" d="M1014.59,282.32h-7.08v-7.23h7.08V282.32z M1014.59,331.19h-7.08v-38.91h7.08V331.19z"/>
		<path class="st9" d="M1048.11,320.73c0-1.56-0.59-2.83-1.78-3.81c-1.19-0.98-3.43-1.85-6.74-2.59c-4.58-0.98-8.1-2.36-10.56-4.14
			c-2.46-1.77-3.69-4.15-3.69-7.12c0-3.16,1.35-5.87,4.05-8.13c2.7-2.25,6.19-3.38,10.48-3.38c4.41,0,7.98,1.2,10.72,3.6
			c2.73,2.4,4.04,5.19,3.92,8.38l-0.07,0.22h-6.76c0-1.68-0.74-3.2-2.21-4.57c-1.47-1.37-3.34-2.05-5.59-2.05
			c-2.49,0-4.36,0.56-5.59,1.69c-1.24,1.13-1.85,2.47-1.85,4.03c0,1.53,0.53,2.72,1.6,3.56c1.07,0.84,3.27,1.61,6.6,2.3
			c4.77,1.01,8.39,2.43,10.86,4.28c2.47,1.85,3.7,4.26,3.7,7.23c0,3.45-1.4,6.27-4.19,8.45c-2.79,2.18-6.44,3.27-10.95,3.27
			c-4.96,0-8.87-1.26-11.72-3.78c-2.85-2.52-4.21-5.45-4.06-8.81l0.07-0.22h6.76c0.12,2.52,1.05,4.36,2.8,5.52
			c1.75,1.16,3.8,1.74,6.15,1.74c2.52,0,4.49-0.53,5.92-1.6C1047.4,323.74,1048.11,322.38,1048.11,320.73z"/>
		<path class="st9" d="M1073.86,282.89v9.39h7.37v5.25h-7.37v23.63c0,1.82,0.38,3.11,1.13,3.85c0.76,0.74,1.76,1.11,3,1.11
			c0.41,0,0.86-0.05,1.37-0.16c0.5-0.11,0.92-0.22,1.26-0.34l0.97,4.86c-0.53,0.43-1.31,0.78-2.34,1.06
			c-1.03,0.28-2.05,0.41-3.06,0.41c-2.88,0-5.17-0.87-6.87-2.61c-1.7-1.74-2.55-4.46-2.55-8.18v-23.63h-6.19v-5.25h6.19v-9.39
			H1073.86z"/>
		<path class="st9" d="M1096.48,282.32h-7.08v-7.23h7.08V282.32z M1096.48,331.19h-7.08v-38.91h7.08V331.19z"/>
		<path class="st9" d="M1123.49,331.95c-5.59,0-9.94-1.79-13.07-5.36c-3.13-3.57-4.69-8.27-4.69-14.1v-1.58
			c0-5.59,1.61-10.21,4.84-13.86c3.22-3.66,7.16-5.48,11.81-5.48c5.2,0,9.1,1.62,11.71,4.86c2.6,3.24,3.9,7.54,3.9,12.91v3.74
			h-24.89l-0.11,0.18c0,3.91,0.86,7.08,2.59,9.51c1.73,2.43,4.36,3.65,7.91,3.65c2.4,0,4.5-0.34,6.31-1.03
			c1.81-0.68,3.36-1.62,4.66-2.82l2.77,4.6c-1.39,1.34-3.22,2.48-5.5,3.4C1129.45,331.49,1126.7,331.95,1123.49,331.95z
			 M1122.37,297.13c-2.47,0-4.51,0.95-6.13,2.86c-1.62,1.91-2.61,4.35-2.97,7.32l0.07,0.18h17.55v-0.58c0-2.83-0.7-5.17-2.08-7.01
			C1127.42,298.06,1125.27,297.13,1122.37,297.13z"/>
		<path class="st9" d="M1164.34,298.54l-3.63-0.22c-1.87,0-3.45,0.44-4.73,1.33c-1.28,0.89-2.27,2.13-2.97,3.74v27.8h-7.08v-38.91
			h6.33l0.68,5.68c1.1-2.01,2.46-3.58,4.08-4.71c1.62-1.13,3.48-1.69,5.59-1.69c0.53,0,1.03,0.04,1.51,0.13
			c0.48,0.08,0.88,0.17,1.19,0.27L1164.34,298.54z"/>
		<path class="st9" d="M1182.18,282.89v9.39h7.37v5.25h-7.37v23.63c0,1.82,0.38,3.11,1.13,3.85c0.76,0.74,1.76,1.11,3,1.11
			c0.41,0,0.86-0.05,1.37-0.16c0.5-0.11,0.92-0.22,1.26-0.34l0.97,4.86c-0.53,0.43-1.31,0.78-2.34,1.06
			c-1.03,0.28-2.05,0.41-3.06,0.41c-2.88,0-5.17-0.87-6.87-2.61c-1.7-1.74-2.55-4.46-2.55-8.18v-23.63h-6.19v-5.25h6.19v-9.39
			H1182.18z"/>
		<path class="st9" d="M1221.78,292.28l0.5,5.79c1.29-2.06,2.92-3.66,4.87-4.8c1.95-1.14,4.18-1.71,6.67-1.71
			c4.2,0,7.44,1.23,9.75,3.69c2.3,2.46,3.45,6.25,3.45,11.38v24.56h-7.08v-24.42c0-3.43-0.68-5.86-2.03-7.3
			c-1.36-1.44-3.42-2.16-6.2-2.16c-2.18,0-4.03,0.44-5.56,1.31c-1.52,0.88-2.73,2.1-3.61,3.69v28.88h-7.08v-38.91H1221.78z"/>
		<path class="st9" d="M1264.97,282.32h-7.08v-7.23h7.08V282.32z M1264.97,331.19h-7.08v-38.91h7.08V331.19z"/>
		<path class="st9" d="M1291.33,326.41c2.18,0,4.09-0.72,5.72-2.18c1.63-1.45,2.45-3.23,2.45-5.34h6.4l0.11,0.22
			c0.1,3.36-1.34,6.34-4.32,8.94c-2.97,2.6-6.43,3.9-10.36,3.9c-5.47,0-9.69-1.86-12.66-5.57c-2.97-3.72-4.46-8.34-4.46-13.88v-1.51
			c0-5.49,1.49-10.1,4.48-13.83c2.98-3.73,7.2-5.59,12.64-5.59c4.34,0,7.89,1.34,10.66,4.03c2.77,2.69,4.1,5.98,4.01,9.89
			l-0.07,0.22h-6.44c0-2.37-0.77-4.39-2.32-6.06c-1.55-1.67-3.5-2.5-5.84-2.5c-3.48,0-6.01,1.35-7.61,4.05
			c-1.59,2.7-2.39,5.96-2.39,9.8v1.51c0,3.91,0.78,7.21,2.35,9.89C1285.26,325.07,1287.81,326.41,1291.33,326.41z"/>
		<path class="st9" d="M1321.5,297.49c1.34-1.87,2.99-3.33,4.95-4.37c1.95-1.04,4.12-1.56,6.49-1.56c4.15,0,7.38,1.25,9.69,3.74
			c2.31,2.49,3.47,6.33,3.47,11.51v24.38h-7.08v-24.46c0-3.21-0.69-5.59-2.07-7.12c-1.38-1.53-3.43-2.3-6.17-2.3
			c-2.11,0-3.94,0.41-5.5,1.24c-1.56,0.83-2.82,1.98-3.78,3.47v29.17h-7.08v-56.1h7.08V297.49z"/>
		<path class="st9" d="M1366.13,282.89v9.39h7.37v5.25h-7.37v23.63c0,1.82,0.38,3.11,1.13,3.85c0.76,0.74,1.76,1.11,3,1.11
			c0.41,0,0.86-0.05,1.37-0.16c0.5-0.11,0.92-0.22,1.26-0.34l0.97,4.86c-0.53,0.43-1.31,0.78-2.34,1.06
			c-1.03,0.28-2.05,0.41-3.06,0.41c-2.88,0-5.17-0.87-6.87-2.61c-1.7-1.74-2.55-4.46-2.55-8.18v-23.63h-6.19v-5.25h6.19v-9.39
			H1366.13z"/>
	</g>
	<g>
		<path class="st0" d="M937.35,495.84h-9.75v-13.26h-10.74v13.26h-9.75v-34.92h9.75v12.74h10.74v-12.74h9.75V495.84z"/>
		<path class="st0" d="M943.9,495.84v-34.92h26.27v8.38h-16.52v4.81h14.15v8.03h-14.15v5.33h16.82v8.38H943.9z"/>
		<path class="st0" d="M975.8,495.84v-34.92h9.75v26h15.59v8.92H975.8z"/>
		<path class="st0" d="M1022.29,460.92c1.44,0,2.75,0.29,3.95,0.87c1.19,0.58,2.22,1.38,3.07,2.4c0.86,1.02,1.52,2.23,2,3.63
			c0.47,1.4,0.71,2.92,0.71,4.57v0.64c0,1.65-0.24,3.18-0.71,4.58c-0.47,1.4-1.14,2.62-2,3.66c-0.86,1.03-1.88,1.84-3.07,2.42
			c-1.19,0.58-2.51,0.87-3.95,0.87H1015v11.28h-9.75v-34.92H1022.29z M1015,469.2v7.21h4.03c1.04,0,1.81-0.31,2.32-0.93
			c0.51-0.62,0.77-1.45,0.77-2.49v-0.4c0-1.04-0.25-1.87-0.74-2.48c-0.5-0.61-1.28-0.92-2.34-0.92H1015z"/>
		<path class="st0" d="M1043.99,483.35h-5.61l-2.44-22.43h10.57L1043.99,483.35z M1045.59,495.84h-8.76v-9.39h8.76V495.84z"/>
		<path class="st0" d="M1058.7,483.35h-5.61l-2.44-22.43h10.57L1058.7,483.35z M1060.29,495.84h-8.76v-9.39h8.76V495.84z"/>
		<path class="st0" d="M1073.41,483.35h-5.61l-2.44-22.43h10.57L1073.41,483.35z M1075,495.84h-8.76v-9.39h8.76V495.84z"/>
	</g>
</g>
<g id="Ebene_2">
</g>
</svg>
