<?xml version="1.0" encoding="utf-8"?>
<!-- Generator: Adobe Illustrator 23.0.2, SVG Export Plug-In . SVG Version: 6.00 Build 0)  -->
<svg version="1.1" xmlns="http://www.w3.org/2000/svg" xmlns:xlink="http://www.w3.org/1999/xlink" x="0px" y="0px"
	 viewBox="0 0 360 640" style="enable-background:new 0 0 360 640;" xml:space="preserve">
<style type="text/css">
	.st0{fill:#C84829;}
	.st1{opacity:0.5;fill-rule:evenodd;clip-rule:evenodd;fill:#75380A;}
	.st2{fill-rule:evenodd;clip-rule:evenodd;fill:#E2B33A;}
	.st3{fill-rule:evenodd;clip-rule:evenodd;fill:#92C4AF;}
	.st4{fill-rule:evenodd;clip-rule:evenodd;fill:#FFFFFF;}
	.st5{fill-rule:evenodd;clip-rule:evenodd;fill:#020203;}
	.st6{fill:#27453A;}
	.st7{fill-rule:evenodd;clip-rule:evenodd;fill:#A85E1C;}
	.st8{fill-rule:evenodd;clip-rule:evenodd;fill:#512A06;}
	.st9{fill:#E2B33A;}
</style>
<g id="Ebene_1">
	<g>
		<rect class="st0" width="360" height="640"/>
	</g>
	<g>
		<path class="st1" d="M93.28,410.01c1.26,1.79,3.25,3.64,6.33,5.02c6.16,2.76-5.64,6.82-15.53,2.83
			c-16.71,0.31-11.8-2.56-1.43-2.66c10.37-0.1,12.55-1.34,8.62-4.83c-0.27-0.24-0.53-0.5-0.77-0.77c-1.69,0.02-3.3,0.49-3.7,1.42
			c-0.63,0.65-4.82,1.02-4.84-0.45c-0.02-1.47-4.18-1.8-5.23-0.64c-1.05,1.16-5.75,1.76-4.65-0.72c1.09-2.49-5.5-2.34-8.52-1.73
			c-3.02,0.6-7.26,0.84-2.98-0.76c4.28-1.59-0.18-2.13-5.55-1.67c-5.37,0.45-7.42-0.72-4.11-1.54c3.31-0.82,1.92-1.98-2.96-1.36
			c-4.88,0.62-8.94-1.8-3.27-1.93c5.67-0.13,4.8-1.88-1.99-1.68c-6.78,0.21-12.88-3.28-1.5-2.39c11.39,0.89,9.36-0.34-0.08-1.56
			c-9.44-1.21-5.74-2.87,1.11-1.98c6.85,0.89,10.82,0.55,2.26-1.64c-8.56-2.2-1.94-2.84,2.87-1.25c4.81,1.6,8.95,1.6,3.73-1.07
			c-5.21-2.67-1.54-3.17,5.26-0.96c6.79,2.22,8,1.43,5.36-0.57c-2.64-2,0.71-2.2,4.74-0.26c4.03,1.95,5.91,1.79,5.44-0.06
			c-0.46-1.86,3.1-2.08,4.5,0.11c1.4,2.18,5.44,3.16,4.79,0.26c-0.65-2.9,5.51-1.67,6.03,0.53c0.52,2.2,7.15,2.49,7.15,0.92
			c0-1.57,7.35-0.57,5.71,0.98c-1.63,1.55,0.92,3.56,6.22,1.35c5.3-2.2,11.08,0.54,5.22,1.42c-5.86,0.87,0.59,2.8,4.62,1.54
			c4.03-1.26,14.54,1.61,3.79,1.56c-10.75-0.05-4.85,1.96,3.4,1.79c8.25-0.17,9.99,0.84,2.24,1.57c-7.75,0.73-10.12,2.01,2.11,2.39
			c12.23,0.38,11.37,3.47,0.52,2.23c-10.86-1.24-6.71,0.77-0.83,1.88c5.88,1.11,9.51,3.19-1.1,1.06c-10.61-2.13-10.03-0.03-2.82,1.6
			c7.2,1.63,6.98,2.96-2.51,0.92c-9.49-2.04-11.39,0.23-4.87,1.19c6.52,0.96,3.97,2.07-3.41,0.55c-7.38-1.52-9.01-0.92-5.11,0.53
			c2.07,0.77,2.2,1.37,1.3,1.46c3.55,1.8,8.31,2.5,16.2,2.58c10.59,0.1,21.97,2.97,4.56,2.66c-0.91,3.99-21.83-0.07-21.89-2.83
			c-0.02-1.01-1.17-2.25-2.86-3.55c-0.08-0.04-0.17-0.09-0.25-0.14c-3.85-2.15-6.46-1.54-4.58,0.13c1.87,1.67-4.34,2.25-5.02-0.04
			C94.81,410.79,94.15,410.31,93.28,410.01z"/>
		<g>
			<path class="st2" d="M105.04,376.09c-2.41,7.57-6.31,24.12-3.1,33.84c3.05,9.24-13.31,22.81-18.71,9.46
				c-17.06,1.04-8.91-8.58,1.57-8.91c10.48-0.33,14.05-4.47,14.05-16.17C98.85,382.62,105.39,358.21,105.04,376.09z"/>
			<path class="st2" d="M106.95,376.09c2.41,7.57,6.31,24.12,3.1,33.84c-3.05,9.24,13.31,22.81,18.71,9.46
				c17.06,1.04,8.91-8.58-1.57-8.91c-10.48-0.33-14.05-4.47-14.05-16.17C113.14,382.62,106.61,358.21,106.95,376.09z"/>
			<path class="st3" d="M93.65,396.5c-1.36,2.17-5.98,3.43-4.34-1.49c1.64-4.92-2.15-6.04-4.51-2.15c-2.35,3.88-7.73,5.9-3.84-2.42
				c3.89-8.32-2.87-7.81-6.57-5.81c-3.7,2.01-8.2,2.81-2.13-2.53c6.07-5.34,2.22-7.12-3.66-5.6c-5.88,1.52-6.6-2.42-2.37-5.17
				c4.23-2.75,4.15-6.64-1.43-4.55c-5.58,2.09-6.91-6.03-1.09-6.47c5.82-0.44,6.91-6.3-0.1-5.61c-7.01,0.69-9.19-10.99,1.19-7.99
				c10.38,2.99,9.75-1.15,1.67-5.21c-8.08-4.06-2.5-9.61,3.34-6.64c5.85,2.97,10.2,1.84,4.11-5.5c-6.09-7.34,1.26-9.51,4.27-4.17
				c3.02,5.35,7.15,5.35,4.94-3.58c-2.21-8.93,2.04-10.62,6.33-3.21c4.3,7.41,6.39,4.79,6-1.9c-0.39-6.69,3.19-7.37,5.03-0.85
				c1.83,6.52,3.89,5.99,5.51-0.22c1.62-6.21,5.43-6.94,4.38,0.36c-1.05,7.3,1.88,10.59,4.5,0.87c2.62-9.72,7.39-5.58,5.44,1.76
				c-1.95,7.35,4.35,8.34,6.11,3.07c1.77-5.26,7.99-1.9,4.61,3.28c-3.38,5.18-3.08,11.9,4.7,4.53c7.78-7.37,10.47,1.81,3.63,4.74
				c-6.84,2.92-2.57,9.38,2.89,5.16c5.45-4.22,12.73,5.39,2.04,5.23c-10.69-0.16-7.05,6.56,1.39,5.98c8.45-0.59,9.04,2.81,0.47,5.25
				c-8.57,2.43-12.38,6.73-0.57,7.99c11.81,1.26,7.47,11.61-1.99,7.45c-9.46-4.16-7.57,2.57-2.94,6.29
				c4.63,3.72,5.92,10.67-2.29,3.55c-8.21-7.13-9.99-0.11-4.62,5.36c5.36,5.47,3.65,9.9-3.54,3.08c-7.2-6.81-11.65,0.77-6.21,3.99
				c5.44,3.21,1.64,6.93-4.03,1.84c-5.67-5.1-7.98-3.07-5.71,1.78c2.28,4.85-1.73,7.8-3.15,0.61c-1.43-7.19-4.72-5.15-4.73,0.45
				c-0.01,5.6-6.88,7.54-4.97-0.12C103.29,390.25,96.82,389.66,93.65,396.5z"/>
			<path class="st6" d="M130.82,337.02c0.27,0.34,0.49,0.14,0.5-0.43c0.01-0.57-0.2-1.31-0.47-1.65c-1.48-1.84-4.87-3.96-8.9-5.65
				c-3.72-1.56-7.99-2.78-11.82-3.12c-0.24-0.02-0.34,0.5-0.21,1.17c0.12,0.67,0.42,1.22,0.66,1.24c3.79,0.33,8.03,1.54,11.7,3.08
				C126.2,333.32,129.46,335.32,130.82,337.02z"/>
			<path class="st6" d="M79.25,337.35c-0.26,0.34-0.49,0.16-0.51-0.42c-0.03-0.57,0.16-1.32,0.42-1.66
				c1.42-1.89,4.74-4.11,8.71-5.94c3.66-1.68,7.9-3.04,11.71-3.5c0.24-0.03,0.35,0.49,0.25,1.16c-0.1,0.67-0.38,1.23-0.61,1.26
				c-3.78,0.45-7.97,1.8-11.6,3.46C83.75,333.5,80.56,335.61,79.25,337.35z"/>
			<path class="st4" d="M117.36,360.86c5.69,0,10.33-4.64,10.33-10.33c0-5.69-4.64-10.33-10.33-10.33
				c-5.69,0-10.33,4.64-10.33,10.33C107.03,356.22,111.67,360.86,117.36,360.86z"/>
			<path class="st5" d="M116.13,347.59c1.62-0.68,3.49,0.09,4.17,1.71c0.68,1.62-0.09,3.49-1.71,4.17
				c-1.62,0.68-3.49-0.09-4.17-1.71C113.74,350.14,114.51,348.27,116.13,347.59z"/>
			<path class="st4" d="M117.66,347.73c0.53-0.22,1.13,0.03,1.35,0.55c0.22,0.53-0.03,1.13-0.55,1.35
				c-0.53,0.22-1.13-0.03-1.35-0.55C116.88,348.56,117.13,347.95,117.66,347.73z"/>
			<path class="st4" d="M93.04,360.86c5.69,0,10.33-4.64,10.33-10.33c0-5.69-4.64-10.33-10.33-10.33c-5.69,0-10.33,4.64-10.33,10.33
				C82.71,356.22,87.35,360.86,93.04,360.86z"/>
			<path class="st5" d="M91.81,347.59c1.62-0.68,3.49,0.09,4.17,1.71c0.68,1.62-0.09,3.49-1.71,4.17c-1.62,0.68-3.49-0.09-4.17-1.71
				C89.42,350.14,90.18,348.27,91.81,347.59z"/>
			<path class="st4" d="M93.33,347.73c0.53-0.22,1.13,0.03,1.35,0.55c0.22,0.53-0.03,1.13-0.55,1.35c-0.53,0.22-1.13-0.03-1.35-0.55
				C92.56,348.56,92.81,347.95,93.33,347.73z"/>
			<path class="st6" d="M98.57,368.39l1.62,0.88l-0.02,0.04l-0.03,0.04l-0.03,0.04l-0.03,0.04l-0.03,0.03l-0.03,0.03l-0.03,0.03
				l-0.04,0.03l-0.04,0.03l-0.04,0.02l-0.04,0.02l-0.04,0.02l-0.04,0.02l-0.04,0.02l-0.04,0.02l-0.04,0.01l-0.04,0.01l-0.04,0.01
				l-0.04,0.01l-0.04,0.01l-0.04,0l-0.05,0l-0.04,0l-0.04,0l-0.04-0.01l-0.04-0.01l-0.04-0.01l-0.04-0.01l-0.04-0.01l-0.04-0.02
				l-0.04-0.02l-0.04-0.02l-0.04-0.02l-0.04-0.03l-0.04-0.03l-0.04-0.03l-0.03-0.03l-0.03-0.03l-0.03-0.03l-0.03-0.03l-0.03-0.04
				l-0.02-0.04l-0.02-0.04l-0.02-0.04l-0.02-0.04l-0.02-0.04l-0.01-0.04l-0.01-0.04l-0.01-0.04l-0.01-0.04l-0.01-0.04l-0.01-0.04
				l0-0.04l0-0.05l0-0.05l0-0.04l0-0.05l0.01-0.04l0.01-0.04l0.01-0.04l0.01-0.04l0.02-0.04l0.02-0.04L98.57,368.39L98.57,368.39z
				 M114.06,367.23l-1.59,0.93l-0.23-0.35l-0.25-0.32l-0.28-0.3l-0.3-0.27l-0.33-0.25l-0.35-0.22l-0.37-0.2l-0.39-0.17l-0.41-0.15
				l-0.42-0.12l-0.44-0.1l-0.45-0.07l-0.46-0.05l-0.47-0.02l-0.47,0.01l-0.48,0.03l-0.48,0.05l-0.47,0.08l-0.47,0.1l-0.46,0.13
				l-0.46,0.15l-0.44,0.18l-0.43,0.2l-0.42,0.22l-0.4,0.25l-0.38,0.27l-0.36,0.29l-0.34,0.31l-0.31,0.33l-0.29,0.35l-0.26,0.37
				l-0.23,0.39l-1.62-0.88l0.3-0.51l0.34-0.48l0.37-0.45l0.4-0.42l0.43-0.39l0.45-0.36l0.47-0.33l0.49-0.3l0.51-0.27l0.53-0.25
				l0.54-0.22l0.55-0.18l0.56-0.16l0.56-0.13l0.57-0.1l0.57-0.07l0.57-0.04l0.57,0l0.57,0.03l0.56,0.06l0.56,0.09l0.55,0.13
				l0.54,0.16l0.52,0.19l0.51,0.23l0.49,0.26l0.47,0.3l0.44,0.34l0.42,0.38l0.39,0.41l0.35,0.45L114.06,367.23L114.06,367.23z
				 M112.46,368.16l1.59-0.93l0.02,0.04l0.02,0.04l0.02,0.04l0.02,0.04l0.01,0.04l0.01,0.04l0.01,0.05l0.01,0.04l0,0.04l0,0.05v0.04
				l0,0.05l0,0.04l-0.01,0.04l-0.01,0.04l-0.01,0.04l-0.01,0.04l-0.01,0.04l-0.02,0.04l-0.02,0.04l-0.02,0.04l-0.02,0.04l-0.02,0.04
				l-0.03,0.04l-0.03,0.04l-0.03,0.03l-0.03,0.03l-0.03,0.03l-0.03,0.03l-0.04,0.03l-0.04,0.03l-0.04,0.03l-0.04,0.02l-0.04,0.02
				l-0.04,0.02l-0.04,0.02l-0.04,0.01l-0.04,0.01l-0.04,0.01l-0.05,0.01l-0.04,0.01l-0.04,0h-0.04l-0.04,0l-0.04-0.01l-0.04-0.01
				l-0.04-0.01l-0.04-0.01l-0.04-0.01l-0.04-0.02l-0.04-0.02l-0.04-0.02l-0.04-0.02l-0.04-0.02l-0.04-0.03l-0.04-0.03l-0.04-0.03
				l-0.03-0.03l-0.03-0.03l-0.03-0.03l-0.03-0.03l-0.03-0.04l-0.03-0.04L112.46,368.16z"/>
		</g>
		<path class="st1" d="M247.87,385.69c-0.03-0.69,3.19-1.36,4.48,0.11c1.28,1.47,5.09,1.52,4.98,0.28c-0.11-1.23,3.34-2.16,4.55,0.4
			c1.21,2.56,6.65,1.96,8.69,1.15c2.04-0.81,5.42-1.34,3.17,0.55c-2.24,1.89,1.98,2.11,6.13,1.29c4.15-0.83,6.89,0.21,4.81,1.26
			c-2.09,1.05,0.08,2.12,3.67,1.16c3.59-0.96,9.1,1.19,4.42,1.71c-4.68,0.52-2.43,2.22,3.12,1.54c5.56-0.67,13.71,2.4,3.32,2.29
			c-10.39-0.11-7.62,0.99,1.41,1.55c9.03,0.56,7.32,2.48,0.77,2.06c-6.55-0.42-9.62,0.2-0.5,1.8c9.12,1.61,4.09,2.71-1.35,1.44
			c-5.44-1.27-8.94-0.98-2.24,1.33c6.7,2.31,4.03,3.07-3.62,1.32c-7.65-1.75-8-0.88-4.05,0.94c3.95,1.82,1.29,2.25-3.79,0.58
			c-5.08-1.67-6.53-1.39-4.54,0.44c1.08,0.99,0.74,1.58-0.3,1.58c3.45,2,8.08,2.77,16.14,2.85c10.07,0.09,20.91,2.83,4.34,2.53
			c-0.86,3.8-20.77-0.06-20.83-2.69c-0.03-1.45-2.54-3.45-5.6-5.32c-2.37-0.96-4.22-0.83-1.93,1.33c3.05,2.86-3.22,2.05-5.55-0.11
			c-0.13-0.12-0.27-0.23-0.42-0.34c1.21,1.6,3.04,3.21,5.78,4.44c5.86,2.63-5.37,6.49-14.77,2.69c-15.9,0.3-11.22-2.44-1.36-2.53
			c9.87-0.09,11.94-1.27,8.2-4.6c-0.4-0.36-0.78-0.76-1.13-1.19c-2.1-0.29-3.95,0.14-3.12,1.1c1.35,1.57-5.72,1.08-5.67-0.59
			c0.05-1.66-3.83-3.49-6.42-0.92c-2.59,2.57-9.83,0.22-5.63-1.06c4.2-1.28-2.91-2.76-5.23-1.22c-2.32,1.54-13.67-0.61-4.55-1.3
			c9.12-0.69,2.41-2.3-4.41-1.55c-6.82,0.75-9.17-0.15-3.24-1.42c5.93-1.26,6.82-2.71-3.84-2.24c-10.66,0.47-12.59-2.68-2.35-2.19
			c10.25,0.49,5.01-1.23-0.91-1.94c-5.92-0.71-10.78-2.54,0.02-1.14c10.8,1.4,8.5-0.66,1.01-1.8c-7.49-1.14-8.44-2.48,1.33-1.09
			c9.77,1.38,9.43-1.02,3.1-1.53c-6.34-0.51-5.14-1.8,2.41-0.78c7.55,1.01,8.41,0.3,3.86-0.89c-4.55-1.18-2.77-2.27,2.34-0.39
			c5.1,1.89,6.78,1.09,3.76-0.45c-3.02-1.54,1.74-2.55,4.27-0.31C243.1,388.08,248.89,387.79,247.87,385.69z"/>
		<g>
			<path class="st2" d="M278.11,376.12c-2.29,7.2-6,22.95-2.95,32.2c2.9,8.79-12.67,21.71-17.8,9c-16.23,0.99-8.48-8.16,1.49-8.47
				c9.97-0.31,13.37-4.26,13.37-15.38C272.22,382.34,278.43,359.11,278.11,376.12z"/>
			<path class="st2" d="M279.92,376.12c2.29,7.2,6,22.95,2.95,32.2c-2.9,8.79,12.67,21.71,17.8,9c16.23,0.99,8.48-8.16-1.49-8.47
				c-9.97-0.31-13.37-4.26-13.37-15.38C285.81,382.34,279.59,359.11,279.92,376.12z"/>
			<path class="st3" d="M281.02,316.37c0.75-2.31,4.72-4.55,4.35,0.37c-0.37,4.92,3.38,5.07,4.66,0.95c1.28-4.13,5.78-7.23,4.1,1.35
				c-1.67,8.58,4.45,6.55,7.4,3.84c2.95-2.71,6.92-4.49,2.55,1.84c-4.37,6.33-0.4,7.08,4.67,4.32c5.08-2.76,6.66,0.71,3.39,4.22
				c-3.27,3.51-2.3,7.08,2.37,3.87c4.67-3.22,7.77,3.97,2.5,5.72c-5.27,1.75-4.93,7.41,1.39,5.15c6.32-2.26,11.01,8.02,0.74,7.65
				c-10.27-0.37-8.73,3.31-0.34,5.19c8.39,1.88,4.53,8.29-1.56,6.9c-6.09-1.39-9.84,0.66-2.52,6.03c7.32,5.37,1.04,9.07-2.98,4.83
				c-4.02-4.24-7.83-3.29-3.73,4.45c4.1,7.73,0.57,10.27-5.1,4.42c-5.68-5.85-7.01-2.95-5.1,3.14c1.9,6.09-1.25,7.54-4.44,1.95
				c-3.2-5.59-4.97-4.63-5.04,1.47c-0.07,6.11-3.41,7.66-4.12,0.68c-0.71-6.98-4.18-9.34-4.36,0.24c-0.17,9.58-5.53,6.86-5.43-0.37
				c0.1-7.23-5.94-6.69-6.35-1.43c-0.41,5.26-6.93,3.6-5.01-1.96c1.92-5.56,0.1-11.69-5.38-3.09c-5.48,8.6-10.08,0.74-4.44-3.54
				c5.64-4.28,0.21-9.25-3.85-4.09c-4.06,5.16-12.99-2.03-3.09-4.35c9.91-2.32,5-7.69-2.66-5.19c-7.66,2.49-9-0.51-1.65-4.73
				c7.35-4.22,9.87-9.07-1.31-7.51c-11.19,1.57-9.57-8.99,0.12-7.34c9.69,1.65,6.4-4.12,1.27-6.48c-5.13-2.37-7.93-8.49,1.3-3.8
				c9.22,4.68,9.24-2.21,3.03-6.02c-6.21-3.81-5.65-8.29,2.56-3.67c8.21,4.63,10.58-3.4,4.82-5.11c-5.76-1.71-3.12-6.02,3.29-2.63
				c6.41,3.4,8.08,0.99,4.86-2.96c-3.22-3.95-0.21-7.6,2.77-1.29c2.98,6.31,5.55,3.66,4.26-1.5c-1.28-5.17,4.61-8.54,4.62-1.03
				C273.56,324.37,279.67,323.41,281.02,316.37z"/>
			<path class="st4" d="M295.86,361.64c5.41,0,9.83-4.42,9.83-9.83c0-5.41-4.42-9.83-9.83-9.83c-5.41,0-9.83,4.42-9.83,9.83
				C286.03,357.22,290.44,361.64,295.86,361.64z"/>
			<path class="st5" d="M287.93,349.01c1.55-0.65,3.32,0.08,3.97,1.63c0.65,1.55-0.08,3.32-1.63,3.97
				c-1.55,0.65-3.32-0.08-3.97-1.63C285.66,351.43,286.39,349.65,287.93,349.01z"/>
			<path class="st4" d="M289.39,349.14c0.5-0.21,1.08,0.03,1.29,0.53c0.21,0.5-0.03,1.08-0.53,1.29c-0.5,0.21-1.08-0.03-1.29-0.53
				C288.65,349.93,288.88,349.35,289.39,349.14z"/>
			<path class="st4" d="M272.71,361.64c5.41,0,9.83-4.42,9.83-9.83c0-5.41-4.42-9.83-9.83-9.83c-5.42,0-9.83,4.42-9.83,9.83
				C262.88,357.22,267.3,361.64,272.71,361.64z"/>
			<path class="st5" d="M264.79,349.01c1.55-0.65,3.32,0.08,3.97,1.63c0.65,1.55-0.08,3.32-1.63,3.97
				c-1.55,0.65-3.32-0.08-3.97-1.63C262.51,351.43,263.24,349.65,264.79,349.01z"/>
			<path class="st4" d="M266.24,349.14c0.5-0.21,1.08,0.03,1.29,0.53c0.21,0.5-0.03,1.08-0.53,1.29c-0.5,0.21-1.08-0.03-1.29-0.53
				C265.5,349.93,265.74,349.35,266.24,349.14z"/>
			<path class="st6" d="M304.87,342.75c0.26,0.34,0.49,0.16,0.51-0.41c0.03-0.57-0.16-1.31-0.41-1.66
				c-1.41-1.89-4.71-4.11-8.66-5.93c-3.65-1.68-7.86-3.05-11.66-3.52c-0.24-0.03-0.35,0.49-0.26,1.16c0.1,0.67,0.37,1.23,0.61,1.26
				c3.77,0.46,7.94,1.81,11.54,3.48C300.4,338.9,303.58,341.01,304.87,342.75z"/>
			<path class="st6" d="M258.19,336.6c-0.25,0.35-0.49,0.16-0.51-0.41c-0.03-0.57,0.16-1.31,0.41-1.66
				c1.41-1.89,4.71-4.11,8.66-5.93c3.65-1.68,7.86-3.05,11.66-3.51c0.24-0.03,0.35,0.49,0.25,1.15c-0.1,0.67-0.37,1.23-0.61,1.26
				c-3.77,0.46-7.94,1.81-11.55,3.48C262.66,332.75,259.49,334.86,258.19,336.6z"/>
			<path class="st6" d="M276.22,377.24l0.34,1.72l-0.04,0.01l-0.04,0l-0.04,0l-0.04,0l-0.04,0l-0.04,0l-0.04-0.01l-0.04-0.01
				l-0.04-0.01l-0.04-0.01l-0.04-0.01l-0.04-0.02l-0.04-0.02l-0.04-0.02l-0.04-0.02l-0.04-0.02l-0.03-0.02l-0.03-0.03l-0.03-0.03
				l-0.03-0.03l-0.03-0.03l-0.03-0.03l-0.03-0.03l-0.03-0.03l-0.02-0.04l-0.02-0.04l-0.02-0.04l-0.02-0.04l-0.02-0.04l-0.01-0.04
				l-0.01-0.04l-0.01-0.04l-0.01-0.05l0-0.05l0-0.04l0-0.04l0-0.04l0-0.04l0-0.04l0.01-0.04l0.01-0.04l0.01-0.04l0.01-0.04
				l0.02-0.04l0.02-0.04l0.02-0.04l0.02-0.04l0.02-0.04l0.03-0.03l0.03-0.03l0.03-0.03l0.03-0.03l0.03-0.03l0.03-0.03l0.03-0.03
				l0.03-0.02l0.04-0.02l0.04-0.02l0.04-0.02l0.04-0.02l0.04-0.02l0.04-0.01l0.04-0.01L276.22,377.24L276.22,377.24z M301.01,365.65
				l-0.98,1.46l-0.7-0.41l-0.69-0.3l-0.69-0.2l-0.69-0.11l-0.7-0.02l-0.71,0.06l-0.72,0.14l-0.73,0.22l-0.75,0.29l-0.76,0.35
				l-0.76,0.42l-0.77,0.47l-0.77,0.52l-0.77,0.56l-0.77,0.6l-0.77,0.63l-0.77,0.65l-0.77,0.67l-0.76,0.68l-0.76,0.68l-0.75,0.68
				l-0.75,0.67l-0.74,0.65l-0.73,0.63l-0.73,0.6l-0.72,0.56l-0.71,0.52l-0.71,0.47l-0.7,0.41l-0.7,0.35l-0.71,0.27l-0.71,0.19
				l-0.34-1.72l0.51-0.14l0.54-0.21l0.58-0.29l0.61-0.36l0.64-0.42l0.66-0.48l0.68-0.53l0.69-0.57l0.71-0.61l0.73-0.64l0.74-0.66
				l0.75-0.68l0.76-0.68l0.77-0.69l0.78-0.68l0.79-0.67l0.8-0.65l0.81-0.63l0.82-0.6l0.83-0.56l0.84-0.51l0.85-0.46l0.86-0.4
				l0.87-0.34l0.88-0.26l0.89-0.17l0.9-0.08l0.91,0.03l0.91,0.14l0.9,0.27l0.9,0.39L301.01,365.65L301.01,365.65z M300.03,367.1
				l0.98-1.46l0.04,0.03l0.03,0.03l0.03,0.03l0.03,0.03l0.03,0.03l0.03,0.03l0.03,0.04l0.03,0.04l0.02,0.04l0.02,0.04l0.02,0.04
				l0.02,0.04l0.01,0.04l0.01,0.04l0.01,0.04l0.01,0.04l0.01,0.04l0,0.04l0,0.04l0,0.04l0,0.04l0,0.04l0,0.04l-0.01,0.04l-0.01,0.04
				l-0.01,0.04l-0.01,0.04l-0.01,0.04l-0.02,0.04l-0.02,0.04l-0.02,0.04l-0.02,0.04l-0.03,0.04l-0.03,0.04l-0.03,0.03l-0.03,0.03
				l-0.03,0.03l-0.03,0.03l-0.04,0.03l-0.03,0.02l-0.04,0.02l-0.04,0.02l-0.04,0.02l-0.04,0.02l-0.04,0.01l-0.04,0.01l-0.04,0.01
				l-0.04,0.01l-0.04,0.01l-0.04,0l-0.04,0l-0.04,0l-0.04,0l-0.04,0l-0.04,0l-0.04-0.01l-0.04-0.01l-0.04-0.01l-0.04-0.02
				l-0.04-0.01l-0.04-0.02l-0.04-0.02l-0.04-0.02L300.03,367.1z"/>
		</g>
		<g>
			<g>
				<path class="st3" d="M193.94,273.86c22.33,0,40.55-9.83,40.55-21.88c0-12.05-18.22-21.88-40.55-21.88
					c-22.33,0-40.55,9.83-40.55,21.88C153.39,264.03,171.61,273.86,193.94,273.86z"/>
				<polygon class="st3" points="185.82,283.5 193.94,299.13 202.06,283.5 193.94,286.42 				"/>
				<polygon class="st3" points="185.82,258.24 193.94,294.06 202.06,258.24 				"/>
			</g>
		</g>
		<g>
			<path class="st7" d="M194.38,430.12c24.86,0,45.14-6.52,45.14-14.52c0-7.99-20.28-14.51-45.14-14.51
				c-24.86,0-45.14,6.52-45.14,14.51C149.24,423.6,169.51,430.12,194.38,430.12z"/>
			<path class="st8" d="M237.59,419.81c-5.61,5.96-22.83,10.31-43.21,10.31c-20.38,0-37.6-4.34-43.21-10.31
				c5.61-5.96,22.83-10.3,43.21-10.3C214.75,409.51,231.98,413.85,237.59,419.81z"/>
			<path class="st4" d="M176.35,421.02c-2.12-28.54-2.86-57.87,0-89.25C177.61,363.15,176.77,392.48,176.35,421.02L176.35,421.02z
				 M192.64,397.84c-2.14-29.39-2.01-59.16,0-89.25C193.1,338.68,193.01,368.46,192.64,397.84L192.64,397.84z M205.54,429.72
				c2.5-29.75,2.48-59.5,0-89.25C204.3,370.22,204.29,399.97,205.54,429.72z"/>
			<path class="st3" d="M159.62,317.55c0,4.49,1.12,7.6,5.36,8.49c4.25,0.89,2.01,0,0-1.79c-2.01-1.79-3.03-4.16-2.36-6.62
				C163.29,315.18,159.62,314.17,159.62,317.55z"/>
			<path class="st3" d="M213.01,347.41c4.48-0.29,7.51-1.61,8.12-5.91c0.61-4.3-1.93-3.99-3.58-1.86c-1.65,2.12-1.7,6.69-4.2,6.18
				C210.86,345.31,209.64,347.63,213.01,347.41z"/>
		</g>
	</g>
	<g>
		<path class="st9" d="M65.29,112.09H51.72v9.6h16.27v6.88H42.78V90.06h25.23v6.88H51.72v8.28h13.57V112.09z"/>
		<path class="st9" d="M81.96,113.81v14.76h-8.94V90.06h13.41c4.46,0,8,1.03,10.61,3.09c2.61,2.06,3.91,4.88,3.91,8.46
			c0,1.99-0.53,3.7-1.57,5.13c-1.05,1.43-2.6,2.59-4.64,3.49c2.36,0.67,4.06,1.79,5.09,3.35c1.03,1.56,1.55,3.5,1.55,5.83v2.43
			c0,1.01,0.15,2.15,0.45,3.44c0.3,1.29,0.82,2.2,1.56,2.75v0.53h-9.23c-0.71-0.55-1.16-1.51-1.38-2.88
			c-0.21-1.38-0.32-2.67-0.32-3.89v-2.33c0-1.83-0.49-3.24-1.45-4.21c-0.97-0.97-2.39-1.45-4.26-1.45H81.96z M81.96,106.93h4.52
			c1.8,0,3.17-0.41,4.13-1.23c0.95-0.82,1.43-2,1.43-3.53c0-1.57-0.49-2.83-1.47-3.8c-0.98-0.96-2.36-1.44-4.14-1.44h-4.47V106.93z"
			/>
		<path class="st9" d="M116.5,113.81v14.76h-8.94V90.06h13.41c4.46,0,8,1.03,10.61,3.09c2.61,2.06,3.91,4.88,3.91,8.46
			c0,1.99-0.53,3.7-1.57,5.13c-1.05,1.43-2.6,2.59-4.64,3.49c2.36,0.67,4.06,1.79,5.09,3.35c1.03,1.56,1.55,3.5,1.55,5.83v2.43
			c0,1.01,0.15,2.15,0.45,3.44c0.3,1.29,0.82,2.2,1.56,2.75v0.53h-9.23c-0.71-0.55-1.16-1.51-1.38-2.88
			c-0.21-1.38-0.32-2.67-0.32-3.89v-2.33c0-1.83-0.49-3.24-1.45-4.21c-0.97-0.97-2.39-1.45-4.26-1.45H116.5z M116.5,106.93h4.52
			c1.8,0,3.17-0.41,4.13-1.23c0.95-0.82,1.43-2,1.43-3.53c0-1.57-0.49-2.83-1.47-3.8c-0.98-0.96-2.36-1.44-4.14-1.44h-4.47V106.93z"
			/>
		<path class="st9" d="M174.11,112.78c0,4.74-1.5,8.65-4.51,11.73c-3.01,3.08-6.93,4.62-11.78,4.62c-4.88,0-8.84-1.54-11.88-4.62
			c-3.03-3.08-4.55-6.99-4.55-11.73v-6.93c0-4.73,1.51-8.63,4.54-11.72c3.02-3.09,6.97-4.63,11.84-4.63c4.83,0,8.76,1.54,11.8,4.63
			c3.03,3.09,4.55,6.99,4.55,11.72V112.78z M165.2,105.79c0-2.75-0.65-5.01-1.94-6.77c-1.3-1.76-3.13-2.65-5.49-2.65
			c-2.42,0-4.26,0.88-5.54,2.63c-1.28,1.75-1.92,4.02-1.92,6.78v6.98c0,2.79,0.65,5.06,1.94,6.82c1.3,1.76,3.15,2.65,5.57,2.65
			c2.34,0,4.16-0.88,5.45-2.65c1.29-1.76,1.93-4.04,1.93-6.82V105.79z"/>
		<path class="st9" d="M188.5,113.81v14.76h-8.94V90.06h13.41c4.46,0,8,1.03,10.61,3.09c2.61,2.06,3.91,4.88,3.91,8.46
			c0,1.99-0.53,3.7-1.57,5.13c-1.05,1.43-2.6,2.59-4.64,3.49c2.36,0.67,4.06,1.79,5.09,3.35c1.03,1.56,1.55,3.5,1.55,5.83v2.43
			c0,1.01,0.15,2.15,0.45,3.44c0.3,1.29,0.82,2.2,1.56,2.75v0.53h-9.23c-0.71-0.55-1.16-1.51-1.38-2.88s-0.32-2.67-0.32-3.89v-2.33
			c0-1.83-0.49-3.24-1.45-4.21c-0.97-0.97-2.39-1.45-4.26-1.45H188.5z M188.5,106.93h4.52c1.8,0,3.17-0.41,4.13-1.23
			s1.43-2,1.43-3.53c0-1.57-0.49-2.83-1.47-3.8c-0.98-0.96-2.36-1.44-4.14-1.44h-4.47V106.93z"/>
		<path class="st9" d="M250.59,113.52h3.89v6.93h-3.89v8.12h-8.94v-8.12h-15.32l-0.53-5.5l15.84-24.81v-0.08h8.94V113.52z
			 M233.47,113.52h8.17v-11.98l-0.16-0.03l-0.98,1.98L233.47,113.52z"/>
		<path class="st9" d="M285,114.42c0,4.6-1.23,8.2-3.68,10.81c-2.45,2.6-5.69,3.9-9.71,3.9c-4.06,0-7.31-1.3-9.76-3.9
			c-2.45-2.6-3.68-6.2-3.68-10.81v-10.21c0-4.6,1.22-8.2,3.65-10.81c2.43-2.6,5.68-3.9,9.73-3.9c4.02,0,7.26,1.31,9.73,3.91
			c2.47,2.61,3.7,6.21,3.7,10.79V114.42z M276.09,103.6c0-2.35-0.4-4.14-1.2-5.37c-0.8-1.23-1.91-1.85-3.32-1.85
			c-1.43,0-2.53,0.62-3.31,1.85c-0.78,1.23-1.16,3.02-1.16,5.37v11.37c0,2.4,0.39,4.21,1.18,5.44c0.78,1.23,1.9,1.84,3.35,1.84
			c1.41,0,2.51-0.61,3.29-1.84c0.78-1.23,1.18-3.04,1.18-5.44V103.6z"/>
		<path class="st9" d="M313.33,113.52h3.89v6.93h-3.89v8.12h-8.94v-8.12h-15.32l-0.53-5.5l15.84-24.81v-0.08h8.94V113.52z
			 M296.22,113.52h8.17v-11.98l-0.16-0.03l-0.98,1.98L296.22,113.52z"/>
	</g>
	<g>
		<path class="st9" d="M35.41,164.32v-18.29h5.75c2.39,0,4.31,0.73,5.76,2.21c1.45,1.47,2.18,3.37,2.18,5.7v2.5
			c0,2.34-0.73,4.24-2.18,5.7c-1.45,1.46-3.37,2.19-5.76,2.19H35.41z M37.88,147.97v14.41h3.28c1.69,0,3.03-0.56,4-1.67
			c0.98-1.11,1.46-2.54,1.46-4.28v-2.53c0-1.73-0.49-3.15-1.46-4.26c-0.98-1.11-2.31-1.67-4-1.67H37.88z"/>
		<path class="st9" d="M55.17,147.24H52.7v-2.53h2.47V147.24z M55.17,164.32H52.7v-13.59h2.47V164.32z"/>
		<path class="st9" d="M64.61,164.58c-1.95,0-3.47-0.62-4.57-1.87c-1.09-1.25-1.64-2.89-1.64-4.93v-0.55c0-1.95,0.56-3.57,1.69-4.84
			c1.13-1.28,2.5-1.92,4.13-1.92c1.82,0,3.18,0.57,4.09,1.7c0.91,1.13,1.36,2.63,1.36,4.51v1.31h-8.69l-0.04,0.06
			c0,1.37,0.3,2.47,0.9,3.32c0.6,0.85,1.52,1.28,2.76,1.28c0.84,0,1.57-0.12,2.2-0.36c0.63-0.24,1.17-0.57,1.63-0.99l0.97,1.61
			c-0.49,0.47-1.13,0.86-1.92,1.19C66.69,164.42,65.73,164.58,64.61,164.58z M64.22,152.42c-0.86,0-1.58,0.33-2.14,1
			c-0.57,0.67-0.91,1.52-1.04,2.56l0.03,0.06h6.13v-0.2c0-0.99-0.24-1.8-0.73-2.45C65.98,152.74,65.23,152.42,64.22,152.42z"/>
		<path class="st9" d="M80.35,160.66c0-0.54-0.21-0.99-0.62-1.33c-0.41-0.34-1.2-0.64-2.36-0.9c-1.6-0.34-2.83-0.82-3.69-1.44
			c-0.86-0.62-1.29-1.45-1.29-2.49c0-1.11,0.47-2.05,1.41-2.84c0.94-0.79,2.16-1.18,3.66-1.18c1.54,0,2.79,0.42,3.74,1.26
			c0.95,0.84,1.41,1.81,1.37,2.93l-0.03,0.08H80.2c0-0.59-0.26-1.12-0.77-1.6c-0.51-0.48-1.17-0.72-1.95-0.72
			c-0.87,0-1.52,0.2-1.95,0.59c-0.43,0.39-0.65,0.86-0.65,1.41c0,0.54,0.19,0.95,0.56,1.24c0.37,0.29,1.14,0.56,2.31,0.8
			c1.67,0.35,2.93,0.85,3.79,1.5c0.86,0.65,1.29,1.49,1.29,2.53c0,1.21-0.49,2.19-1.46,2.95c-0.98,0.76-2.25,1.14-3.83,1.14
			c-1.73,0-3.1-0.44-4.1-1.32s-1.47-1.91-1.42-3.08l0.03-0.08h2.36c0.04,0.88,0.37,1.52,0.98,1.93c0.61,0.41,1.33,0.61,2.15,0.61
			c0.88,0,1.57-0.19,2.07-0.56C80.1,161.71,80.35,161.24,80.35,160.66z"/>
		<path class="st9" d="M91.53,164.58c-1.95,0-3.47-0.62-4.57-1.87c-1.09-1.25-1.64-2.89-1.64-4.93v-0.55c0-1.95,0.56-3.57,1.69-4.84
			c1.13-1.28,2.5-1.92,4.13-1.92c1.82,0,3.18,0.57,4.09,1.7c0.91,1.13,1.36,2.63,1.36,4.51v1.31H87.9l-0.04,0.06
			c0,1.37,0.3,2.47,0.9,3.32c0.6,0.85,1.52,1.28,2.76,1.28c0.84,0,1.57-0.12,2.21-0.36c0.63-0.24,1.17-0.57,1.63-0.99l0.97,1.61
			c-0.49,0.47-1.13,0.86-1.92,1.19C93.61,164.42,92.66,164.58,91.53,164.58z M91.14,152.42c-0.86,0-1.58,0.33-2.14,1
			c-0.57,0.67-0.91,1.52-1.04,2.56l0.03,0.06h6.13v-0.2c0-0.99-0.24-1.8-0.73-2.45C92.91,152.74,92.16,152.42,91.14,152.42z"/>
		<path class="st9" d="M115.86,159.71c0-0.83-0.3-1.52-0.89-2.09c-0.6-0.56-1.64-1.04-3.14-1.43c-1.86-0.46-3.31-1.14-4.35-2.04
			c-1.04-0.9-1.56-2.02-1.56-3.38c0-1.43,0.56-2.63,1.68-3.58c1.12-0.95,2.58-1.43,4.37-1.43c1.93,0,3.46,0.55,4.6,1.64
			c1.14,1.09,1.7,2.37,1.67,3.83l-0.04,0.08h-2.36c0-1.04-0.36-1.9-1.09-2.58c-0.72-0.68-1.65-1.02-2.78-1.02
			c-1.16,0-2.04,0.28-2.66,0.84c-0.62,0.56-0.92,1.29-0.92,2.19c0,0.8,0.34,1.46,1.01,1.99c0.67,0.53,1.77,1,3.29,1.4
			c1.84,0.48,3.25,1.18,4.21,2.11c0.96,0.93,1.45,2.08,1.45,3.44c0,1.47-0.58,2.66-1.74,3.56c-1.16,0.9-2.67,1.34-4.54,1.34
			c-1.77,0-3.33-0.49-4.68-1.48c-1.35-0.99-2.01-2.31-1.97-3.97l0.03-0.08h2.36c0,1.15,0.44,2.03,1.31,2.66
			c0.87,0.62,1.86,0.94,2.95,0.94c1.17,0,2.1-0.26,2.78-0.79C115.52,161.33,115.86,160.61,115.86,159.71z"/>
		<path class="st9" d="M127.13,164.58c-1.95,0-3.47-0.62-4.57-1.87c-1.09-1.25-1.64-2.89-1.64-4.93v-0.55
			c0-1.95,0.56-3.57,1.69-4.84c1.13-1.28,2.5-1.92,4.13-1.92c1.82,0,3.18,0.57,4.09,1.7c0.91,1.13,1.36,2.63,1.36,4.51v1.31h-8.69
			l-0.04,0.06c0,1.37,0.3,2.47,0.9,3.32s1.52,1.28,2.76,1.28c0.84,0,1.57-0.12,2.2-0.36c0.63-0.24,1.17-0.57,1.63-0.99l0.97,1.61
			c-0.49,0.47-1.13,0.86-1.92,1.19C129.21,164.42,128.25,164.58,127.13,164.58z M126.74,152.42c-0.86,0-1.58,0.33-2.14,1
			c-0.57,0.67-0.91,1.52-1.04,2.56l0.03,0.06h6.13v-0.2c0-0.99-0.24-1.8-0.73-2.45C128.5,152.74,127.75,152.42,126.74,152.42z"/>
		<path class="st9" d="M137.64,147.24h-2.47v-2.53h2.47V147.24z M137.64,164.32h-2.47v-13.59h2.47V164.32z"/>
		<path class="st9" d="M144.89,147.44v3.28h2.58v1.83h-2.58v8.25c0,0.64,0.13,1.08,0.4,1.34c0.26,0.26,0.61,0.39,1.05,0.39
			c0.14,0,0.3-0.02,0.48-0.06c0.18-0.04,0.32-0.08,0.44-0.12l0.34,1.7c-0.18,0.15-0.46,0.27-0.82,0.37
			c-0.36,0.1-0.72,0.14-1.07,0.14c-1.01,0-1.81-0.3-2.4-0.91c-0.6-0.61-0.89-1.56-0.89-2.86v-8.25h-2.16v-1.83h2.16v-3.28H144.89z"
			/>
		<path class="st9" d="M155.75,164.58c-1.95,0-3.47-0.62-4.57-1.87c-1.09-1.25-1.64-2.89-1.64-4.93v-0.55
			c0-1.95,0.56-3.57,1.69-4.84c1.13-1.28,2.5-1.92,4.13-1.92c1.82,0,3.18,0.57,4.09,1.7c0.91,1.13,1.36,2.63,1.36,4.51v1.31h-8.69
			l-0.04,0.06c0,1.37,0.3,2.47,0.9,3.32c0.6,0.85,1.52,1.28,2.76,1.28c0.84,0,1.57-0.12,2.2-0.36c0.63-0.24,1.17-0.57,1.63-0.99
			l0.97,1.61c-0.49,0.47-1.13,0.86-1.92,1.19C157.83,164.42,156.87,164.58,155.75,164.58z M155.36,152.42c-0.86,0-1.58,0.33-2.14,1
			c-0.57,0.67-0.91,1.52-1.04,2.56l0.02,0.06h6.13v-0.2c0-0.99-0.24-1.8-0.73-2.45C157.12,152.74,156.37,152.42,155.36,152.42z"/>
		<path class="st9" d="M175.62,164.58c-1.95,0-3.47-0.62-4.57-1.87c-1.09-1.25-1.64-2.89-1.64-4.93v-0.55
			c0-1.95,0.56-3.57,1.69-4.84c1.13-1.28,2.5-1.92,4.13-1.92c1.82,0,3.18,0.57,4.09,1.7c0.91,1.13,1.36,2.63,1.36,4.51v1.31h-8.69
			l-0.04,0.06c0,1.37,0.3,2.47,0.9,3.32s1.52,1.28,2.76,1.28c0.84,0,1.57-0.12,2.2-0.36c0.63-0.24,1.17-0.57,1.63-0.99l0.97,1.61
			c-0.49,0.47-1.13,0.86-1.92,1.19C177.7,164.42,176.74,164.58,175.62,164.58z M175.23,152.42c-0.86,0-1.58,0.33-2.14,1
			c-0.57,0.67-0.91,1.52-1.04,2.56l0.02,0.06h6.13v-0.2c0-0.99-0.24-1.8-0.73-2.45C176.99,152.74,176.24,152.42,175.23,152.42z"/>
		<path class="st9" d="M188.07,155.73l2.89-5.01h2.89l-4.41,6.72l4.54,6.87h-2.84l-3.02-5.14l-3.02,5.14h-2.86l4.54-6.87l-4.41-6.72
			h2.85L188.07,155.73z"/>
		<path class="st9" d="M199.07,147.24h-2.47v-2.53h2.47V147.24z M199.07,164.32h-2.47v-13.59h2.47V164.32z"/>
		<path class="st9" d="M210.78,160.66c0-0.54-0.21-0.99-0.62-1.33c-0.41-0.34-1.2-0.64-2.36-0.9c-1.6-0.34-2.83-0.82-3.69-1.44
			c-0.86-0.62-1.29-1.45-1.29-2.49c0-1.11,0.47-2.05,1.41-2.84c0.94-0.79,2.16-1.18,3.66-1.18c1.54,0,2.79,0.42,3.74,1.26
			c0.95,0.84,1.41,1.81,1.37,2.93l-0.03,0.08h-2.36c0-0.59-0.26-1.12-0.77-1.6c-0.51-0.48-1.17-0.72-1.95-0.72
			c-0.87,0-1.52,0.2-1.95,0.59c-0.43,0.39-0.65,0.86-0.65,1.41c0,0.54,0.19,0.95,0.56,1.24c0.37,0.29,1.14,0.56,2.31,0.8
			c1.67,0.35,2.93,0.85,3.79,1.5c0.86,0.65,1.29,1.49,1.29,2.53c0,1.21-0.49,2.19-1.46,2.95c-0.98,0.76-2.25,1.14-3.83,1.14
			c-1.73,0-3.1-0.44-4.1-1.32c-1-0.88-1.47-1.91-1.42-3.08l0.03-0.08h2.36c0.04,0.88,0.37,1.52,0.98,1.93
			c0.61,0.41,1.33,0.61,2.15,0.61c0.88,0,1.57-0.19,2.07-0.56C210.53,161.71,210.78,161.24,210.78,160.66z"/>
		<path class="st9" d="M219.78,147.44v3.28h2.58v1.83h-2.58v8.25c0,0.64,0.13,1.08,0.4,1.34c0.26,0.26,0.61,0.39,1.05,0.39
			c0.14,0,0.3-0.02,0.48-0.06c0.18-0.04,0.32-0.08,0.44-0.12l0.34,1.7c-0.18,0.15-0.46,0.27-0.82,0.37
			c-0.36,0.1-0.72,0.14-1.07,0.14c-1.01,0-1.81-0.3-2.4-0.91c-0.6-0.61-0.89-1.56-0.89-2.86v-8.25h-2.16v-1.83h2.16v-3.28H219.78z"
			/>
		<path class="st9" d="M227.68,147.24h-2.47v-2.53h2.47V147.24z M227.68,164.32h-2.47v-13.59h2.47V164.32z"/>
		<path class="st9" d="M237.12,164.58c-1.95,0-3.47-0.62-4.57-1.87c-1.09-1.25-1.64-2.89-1.64-4.93v-0.55
			c0-1.95,0.56-3.57,1.69-4.84c1.13-1.28,2.5-1.92,4.13-1.92c1.82,0,3.18,0.57,4.09,1.7c0.91,1.13,1.36,2.63,1.36,4.51v1.31h-8.69
			l-0.04,0.06c0,1.37,0.3,2.47,0.9,3.32c0.6,0.85,1.52,1.28,2.76,1.28c0.84,0,1.57-0.12,2.2-0.36c0.63-0.24,1.17-0.57,1.63-0.99
			l0.97,1.61c-0.49,0.47-1.13,0.86-1.92,1.19C239.2,164.42,238.24,164.58,237.12,164.58z M236.73,152.42c-0.86,0-1.58,0.33-2.14,1
			c-0.57,0.67-0.91,1.52-1.04,2.56l0.02,0.06h6.13v-0.2c0-0.99-0.24-1.8-0.73-2.45C238.49,152.74,237.74,152.42,236.73,152.42z"/>
		<path class="st9" d="M251.39,152.91l-1.27-0.08c-0.65,0-1.2,0.16-1.65,0.46c-0.45,0.31-0.79,0.75-1.04,1.31v9.71h-2.48v-13.59
			h2.21l0.24,1.99c0.39-0.7,0.86-1.25,1.43-1.65c0.57-0.39,1.22-0.59,1.95-0.59c0.18,0,0.36,0.01,0.53,0.04
			c0.17,0.03,0.31,0.06,0.41,0.09L251.39,152.91z"/>
		<path class="st9" d="M257.62,147.44v3.28h2.58v1.83h-2.58v8.25c0,0.64,0.13,1.08,0.4,1.34c0.26,0.26,0.61,0.39,1.05,0.39
			c0.14,0,0.3-0.02,0.48-0.06c0.18-0.04,0.32-0.08,0.44-0.12l0.34,1.7c-0.18,0.15-0.46,0.27-0.82,0.37
			c-0.36,0.1-0.72,0.14-1.07,0.14c-1.01,0-1.81-0.3-2.4-0.91c-0.6-0.61-0.89-1.56-0.89-2.86v-8.25h-2.16v-1.83h2.16v-3.28H257.62z"
			/>
		<path class="st9" d="M271.46,150.72l0.18,2.02c0.45-0.72,1.02-1.28,1.7-1.68c0.68-0.4,1.46-0.6,2.33-0.6c1.47,0,2.6,0.43,3.4,1.29
			c0.8,0.86,1.21,2.18,1.21,3.98v8.58h-2.48v-8.53c0-1.2-0.24-2.05-0.71-2.55c-0.47-0.5-1.2-0.75-2.17-0.75
			c-0.76,0-1.41,0.15-1.94,0.46c-0.53,0.31-0.95,0.74-1.26,1.29v10.09h-2.47v-13.59H271.46z"/>
		<path class="st9" d="M286.55,147.24h-2.48v-2.53h2.48V147.24z M286.55,164.32h-2.48v-13.59h2.48V164.32z"/>
		<path class="st9" d="M295.76,162.65c0.76,0,1.43-0.25,2-0.76c0.57-0.51,0.85-1.13,0.85-1.87h2.24l0.04,0.08
			c0.03,1.17-0.47,2.21-1.51,3.12c-1.04,0.91-2.24,1.36-3.62,1.36c-1.91,0-3.38-0.65-4.42-1.95c-1.04-1.3-1.56-2.91-1.56-4.85v-0.53
			c0-1.92,0.52-3.53,1.56-4.83c1.04-1.3,2.51-1.95,4.42-1.95c1.52,0,2.76,0.47,3.73,1.41c0.97,0.94,1.43,2.09,1.4,3.46l-0.02,0.08
			h-2.25c0-0.83-0.27-1.53-0.81-2.12c-0.54-0.58-1.22-0.87-2.04-0.87c-1.21,0-2.1,0.47-2.66,1.41c-0.56,0.94-0.84,2.08-0.84,3.42
			v0.53c0,1.37,0.27,2.52,0.82,3.46C293.64,162.18,294.53,162.65,295.76,162.65z"/>
		<path class="st9" d="M306.3,152.54c0.47-0.65,1.04-1.16,1.73-1.53c0.68-0.36,1.44-0.55,2.27-0.55c1.45,0,2.58,0.44,3.39,1.31
			c0.81,0.87,1.21,2.21,1.21,4.02v8.52h-2.47v-8.54c0-1.12-0.24-1.95-0.72-2.49c-0.48-0.54-1.2-0.8-2.15-0.8
			c-0.74,0-1.38,0.14-1.92,0.43c-0.54,0.29-0.98,0.69-1.32,1.21v10.19h-2.47v-19.6h2.47V152.54z"/>
		<path class="st9" d="M321.89,147.44v3.28h2.58v1.83h-2.58v8.25c0,0.64,0.13,1.08,0.4,1.34c0.26,0.26,0.61,0.39,1.05,0.39
			c0.14,0,0.3-0.02,0.48-0.06c0.18-0.04,0.32-0.08,0.44-0.12l0.34,1.7c-0.18,0.15-0.46,0.27-0.82,0.37
			c-0.36,0.1-0.72,0.14-1.07,0.14c-1.01,0-1.81-0.3-2.4-0.91c-0.6-0.61-0.89-1.56-0.89-2.86v-8.25h-2.16v-1.83h2.16v-3.28H321.89z"
			/>
	</g>
	<g>
		<path class="st0" d="M174.86,258.78h-3.58v-4.87h-3.95v4.87h-3.58v-12.83h3.58v4.68h3.95v-4.68h3.58V258.78z"/>
		<path class="st0" d="M177.27,258.78v-12.83h9.65v3.08h-6.07v1.77h5.2v2.95h-5.2v1.96h6.18v3.08H177.27z"/>
		<path class="st0" d="M188.98,258.78v-12.83h3.58v9.55h5.73v3.28H188.98z"/>
		<path class="st0" d="M206.06,245.95c0.53,0,1.01,0.11,1.45,0.32c0.44,0.21,0.81,0.51,1.13,0.88c0.31,0.38,0.56,0.82,0.73,1.33
			c0.17,0.51,0.26,1.07,0.26,1.68v0.24c0,0.61-0.09,1.17-0.26,1.68c-0.17,0.52-0.42,0.96-0.73,1.34c-0.31,0.38-0.69,0.68-1.13,0.89
			c-0.44,0.21-0.92,0.32-1.45,0.32h-2.68v4.14h-3.58v-12.83H206.06z M203.38,248.99v2.65h1.48c0.38,0,0.66-0.11,0.85-0.34
			c0.19-0.23,0.28-0.53,0.28-0.91v-0.15c0-0.38-0.09-0.69-0.27-0.91c-0.18-0.22-0.47-0.34-0.86-0.34H203.38z"/>
		<path class="st0" d="M214.03,254.19h-2.06l-0.9-8.24h3.88L214.03,254.19z M214.62,258.78h-3.22v-3.45h3.22V258.78z"/>
		<path class="st0" d="M219.43,254.19h-2.06l-0.9-8.24h3.88L219.43,254.19z M220.02,258.78h-3.22v-3.45h3.22V258.78z"/>
		<path class="st0" d="M224.84,254.19h-2.06l-0.9-8.24h3.88L224.84,254.19z M225.42,258.78h-3.22v-3.45h3.22V258.78z"/>
	</g>
</g>
<g id="Ebene_2">
</g>
</svg>
