<?xml version="1.0" encoding="utf-8"?>
<!-- Generator: Adobe Illustrator 23.0.2, SVG Export Plug-In . SVG Version: 6.00 Build 0)  -->
<svg version="1.1" xmlns="http://www.w3.org/2000/svg" xmlns:xlink="http://www.w3.org/1999/xlink" x="0px" y="0px"
	 viewBox="0 0 768 1024" style="enable-background:new 0 0 768 1024;" xml:space="preserve">
<style type="text/css">
	.st0{fill:#C84829;}
	.st1{opacity:0.5;fill-rule:evenodd;clip-rule:evenodd;fill:#75380A;}
	.st2{fill-rule:evenodd;clip-rule:evenodd;fill:#E2B33A;}
	.st3{fill-rule:evenodd;clip-rule:evenodd;fill:#92C4AF;}
	.st4{fill-rule:evenodd;clip-rule:evenodd;fill:#FFFFFF;}
	.st5{fill-rule:evenodd;clip-rule:evenodd;fill:#020203;}
	.st6{fill:#27453A;}
	.st7{fill-rule:evenodd;clip-rule:evenodd;fill:#A85E1C;}
	.st8{fill-rule:evenodd;clip-rule:evenodd;fill:#512A06;}
	.st9{fill:#E2B33A;}
</style>
<g id="Ebene_1">
	<g>
		<rect class="st0" width="768" height="1024"/>
	</g>
	<g>
		<path class="st1" d="M191.78,729.1c2.79,3.98,7.2,8.06,14.02,11.12c13.64,6.12-12.5,15.11-34.42,6.27
			c-37.03,0.69-26.15-5.68-3.16-5.89c22.98-0.22,27.81-2.97,19.1-10.71c-0.6-0.53-1.17-1.1-1.72-1.7c-3.75,0.03-7.32,1.08-8.2,3.15
			c-1.39,1.43-10.69,2.27-10.73-0.99c-0.04-3.26-9.28-4-11.6-1.42c-2.32,2.57-12.74,3.91-10.31-1.6c2.42-5.51-12.18-5.18-18.88-3.84
			c-6.7,1.33-16.09,1.86-6.61-1.67c9.48-3.53-0.39-4.72-12.29-3.71c-11.9,1.01-16.45-1.61-9.12-3.42c7.33-1.82,4.26-4.39-6.55-3.01
			c-10.81,1.38-19.81-3.99-7.24-4.29c12.58-0.29,10.63-4.17-4.41-3.71c-15.04,0.46-28.55-7.28-3.32-5.3
			c25.24,1.98,20.75-0.76-0.18-3.45c-20.93-2.69-12.71-6.36,2.47-4.4c15.18,1.96,23.98,1.22,5-3.64c-18.97-4.87-4.31-6.3,6.36-2.77
			c10.67,3.54,19.83,3.54,8.27-2.37c-11.56-5.91-3.4-7.03,11.65-2.12c15.05,4.91,17.74,3.17,11.89-1.26
			c-5.85-4.43,1.58-4.88,10.5-0.57c8.92,4.32,13.09,3.97,12.06-0.14c-1.03-4.11,6.87-4.6,9.97,0.24c3.11,4.83,12.07,7.01,10.63,0.57
			c-1.44-6.44,12.22-3.7,13.37,1.17c1.16,4.87,15.85,5.52,15.84,2.03c0-3.49,16.28-1.26,12.66,2.17c-3.62,3.43,2.04,7.88,13.79,3
			c11.76-4.88,24.55,1.2,11.57,3.14c-12.98,1.93,1.3,6.21,10.24,3.42c8.94-2.8,32.22,3.56,8.41,3.46
			c-23.82-0.1-10.74,4.35,7.54,3.96c18.28-0.39,22.14,1.86,4.96,3.48c-17.18,1.61-22.42,4.46,4.68,5.29
			c27.11,0.83,25.2,7.69,1.14,4.94c-24.06-2.75-14.87,1.7-1.84,4.16c13.03,2.46,21.07,7.07-2.44,2.35
			c-23.51-4.72-22.22-0.07-6.26,3.55c15.97,3.62,15.47,6.55-5.56,2.04c-21.03-4.51-25.25,0.51-10.8,2.64
			c14.45,2.13,8.8,4.59-7.55,1.22c-16.36-3.38-19.98-2.04-11.32,1.18c4.58,1.7,4.87,3.05,2.88,3.23c7.86,3.99,18.43,5.55,35.9,5.72
			c23.47,0.22,48.7,6.59,10.11,5.89c-2.01,8.85-48.39-0.15-48.52-6.27c-0.05-2.23-2.59-5-6.35-7.87c-0.18-0.1-0.37-0.2-0.55-0.31
			c-8.53-4.76-14.31-3.41-10.15,0.3c4.15,3.7-9.63,4.99-11.12-0.08C195.18,730.84,193.71,729.79,191.78,729.1z"/>
		<g>
			<path class="st2" d="M217.86,653.92c-5.33,16.77-13.98,53.46-6.88,75.01c6.76,20.48-29.51,50.57-41.47,20.97
				c-37.81,2.31-19.75-19.01,3.47-19.74c23.23-0.73,31.15-9.92,31.15-35.84C204.14,668.4,218.62,614.29,217.86,653.92z"/>
			<path class="st2" d="M222.08,653.92c5.34,16.77,13.98,53.46,6.87,75.01c-6.76,20.48,29.51,50.57,41.47,20.97
				c37.81,2.31,19.75-19.01-3.47-19.74c-23.23-0.73-31.15-9.92-31.15-35.84C235.8,668.4,221.32,614.29,222.08,653.92z"/>
			<path class="st3" d="M192.59,699.16c-3.01,4.8-13.25,7.61-9.63-3.29c3.63-10.9-4.77-13.38-9.99-4.77
				c-5.22,8.6-17.14,13.09-8.51-5.36c8.63-18.44-6.35-17.32-14.56-12.87c-8.2,4.46-18.18,6.23-4.73-5.61
				c13.46-11.83,4.91-15.78-8.12-12.4c-13.04,3.37-14.64-5.37-5.26-11.46c9.38-6.09,9.2-14.71-3.17-10.07
				c-12.37,4.63-15.32-13.36-2.41-14.34c12.91-0.98,15.32-13.96-0.23-12.43c-15.55,1.53-20.36-24.36,2.64-17.72
				c23.01,6.63,21.61-2.55,3.71-11.55c-17.91-9-5.55-21.3,7.41-14.71c12.96,6.58,22.61,4.07,9.11-12.2
				c-13.5-16.27,2.78-21.09,9.47-9.24c6.69,11.85,15.85,11.85,10.95-7.94c-4.9-19.79,4.51-23.54,14.04-7.1
				c9.53,16.43,14.16,10.62,13.3-4.22c-0.86-14.83,7.08-16.34,11.14-1.89c4.06,14.45,8.62,13.28,12.22-0.48
				c3.6-13.76,12.04-15.38,9.71,0.8c-2.33,16.18,4.17,23.47,9.98,1.92c5.8-21.54,16.38-12.37,12.06,3.91
				c-4.32,16.28,9.63,18.48,13.55,6.81c3.92-11.66,17.7-4.22,10.22,7.26c-7.49,11.48-6.83,26.37,10.42,10.03
				c17.25-16.34,23.2,4.02,8.04,10.5c-15.16,6.48-5.69,20.79,6.4,11.43c12.09-9.36,28.21,11.94,4.51,11.58
				c-23.7-0.35-15.63,14.55,3.09,13.25c18.72-1.3,20.05,6.24,1.05,11.63c-19,5.39-27.44,14.92-1.27,17.71
				c26.17,2.79,16.55,25.73-4.41,16.52c-20.97-9.21-16.78,5.69-6.53,13.93c10.25,8.24,13.11,23.65-5.08,7.86
				c-18.2-15.79-22.14-0.25-10.25,11.88c11.89,12.12,8.09,21.94-7.86,6.84c-15.95-15.1-25.83,1.71-13.77,8.83
				c12.06,7.13,3.64,15.37-8.92,4.07c-12.56-11.29-17.69-6.81-12.65,3.94c5.04,10.75-3.83,17.29-6.99,1.35
				c-3.17-15.94-10.47-11.42-10.49,0.99c-0.02,12.4-15.25,16.71-11.03-0.27C213.96,685.31,199.62,684.01,192.59,699.16z"/>
			<path class="st6" d="M275,567.32c0.6,0.75,1.09,0.32,1.11-0.96c0.02-1.27-0.45-2.91-1.05-3.65c-3.27-4.09-10.79-8.77-19.72-12.52
				c-8.24-3.46-17.72-6.17-26.2-6.91c-0.53-0.05-0.74,1.11-0.47,2.59c0.27,1.48,0.92,2.71,1.45,2.75c8.41,0.74,17.8,3.41,25.94,6.83
				C264.76,559.11,271.98,563.56,275,567.32z"/>
			<path class="st6" d="M160.69,568.06c-0.57,0.76-1.08,0.35-1.14-0.92c-0.06-1.27,0.36-2.92,0.93-3.68
				c3.14-4.19,10.5-9.12,19.3-13.16c8.12-3.72,17.51-6.74,25.96-7.76c0.53-0.06,0.78,1.09,0.56,2.57c-0.22,1.48-0.83,2.73-1.36,2.8
				c-8.38,1.01-17.68,3.99-25.71,7.68C170.66,559.52,163.58,564.19,160.69,568.06z"/>
			<path class="st4" d="M245.16,620.18c12.61,0,22.9-10.29,22.9-22.9c0-12.61-10.29-22.9-22.9-22.9c-12.61,0-22.9,10.29-22.9,22.9
				C222.26,609.89,232.55,620.18,245.16,620.18z"/>
			<path class="st5" d="M242.43,590.76c3.6-1.51,7.74,0.19,9.25,3.79c1.51,3.6-0.19,7.74-3.79,9.25c-3.6,1.51-7.74-0.19-9.25-3.79
				C237.14,596.4,238.83,592.27,242.43,590.76z"/>
			<path class="st4" d="M245.82,591.08c1.17-0.49,2.51,0.06,3,1.23c0.49,1.17-0.06,2.51-1.23,3c-1.17,0.49-2.51-0.06-3-1.23
				C244.1,592.91,244.65,591.56,245.82,591.08z"/>
			<path class="st4" d="M191.24,620.18c12.61,0,22.9-10.29,22.9-22.9c0-12.61-10.29-22.9-22.9-22.9c-12.61,0-22.9,10.29-22.9,22.9
				C168.34,609.89,178.63,620.18,191.24,620.18z"/>
			<path class="st5" d="M188.51,590.76c3.6-1.51,7.74,0.19,9.25,3.79c1.51,3.6-0.19,7.74-3.79,9.25c-3.6,1.51-7.74-0.19-9.25-3.79
				C183.22,596.4,184.91,592.27,188.51,590.76z"/>
			<path class="st4" d="M191.9,591.08c1.17-0.49,2.51,0.06,3,1.23c0.49,1.17-0.06,2.51-1.23,3c-1.17,0.49-2.51-0.06-3-1.23
				C190.18,592.91,190.73,591.56,191.9,591.08z"/>
			<path class="st6" d="M203.5,636.87l3.6,1.96l-0.05,0.09l-0.06,0.09l-0.06,0.08l-0.06,0.08l-0.07,0.07l-0.07,0.07l-0.07,0.07
				l-0.08,0.07l-0.08,0.06l-0.08,0.05l-0.08,0.05l-0.09,0.05l-0.09,0.04l-0.09,0.04l-0.09,0.04l-0.09,0.03l-0.09,0.03l-0.1,0.02
				l-0.1,0.02l-0.1,0.01l-0.1,0.01l-0.1,0l-0.1,0l-0.1-0.01l-0.1-0.01l-0.1-0.01l-0.1-0.02l-0.1-0.03l-0.1-0.03l-0.09-0.04
				l-0.1-0.04l-0.1-0.05l-0.09-0.05l-0.09-0.06l-0.09-0.06l-0.08-0.06l-0.07-0.07l-0.07-0.07l-0.07-0.07l-0.06-0.07l-0.06-0.08
				l-0.05-0.08l-0.05-0.09l-0.05-0.08l-0.04-0.09l-0.04-0.09l-0.03-0.09l-0.03-0.09l-0.03-0.09l-0.02-0.1l-0.02-0.1l-0.01-0.1
				l-0.01-0.1l0-0.1l0-0.1l0.01-0.1l0.01-0.1l0.02-0.1l0.02-0.1l0.03-0.1l0.03-0.1l0.04-0.1l0.04-0.1L203.5,636.87L203.5,636.87z
				 M237.84,634.29l-3.53,2.06l-0.5-0.78l-0.56-0.71l-0.61-0.66l-0.67-0.6l-0.72-0.55l-0.77-0.49l-0.82-0.44l-0.86-0.39l-0.9-0.33
				l-0.94-0.27l-0.97-0.22l-1-0.17l-1.02-0.1l-1.03-0.05l-1.04,0.01l-1.05,0.07l-1.06,0.12l-1.05,0.18l-1.04,0.23l-1.03,0.29
				l-1.01,0.34l-0.98,0.4l-0.96,0.45l-0.92,0.5l-0.89,0.54l-0.85,0.59l-0.8,0.64l-0.75,0.69l-0.69,0.73l-0.64,0.78l-0.57,0.82
				l-0.51,0.86l-3.6-1.96l0.67-1.13l0.75-1.07l0.83-1.01l0.89-0.94l0.95-0.88l1-0.81l1.05-0.74l1.1-0.68l1.13-0.61l1.17-0.55
				l1.19-0.48l1.22-0.41l1.24-0.35l1.25-0.28l1.26-0.22l1.27-0.15l1.27-0.08l1.27-0.01l1.26,0.06l1.25,0.13l1.23,0.2l1.22,0.28
				l1.19,0.35l1.16,0.43l1.13,0.51l1.08,0.58l1.04,0.67l0.99,0.75l0.93,0.83l0.86,0.92l0.78,1L237.84,634.29L237.84,634.29z
				 M234.3,636.34l3.53-2.06l0.05,0.09l0.05,0.09l0.04,0.09l0.04,0.1l0.03,0.1l0.02,0.1l0.02,0.1l0.01,0.1l0.01,0.1l0.01,0.1v0.1
				l-0.01,0.1l-0.01,0.1l-0.01,0.1l-0.02,0.1l-0.02,0.1l-0.03,0.09l-0.03,0.09l-0.04,0.09l-0.04,0.09l-0.05,0.09l-0.05,0.09
				l-0.05,0.08l-0.06,0.08l-0.06,0.08l-0.07,0.08l-0.07,0.07l-0.07,0.07l-0.08,0.06l-0.08,0.06l-0.09,0.06l-0.09,0.06l-0.09,0.05
				l-0.09,0.04l-0.1,0.04l-0.1,0.04l-0.1,0.03l-0.1,0.03l-0.1,0.02l-0.1,0.01l-0.1,0.02l-0.1,0.01h-0.1l-0.1,0l-0.1-0.01l-0.1-0.01
				l-0.1-0.02l-0.09-0.02l-0.09-0.02l-0.09-0.03l-0.09-0.04l-0.09-0.04l-0.09-0.05l-0.09-0.05l-0.08-0.06l-0.08-0.06l-0.08-0.06
				l-0.08-0.07l-0.07-0.07l-0.07-0.07l-0.06-0.08l-0.06-0.09l-0.06-0.08L234.3,636.34z"/>
		</g>
		<path class="st1" d="M534.44,675.21c-0.06-1.54,7.08-3.02,9.92,0.24c2.84,3.26,11.28,3.36,11.03,0.63
			c-0.24-2.73,7.41-4.79,10.1,0.89c2.69,5.68,14.75,4.34,19.27,2.54c4.52-1.79,12.01-2.97,7.03,1.22
			c-4.97,4.19,4.39,4.69,13.58,2.86c9.2-1.83,15.28,0.47,10.65,2.8c-4.63,2.32,0.18,4.69,8.13,2.56c7.95-2.13,20.18,2.63,9.8,3.79
			c-10.38,1.16-5.4,4.91,6.92,3.42c12.32-1.49,30.4,5.32,7.36,5.07c-23.04-0.24-16.89,2.19,3.12,3.44
			c20.01,1.25,16.22,5.49,1.7,4.57c-14.53-0.92-21.32,0.44-1.1,3.99c20.22,3.56,9.06,6.01-3,3.2c-12.07-2.81-19.81-2.17-4.96,2.95
			c14.86,5.12,8.93,6.8-8.02,2.93c-16.95-3.88-17.72-1.95-8.97,2.08c8.76,4.03,2.86,5-8.4,1.29c-11.25-3.71-14.48-3.07-10.07,0.98
			c2.4,2.2,1.63,3.51-0.67,3.49c7.64,4.44,17.92,6.15,35.77,6.31c22.33,0.2,46.34,6.27,9.62,5.61c-1.91,8.42-46.04-0.14-46.17-5.96
			c-0.07-3.22-5.63-7.64-12.4-11.79c-5.24-2.13-9.36-1.84-4.27,2.94c6.76,6.34-7.15,4.54-12.31-0.25c-0.28-0.26-0.59-0.51-0.92-0.74
			c2.67,3.55,6.73,7.12,12.8,9.84c12.98,5.82-11.89,14.38-32.74,5.96c-35.24,0.66-24.88-5.4-3.01-5.61
			c21.87-0.21,26.46-2.82,18.17-10.19c-0.9-0.79-1.74-1.69-2.51-2.63c-4.65-0.65-8.75,0.31-6.92,2.44c3,3.49-12.68,2.38-12.57-1.3
			c0.11-3.68-8.5-7.74-14.24-2.04c-5.74,5.7-21.79,0.49-12.48-2.34c9.31-2.83-6.45-6.13-11.6-2.71c-5.15,3.42-30.31-1.35-10.08-2.88
			c20.22-1.54,5.34-5.1-9.78-3.44c-15.12,1.65-20.32-0.34-7.18-3.14c13.14-2.8,15.12-6.01-8.51-4.98
			c-23.63,1.04-27.92-5.95-5.21-4.86c22.71,1.09,11.11-2.73-2.02-4.29c-13.13-1.57-23.89-5.62,0.04-2.52
			c23.94,3.1,18.85-1.46,2.23-3.98c-16.61-2.52-18.71-5.49,2.94-2.43c21.66,3.06,20.91-2.25,6.86-3.39
			c-14.05-1.13-11.39-3.99,5.34-1.74c16.73,2.25,18.64,0.65,8.56-1.96c-10.09-2.62-6.13-5.03,5.18-0.85c11.3,4.18,15.03,2.43,8.33-1
			c-6.7-3.42,3.85-5.66,9.47-0.68C523.87,680.51,536.7,679.87,534.44,675.21z"/>
		<g>
			<path class="st2" d="M601.46,653.99c-5.08,15.96-13.3,50.86-6.54,71.37c6.43,19.48-28.08,48.11-39.45,19.95
				c-35.98,2.2-18.79-18.09,3.3-18.78c22.1-0.69,29.64-9.44,29.64-34.1C588.4,667.77,602.18,616.28,601.46,653.99z"/>
			<path class="st2" d="M605.48,653.99c5.08,15.96,13.31,50.86,6.54,71.37c-6.43,19.48,28.07,48.11,39.46,19.95
				c35.97,2.2,18.79-18.09-3.31-18.78c-22.1-0.69-29.64-9.44-29.64-34.1C618.53,667.77,604.75,616.28,605.48,653.99z"/>
			<path class="st3" d="M607.91,521.56c1.66-5.12,10.47-10.08,9.64,0.82c-0.83,10.9,7.49,11.25,10.32,2.1
				c2.83-9.14,12.8-16.03,9.09,2.98c-3.7,19.01,9.87,14.52,16.41,8.52c6.54-6.01,15.34-9.94,5.65,4.08
				c-9.69,14.03-0.89,15.7,10.36,9.57c11.25-6.12,14.75,1.58,7.5,9.36c-7.25,7.78-5.1,15.7,5.25,8.57
				c10.35-7.13,17.22,8.79,5.54,12.68c-11.69,3.88-10.92,16.43,3.08,11.42c14-5,24.41,17.78,1.65,16.97
				c-22.77-0.82-19.36,7.34-0.75,11.51c18.6,4.17,10.04,18.37-3.45,15.29c-13.49-3.08-21.81,1.46-5.59,13.36
				c16.22,11.9,2.3,20.11-6.6,10.72c-8.91-9.39-17.36-7.28-8.27,9.85c9.1,17.14,1.27,22.77-11.32,9.8
				c-12.59-12.97-15.53-6.53-11.31,6.96c4.22,13.49-2.76,16.72-9.85,4.32c-7.09-12.4-11.02-10.27-11.17,3.26
				c-0.15,13.53-7.56,16.98-9.14,1.51c-1.58-15.47-9.27-20.7-9.66,0.53c-0.39,21.23-12.26,15.2-12.03-0.82
				c0.23-16.03-13.16-14.83-14.08-3.16c-0.92,11.67-15.36,7.98-11.11-4.35c4.26-12.33,0.22-25.92-11.93-6.85
				c-12.15,19.06-22.34,1.65-9.84-7.84c12.5-9.48,0.45-20.51-8.54-9.08c-8.99,11.44-28.79-4.5-6.84-9.65
				c21.96-5.14,11.07-17.04-5.91-11.51c-16.98,5.52-19.95-1.13-3.66-10.49c16.29-9.36,21.88-20.11-2.91-16.64
				c-24.8,3.47-21.21-19.92,0.26-16.27c21.48,3.66,14.18-9.12,2.81-14.37c-11.37-5.24-17.57-18.81,2.88-8.43
				c20.45,10.38,20.49-4.89,6.72-13.33c-13.77-8.44-12.53-18.38,5.67-8.12c18.21,10.26,23.45-7.54,10.67-11.33
				c-12.77-3.79-6.9-13.35,7.29-5.82c14.2,7.53,17.9,2.2,10.76-6.56c-7.14-8.76-0.46-16.85,6.14-2.86
				c6.61,13.99,12.3,8.12,9.45-3.33c-2.84-11.45,10.22-18.94,10.24-2.29C591.38,539.28,604.92,537.17,607.91,521.56z"/>
			<path class="st4" d="M640.8,621.89c12,0,21.79-9.79,21.79-21.79c0-12-9.79-21.79-21.79-21.79c-12,0-21.79,9.79-21.79,21.79
				C619.01,612.1,628.8,621.89,640.8,621.89z"/>
			<path class="st5" d="M623.24,593.9c3.43-1.44,7.36,0.18,8.8,3.61c1.43,3.43-0.18,7.36-3.61,8.8c-3.43,1.43-7.37-0.18-8.8-3.61
				C618.2,599.27,619.81,595.33,623.24,593.9z"/>
			<path class="st4" d="M626.46,594.2c1.11-0.46,2.39,0.06,2.85,1.17c0.46,1.12-0.06,2.39-1.17,2.85c-1.11,0.46-2.38-0.06-2.85-1.17
				C624.82,595.94,625.35,594.66,626.46,594.2z"/>
			<path class="st4" d="M589.5,621.89c12,0,21.79-9.79,21.79-21.79c0-12-9.79-21.79-21.79-21.79c-12,0-21.79,9.79-21.79,21.79
				C567.71,612.1,577.5,621.89,589.5,621.89z"/>
			<path class="st5" d="M571.94,593.9c3.43-1.44,7.36,0.18,8.8,3.61c1.43,3.43-0.18,7.36-3.61,8.8c-3.43,1.43-7.37-0.18-8.8-3.61
				C566.9,599.27,568.51,595.33,571.94,593.9z"/>
			<path class="st4" d="M575.16,594.2c1.11-0.46,2.39,0.06,2.85,1.17c0.46,1.12-0.06,2.39-1.17,2.85c-1.11,0.46-2.38-0.06-2.85-1.17
				C573.52,595.94,574.05,594.66,575.16,594.2z"/>
			<path class="st6" d="M660.79,580.02c0.57,0.76,1.08,0.35,1.14-0.91c0.06-1.27-0.35-2.91-0.92-3.67
				c-3.12-4.18-10.44-9.11-19.2-13.15c-8.08-3.73-17.43-6.76-25.84-7.79c-0.53-0.06-0.78,1.08-0.57,2.56
				c0.22,1.48,0.83,2.73,1.35,2.79c8.35,1.02,17.6,4.02,25.59,7.71C650.87,571.48,657.91,576.16,660.79,580.02z"/>
			<path class="st6" d="M557.31,566.39c-0.56,0.77-1.08,0.36-1.14-0.91c-0.06-1.26,0.35-2.91,0.92-3.67
				c3.12-4.18,10.44-9.11,19.2-13.16c8.08-3.73,17.43-6.76,25.84-7.79c0.53-0.07,0.78,1.08,0.56,2.56
				c-0.22,1.48-0.82,2.73-1.35,2.79c-8.35,1.03-17.6,4.02-25.59,7.71C567.22,557.86,560.19,562.54,557.31,566.39z"/>
			<path class="st6" d="M597.28,656.49l0.76,3.82l-0.1,0.02l-0.1,0.01l-0.1,0.01l-0.1,0l-0.1,0l-0.1-0.01l-0.1-0.01l-0.09-0.02
				l-0.09-0.02l-0.09-0.02l-0.09-0.03l-0.08-0.04l-0.09-0.04l-0.08-0.04l-0.08-0.05l-0.08-0.05l-0.07-0.05l-0.08-0.06l-0.07-0.06
				l-0.07-0.06l-0.07-0.07l-0.06-0.07l-0.06-0.08l-0.06-0.08l-0.05-0.08l-0.05-0.08l-0.04-0.09l-0.04-0.09l-0.04-0.09l-0.03-0.1
				l-0.03-0.1l-0.03-0.09l-0.02-0.1l-0.01-0.1l-0.01-0.1l0-0.1l0-0.1l0.01-0.1l0.01-0.1l0.02-0.09l0.02-0.09l0.03-0.09l0.03-0.09
				l0.03-0.09l0.04-0.09l0.04-0.09l0.05-0.08l0.05-0.08l0.06-0.08l0.06-0.07l0.06-0.07l0.06-0.07l0.07-0.07l0.07-0.06l0.07-0.06
				l0.08-0.05l0.08-0.05l0.09-0.04l0.09-0.04l0.09-0.04l0.09-0.03l0.09-0.03l0.1-0.03L597.28,656.49L597.28,656.49z M652.23,630.78
				l-2.18,3.23l-1.55-0.92l-1.53-0.67l-1.52-0.44l-1.53-0.24l-1.54-0.05l-1.57,0.13l-1.6,0.31l-1.63,0.48l-1.65,0.64l-1.67,0.78
				l-1.69,0.92l-1.7,1.04l-1.71,1.15l-1.72,1.25l-1.71,1.33l-1.71,1.39l-1.71,1.45l-1.7,1.48l-1.69,1.5l-1.68,1.51l-1.67,1.5
				l-1.65,1.47l-1.64,1.44l-1.62,1.39l-1.61,1.32l-1.59,1.24l-1.58,1.14l-1.57,1.03l-1.56,0.91l-1.56,0.77l-1.57,0.61l-1.57,0.42
				l-0.76-3.82l1.12-0.3l1.21-0.47l1.29-0.63l1.35-0.79l1.41-0.93l1.46-1.06l1.5-1.17l1.54-1.26l1.58-1.35l1.61-1.41l1.64-1.46
				l1.67-1.5l1.69-1.52l1.71-1.52l1.74-1.51l1.76-1.49l1.78-1.45l1.8-1.39l1.82-1.32l1.84-1.24l1.86-1.14l1.88-1.03l1.91-0.89
				l1.93-0.74l1.95-0.58l1.98-0.38l2-0.17l2.02,0.06l2.02,0.32l2,0.59l1.98,0.87L652.23,630.78L652.23,630.78z M650.05,634
				l2.18-3.23l0.08,0.06l0.08,0.06l0.08,0.06l0.07,0.07l0.06,0.07l0.06,0.07l0.06,0.08l0.06,0.08l0.05,0.08l0.05,0.08l0.04,0.09
				l0.04,0.09l0.03,0.09l0.03,0.09l0.03,0.09l0.02,0.09l0.02,0.09l0.01,0.09l0.01,0.09l0,0.09l0,0.1l-0.01,0.09l-0.01,0.09
				l-0.02,0.09l-0.02,0.1l-0.03,0.09l-0.03,0.09l-0.03,0.09l-0.04,0.09l-0.04,0.09l-0.05,0.08l-0.05,0.09l-0.06,0.08l-0.06,0.08
				l-0.07,0.07l-0.07,0.07l-0.07,0.07l-0.08,0.06l-0.08,0.06l-0.08,0.05l-0.08,0.05l-0.08,0.04l-0.08,0.04l-0.09,0.04l-0.09,0.03
				l-0.09,0.03l-0.09,0.02l-0.09,0.02l-0.09,0.02l-0.09,0.01l-0.09,0.01l-0.09,0l-0.09,0l-0.09-0.01l-0.09-0.01l-0.09-0.02
				l-0.09-0.02l-0.09-0.02l-0.09-0.03l-0.09-0.03l-0.09-0.04l-0.08-0.04l-0.09-0.05L650.05,634z"/>
		</g>
		<g>
			<g>
				<path class="st3" d="M414.9,427.32c49.5,0,89.88-21.79,89.88-48.5c0-26.72-40.38-48.51-89.88-48.51
					c-49.5,0-89.88,21.79-89.88,48.51C325.02,405.53,365.4,427.32,414.9,427.32z"/>
				<polygon class="st3" points="396.9,448.7 414.9,483.35 432.9,448.7 414.9,455.17 				"/>
				<polygon class="st3" points="396.9,392.71 414.9,472.11 432.9,392.71 				"/>
			</g>
		</g>
		<g>
			<path class="st7" d="M415.87,773.69c55.11,0,100.06-14.45,100.06-32.17c0-17.72-44.95-32.17-100.06-32.17
				c-55.11,0-100.05,14.45-100.05,32.17C315.81,759.24,360.76,773.69,415.87,773.69z"/>
			<path class="st8" d="M511.65,750.84c-12.44,13.22-50.61,22.84-95.78,22.84c-45.17,0-83.34-9.62-95.78-22.84
				c12.44-13.22,50.61-22.84,95.78-22.84C461.04,728.01,499.21,737.63,511.65,750.84z"/>
			<path class="st4" d="M375.91,753.52c-4.71-63.26-6.35-128.27,0-197.83C378.7,625.26,376.84,690.26,375.91,753.52L375.91,753.52z
				 M412.02,702.14c-4.75-65.13-4.46-131.12,0-197.83C413.04,571.02,412.84,637.01,412.02,702.14L412.02,702.14z M440.62,772.79
				c5.53-65.94,5.5-131.88,0-197.83C437.86,640.91,437.84,706.85,440.62,772.79z"/>
			<path class="st3" d="M338.82,524.16c0,9.96,2.48,16.84,11.89,18.83c9.41,1.98,4.46,0,0-3.96c-4.46-3.96-6.72-9.22-5.24-14.67
				C346.96,518.91,338.82,516.67,338.82,524.16z"/>
			<path class="st3" d="M457.17,590.36c9.94-0.65,16.64-3.57,18.01-13.09c1.36-9.52-4.28-8.83-7.94-4.13
				c-3.66,4.71-3.77,14.82-9.3,13.69C452.4,585.71,449.69,590.85,457.17,590.36z"/>
		</g>
	</g>
	<g>
		<path class="st9" d="M153.09,139.61h-27.32v19.33h32.75v13.84h-50.75V95.25h50.8v13.84h-32.8v16.67h27.32V139.61z"/>
		<path class="st9" d="M186.63,143.07v29.71h-18V95.25h27c8.98,0,16.1,2.08,21.35,6.23c5.25,4.15,7.88,9.83,7.88,17.04
			c0,4.01-1.06,7.45-3.17,10.33c-2.11,2.88-5.23,5.22-9.35,7.03c4.76,1.35,8.17,3.59,10.25,6.74s3.12,7.06,3.12,11.74v4.9
			c0,2.02,0.3,4.33,0.91,6.92c0.6,2.59,1.65,4.44,3.14,5.54v1.06h-18.58c-1.42-1.1-2.34-3.04-2.77-5.8
			c-0.43-2.77-0.64-5.38-0.64-7.83v-4.69c0-3.69-0.98-6.51-2.93-8.47c-1.95-1.95-4.81-2.93-8.57-2.93H186.63z M186.63,129.22h9.11
			c3.62,0,6.39-0.83,8.31-2.48c1.92-1.65,2.88-4.02,2.88-7.11c0-3.16-0.99-5.71-2.96-7.64c-1.97-1.93-4.75-2.9-8.33-2.9h-9V129.22z"
			/>
		<path class="st9" d="M256.18,143.07v29.71h-18V95.25h27c8.98,0,16.1,2.08,21.35,6.23c5.25,4.15,7.88,9.83,7.88,17.04
			c0,4.01-1.06,7.45-3.17,10.33c-2.11,2.88-5.23,5.22-9.35,7.03c4.76,1.35,8.17,3.59,10.25,6.74s3.12,7.06,3.12,11.74v4.9
			c0,2.02,0.3,4.33,0.91,6.92c0.6,2.59,1.65,4.44,3.14,5.54v1.06h-18.58c-1.42-1.1-2.34-3.04-2.77-5.8
			c-0.43-2.77-0.64-5.38-0.64-7.83v-4.69c0-3.69-0.98-6.51-2.93-8.47c-1.95-1.95-4.81-2.93-8.57-2.93H256.18z M256.18,129.22h9.11
			c3.62,0,6.39-0.83,8.31-2.48c1.92-1.65,2.88-4.02,2.88-7.11c0-3.16-0.99-5.71-2.96-7.64c-1.97-1.93-4.75-2.9-8.33-2.9h-9V129.22z"
			/>
		<path class="st9" d="M372.15,140.99c0,9.55-3.03,17.42-9.08,23.62c-6.05,6.2-13.96,9.29-23.72,9.29c-9.83,0-17.8-3.1-23.91-9.29
			c-6.11-6.19-9.16-14.07-9.16-23.62v-13.95c0-9.51,3.04-17.38,9.13-23.59c6.09-6.21,14.03-9.32,23.83-9.32
			c9.73,0,17.64,3.11,23.75,9.32c6.1,6.21,9.16,14.08,9.16,23.59V140.99z M354.21,126.93c0-5.54-1.3-10.08-3.91-13.63
			c-2.61-3.55-6.29-5.32-11.05-5.32c-4.86,0-8.58,1.77-11.16,5.3c-2.57,3.53-3.86,8.09-3.86,13.66v14.06
			c0,5.61,1.3,10.19,3.91,13.74c2.61,3.55,6.34,5.32,11.21,5.32c4.72,0,8.38-1.77,10.97-5.32c2.59-3.55,3.89-8.13,3.89-13.74V126.93
			z"/>
		<path class="st9" d="M401.12,143.07v29.71h-18V95.25h27c8.98,0,16.1,2.08,21.35,6.23c5.25,4.15,7.88,9.83,7.88,17.04
			c0,4.01-1.06,7.45-3.17,10.33c-2.11,2.88-5.23,5.22-9.35,7.03c4.76,1.35,8.17,3.59,10.25,6.74s3.12,7.06,3.12,11.74v4.9
			c0,2.02,0.3,4.33,0.91,6.92c0.6,2.59,1.65,4.44,3.14,5.54v1.06h-18.58c-1.42-1.1-2.34-3.04-2.77-5.8
			c-0.43-2.77-0.64-5.38-0.64-7.83v-4.69c0-3.69-0.98-6.51-2.93-8.47c-1.95-1.95-4.81-2.93-8.57-2.93H401.12z M401.12,129.22h9.11
			c3.62,0,6.39-0.83,8.31-2.48c1.92-1.65,2.88-4.02,2.88-7.11c0-3.16-0.99-5.71-2.96-7.64c-1.97-1.93-4.75-2.9-8.33-2.9h-9V129.22z"
			/>
		<path class="st9" d="M526.09,142.48h7.83v13.95h-7.83v16.35h-18v-16.35h-30.83l-1.06-11.08l31.9-49.95v-0.16h18V142.48z
			 M491.64,142.48h16.45v-24.12l-0.32-0.05l-1.97,3.99L491.64,142.48z"/>
		<path class="st9" d="M595.37,144.29c0,9.27-2.47,16.52-7.4,21.75c-4.93,5.24-11.45,7.85-19.54,7.85c-8.17,0-14.72-2.62-19.65-7.85
			c-4.93-5.24-7.4-12.49-7.4-21.75v-20.55c0-9.27,2.45-16.52,7.35-21.75c4.9-5.24,11.43-7.85,19.6-7.85c8.09,0,14.62,2.63,19.6,7.88
			c4.97,5.25,7.45,12.5,7.45,21.73V144.29z M577.43,122.51c0-4.72-0.81-8.32-2.42-10.81c-1.62-2.48-3.84-3.73-6.68-3.73
			c-2.88,0-5.09,1.24-6.66,3.73c-1.56,2.49-2.34,6.09-2.34,10.81v22.9c0,4.83,0.79,8.48,2.37,10.94c1.58,2.47,3.83,3.7,6.74,3.7
			c2.84,0,5.05-1.23,6.63-3.7c1.58-2.47,2.37-6.11,2.37-10.94V122.51z"/>
		<path class="st9" d="M652.4,142.48h7.83v13.95h-7.83v16.35h-18v-16.35h-30.83l-1.07-11.08l31.9-49.95v-0.16h18V142.48z
			 M617.95,142.48h16.45v-24.12l-0.32-0.05l-1.97,3.99L617.95,142.48z"/>
	</g>
	<g>
		<path class="st9" d="M92.93,244.74v-36.83h11.58c4.81,0,8.67,1.48,11.6,4.44c2.93,2.96,4.39,6.78,4.39,11.47v5.03
			c0,4.7-1.46,8.53-4.39,11.47c-2.93,2.94-6.79,4.41-11.6,4.41H92.93z M97.91,211.83v29.01h6.6c3.41,0,6.09-1.12,8.06-3.36
			c1.96-2.24,2.95-5.12,2.95-8.62v-5.08c0-3.47-0.98-6.33-2.95-8.57c-1.96-2.24-4.65-3.36-8.06-3.36H97.91z"/>
		<path class="st9" d="M132.71,210.37h-4.98v-5.08h4.98V210.37z M132.71,244.74h-4.98v-27.37h4.98V244.74z"/>
		<path class="st9" d="M151.71,245.27c-3.93,0-6.99-1.26-9.19-3.77c-2.2-2.51-3.3-5.82-3.3-9.91v-1.11c0-3.93,1.13-7.18,3.4-9.75
			c2.27-2.57,5.04-3.86,8.31-3.86c3.66,0,6.4,1.14,8.23,3.41c1.83,2.28,2.74,5.3,2.74,9.08v2.63h-17.5l-0.08,0.13
			c0,2.75,0.61,4.98,1.82,6.69c1.21,1.71,3.07,2.57,5.56,2.57c1.69,0,3.17-0.24,4.44-0.72c1.27-0.48,2.37-1.14,3.28-1.99l1.95,3.24
			c-0.98,0.94-2.27,1.74-3.87,2.39C155.9,244.95,153.97,245.27,151.71,245.27z M150.92,220.79c-1.74,0-3.17,0.67-4.31,2.01
			c-1.14,1.34-1.83,3.06-2.09,5.15l0.05,0.13h12.34v-0.4c0-1.99-0.49-3.63-1.47-4.93C154.47,221.44,152.96,220.79,150.92,220.79z"/>
		<path class="st9" d="M183.4,237.38c0-1.1-0.42-1.99-1.25-2.68c-0.83-0.69-2.41-1.3-4.74-1.82c-3.22-0.69-5.7-1.66-7.42-2.91
			c-1.73-1.25-2.59-2.92-2.59-5.01c0-2.23,0.95-4.13,2.85-5.72c1.9-1.58,4.35-2.38,7.37-2.38c3.1,0,5.62,0.84,7.54,2.53
			c1.92,1.69,2.84,3.65,2.76,5.89l-0.05,0.15h-4.76c0-1.18-0.52-2.25-1.56-3.21c-1.04-0.96-2.35-1.44-3.93-1.44
			c-1.75,0-3.07,0.4-3.93,1.19c-0.87,0.79-1.3,1.74-1.3,2.83c0,1.08,0.38,1.91,1.13,2.5c0.75,0.59,2.3,1.13,4.64,1.62
			c3.36,0.71,5.9,1.71,7.64,3.01c1.74,1.3,2.61,2.99,2.61,5.08c0,2.43-0.98,4.41-2.95,5.94c-1.96,1.53-4.53,2.3-7.7,2.3
			c-3.49,0-6.24-0.89-8.25-2.66c-2.01-1.77-2.96-3.84-2.86-6.2l0.05-0.15h4.76c0.08,1.77,0.74,3.06,1.97,3.88
			c1.23,0.82,2.67,1.23,4.32,1.23c1.77,0,3.16-0.37,4.16-1.13C182.9,239.5,183.4,238.54,183.4,237.38z"/>
		<path class="st9" d="M205.91,245.27c-3.93,0-6.99-1.26-9.19-3.77c-2.2-2.51-3.3-5.82-3.3-9.91v-1.11c0-3.93,1.13-7.18,3.4-9.75
			c2.27-2.57,5.04-3.86,8.31-3.86c3.66,0,6.4,1.14,8.23,3.41c1.83,2.28,2.74,5.3,2.74,9.08v2.63h-17.5l-0.08,0.13
			c0,2.75,0.61,4.98,1.82,6.69c1.21,1.71,3.07,2.57,5.56,2.57c1.69,0,3.17-0.24,4.44-0.72c1.27-0.48,2.37-1.14,3.28-1.99l1.95,3.24
			c-0.98,0.94-2.27,1.74-3.87,2.39C210.1,244.95,208.17,245.27,205.91,245.27z M205.13,220.79c-1.74,0-3.17,0.67-4.31,2.01
			c-1.14,1.34-1.83,3.06-2.09,5.15l0.05,0.13h12.34v-0.4c0-1.99-0.49-3.63-1.47-4.93C208.68,221.44,207.17,220.79,205.13,220.79z"/>
		<path class="st9" d="M254.88,235.46c0-1.67-0.6-3.07-1.8-4.2c-1.2-1.13-3.3-2.09-6.32-2.88c-3.74-0.93-6.66-2.29-8.76-4.1
			c-2.1-1.8-3.15-4.07-3.15-6.8c0-2.88,1.13-5.29,3.39-7.21c2.26-1.92,5.19-2.88,8.8-2.88c3.88,0,6.97,1.1,9.27,3.3
			c2.3,2.2,3.42,4.77,3.35,7.7l-0.08,0.15h-4.76c0-2.09-0.73-3.82-2.19-5.19c-1.46-1.37-3.33-2.05-5.6-2.05
			c-2.33,0-4.11,0.57-5.35,1.69c-1.24,1.13-1.86,2.6-1.86,4.4c0,1.6,0.68,2.94,2.04,4.01c1.36,1.07,3.56,2.01,6.61,2.82
			c3.71,0.96,6.53,2.38,8.47,4.25c1.94,1.87,2.91,4.18,2.91,6.93c0,2.97-1.17,5.35-3.5,7.16c-2.33,1.8-5.38,2.71-9.14,2.71
			c-3.56,0-6.7-0.99-9.42-2.98c-2.72-1.99-4.04-4.65-3.96-7.99l0.05-0.15h4.76c0,2.31,0.88,4.09,2.63,5.35
			c1.75,1.26,3.73,1.88,5.94,1.88c2.36,0,4.23-0.53,5.6-1.59C254.19,238.72,254.88,237.28,254.88,235.46z"/>
		<path class="st9" d="M277.57,245.27c-3.93,0-6.99-1.26-9.19-3.77c-2.2-2.51-3.3-5.82-3.3-9.91v-1.11c0-3.93,1.13-7.18,3.4-9.75
			c2.27-2.57,5.04-3.86,8.31-3.86c3.66,0,6.4,1.14,8.23,3.41c1.83,2.28,2.74,5.3,2.74,9.08v2.63h-17.5l-0.08,0.13
			c0,2.75,0.61,4.98,1.82,6.69c1.21,1.71,3.07,2.57,5.56,2.57c1.69,0,3.17-0.24,4.44-0.72c1.27-0.48,2.37-1.14,3.28-1.99l1.95,3.24
			c-0.98,0.94-2.27,1.74-3.87,2.39C281.76,244.95,279.83,245.27,277.57,245.27z M276.78,220.79c-1.74,0-3.17,0.67-4.31,2.01
			c-1.14,1.34-1.83,3.06-2.09,5.15l0.05,0.13h12.34v-0.4c0-1.99-0.49-3.63-1.47-4.93C280.33,221.44,278.82,220.79,276.78,220.79z"/>
		<path class="st9" d="M298.74,210.37h-4.98v-5.08h4.98V210.37z M298.74,244.74h-4.98v-27.37h4.98V244.74z"/>
		<path class="st9" d="M313.33,210.77v6.6h5.19v3.69h-5.19v16.62c0,1.28,0.27,2.18,0.8,2.71c0.53,0.52,1.24,0.78,2.11,0.78
			c0.29,0,0.61-0.04,0.96-0.11c0.35-0.08,0.65-0.16,0.88-0.24l0.68,3.41c-0.37,0.3-0.92,0.55-1.64,0.75
			c-0.73,0.19-1.44,0.29-2.15,0.29c-2.02,0-3.63-0.61-4.83-1.83c-1.2-1.22-1.8-3.14-1.8-5.75v-16.62H304v-3.69h4.35v-6.6H313.33z"/>
		<path class="st9" d="M335.18,245.27c-3.93,0-6.99-1.26-9.19-3.77c-2.2-2.51-3.3-5.82-3.3-9.91v-1.11c0-3.93,1.13-7.18,3.4-9.75
			c2.27-2.57,5.04-3.86,8.31-3.86c3.66,0,6.4,1.14,8.23,3.41c1.83,2.28,2.74,5.3,2.74,9.08v2.63h-17.5l-0.08,0.13
			c0,2.75,0.61,4.98,1.82,6.69c1.21,1.71,3.07,2.57,5.56,2.57c1.69,0,3.16-0.24,4.44-0.72c1.27-0.48,2.37-1.14,3.28-1.99l1.95,3.24
			c-0.98,0.94-2.27,1.74-3.87,2.39C339.37,244.95,337.44,245.27,335.18,245.27z M334.4,220.79c-1.74,0-3.17,0.67-4.31,2.01
			c-1.14,1.34-1.83,3.06-2.09,5.15l0.05,0.13h12.34v-0.4c0-1.99-0.49-3.63-1.47-4.93C337.95,221.44,336.44,220.79,334.4,220.79z"/>
		<path class="st9" d="M375.17,245.27c-3.93,0-6.99-1.26-9.19-3.77c-2.2-2.51-3.3-5.82-3.3-9.91v-1.11c0-3.93,1.13-7.18,3.4-9.75
			c2.27-2.57,5.04-3.86,8.31-3.86c3.66,0,6.4,1.14,8.23,3.41c1.83,2.28,2.74,5.3,2.74,9.08v2.63h-17.5l-0.08,0.13
			c0,2.75,0.61,4.98,1.82,6.69c1.21,1.71,3.07,2.57,5.56,2.57c1.69,0,3.16-0.24,4.44-0.72c1.27-0.48,2.37-1.14,3.28-1.99l1.95,3.24
			c-0.98,0.94-2.27,1.74-3.87,2.39C379.36,244.95,377.43,245.27,375.17,245.27z M374.39,220.79c-1.74,0-3.17,0.67-4.31,2.01
			c-1.14,1.34-1.83,3.06-2.09,5.15l0.05,0.13h12.34v-0.4c0-1.99-0.49-3.63-1.47-4.93C377.94,221.44,376.43,220.79,374.39,220.79z"/>
		<path class="st9" d="M400.24,227.47l5.82-10.09h5.82L403,230.91l9.13,13.84h-5.72l-6.07-10.34l-6.07,10.34h-5.77l9.13-13.84
			l-8.88-13.53h5.74L400.24,227.47z"/>
		<path class="st9" d="M422.39,210.37h-4.98v-5.08h4.98V210.37z M422.39,244.74h-4.98v-27.37h4.98V244.74z"/>
		<path class="st9" d="M445.97,237.38c0-1.1-0.42-1.99-1.25-2.68c-0.83-0.69-2.41-1.3-4.74-1.82c-3.22-0.69-5.7-1.66-7.42-2.91
			c-1.73-1.25-2.59-2.92-2.59-5.01c0-2.23,0.95-4.13,2.85-5.72c1.9-1.58,4.35-2.38,7.37-2.38c3.1,0,5.61,0.84,7.54,2.53
			c1.92,1.69,2.84,3.65,2.76,5.89l-0.05,0.15h-4.76c0-1.18-0.52-2.25-1.56-3.21c-1.04-0.96-2.35-1.44-3.93-1.44
			c-1.75,0-3.07,0.4-3.93,1.19c-0.87,0.79-1.3,1.74-1.3,2.83c0,1.08,0.38,1.91,1.13,2.5c0.75,0.59,2.3,1.13,4.64,1.62
			c3.36,0.71,5.9,1.71,7.64,3.01c1.74,1.3,2.6,2.99,2.6,5.08c0,2.43-0.98,4.41-2.95,5.94c-1.96,1.53-4.53,2.3-7.7,2.3
			c-3.49,0-6.24-0.89-8.25-2.66s-2.96-3.84-2.86-6.2l0.05-0.15H434c0.08,1.77,0.74,3.06,1.97,3.88c1.23,0.82,2.67,1.23,4.33,1.23
			c1.77,0,3.16-0.37,4.16-1.13C445.47,239.5,445.97,238.54,445.97,237.38z"/>
		<path class="st9" d="M464.08,210.77v6.6h5.19v3.69h-5.19v16.62c0,1.28,0.27,2.18,0.8,2.71c0.53,0.52,1.24,0.78,2.11,0.78
			c0.29,0,0.61-0.04,0.96-0.11c0.35-0.08,0.65-0.16,0.88-0.24l0.68,3.41c-0.37,0.3-0.92,0.55-1.64,0.75
			c-0.73,0.19-1.44,0.29-2.15,0.29c-2.02,0-3.63-0.61-4.83-1.83c-1.2-1.22-1.8-3.14-1.8-5.75v-16.62h-4.35v-3.69h4.35v-6.6H464.08z"
			/>
		<path class="st9" d="M479.99,210.37H475v-5.08h4.98V210.37z M479.99,244.74H475v-27.37h4.98V244.74z"/>
		<path class="st9" d="M498.98,245.27c-3.93,0-6.99-1.26-9.19-3.77c-2.2-2.51-3.3-5.82-3.3-9.91v-1.11c0-3.93,1.13-7.18,3.4-9.75
			c2.27-2.57,5.04-3.86,8.31-3.86c3.66,0,6.4,1.14,8.23,3.41c1.83,2.28,2.74,5.3,2.74,9.08v2.63h-17.5l-0.08,0.13
			c0,2.75,0.61,4.98,1.82,6.69c1.21,1.71,3.07,2.57,5.56,2.57c1.69,0,3.16-0.24,4.44-0.72c1.27-0.48,2.37-1.14,3.28-1.99l1.95,3.24
			c-0.98,0.94-2.27,1.74-3.87,2.39C503.17,244.95,501.24,245.27,498.98,245.27z M498.2,220.79c-1.74,0-3.17,0.67-4.31,2.01
			c-1.14,1.34-1.83,3.06-2.09,5.15l0.05,0.13h12.34v-0.4c0-1.99-0.49-3.63-1.47-4.93C501.75,221.44,500.24,220.79,498.2,220.79z"/>
		<path class="st9" d="M527.72,221.77l-2.56-0.15c-1.32,0-2.42,0.31-3.33,0.94c-0.9,0.62-1.6,1.5-2.09,2.63v19.55h-4.98v-27.37h4.45
			l0.48,4c0.78-1.42,1.73-2.52,2.87-3.31c1.14-0.79,2.45-1.19,3.93-1.19c0.37,0,0.72,0.03,1.06,0.09c0.34,0.06,0.62,0.12,0.84,0.19
			L527.72,221.77z"/>
		<path class="st9" d="M540.26,210.77v6.6h5.19v3.69h-5.19v16.62c0,1.28,0.27,2.18,0.8,2.71c0.53,0.52,1.24,0.78,2.11,0.78
			c0.29,0,0.61-0.04,0.96-0.11c0.35-0.08,0.65-0.16,0.88-0.24l0.68,3.41c-0.37,0.3-0.92,0.55-1.64,0.75
			c-0.73,0.19-1.44,0.29-2.15,0.29c-2.02,0-3.63-0.61-4.83-1.83c-1.2-1.22-1.8-3.14-1.8-5.75v-16.62h-4.35v-3.69h4.35v-6.6H540.26z"
			/>
		<path class="st9" d="M568.11,217.37l0.35,4.07c0.91-1.45,2.05-2.58,3.43-3.38c1.37-0.8,2.94-1.2,4.69-1.2
			c2.95,0,5.24,0.86,6.85,2.59c1.62,1.73,2.43,4.4,2.43,8.01v17.28h-4.98v-17.17c0-2.41-0.48-4.12-1.43-5.13
			c-0.95-1.01-2.41-1.52-4.36-1.52c-1.54,0-2.84,0.31-3.91,0.92c-1.07,0.62-1.92,1.48-2.54,2.59v20.31h-4.98v-27.37H568.11z"/>
		<path class="st9" d="M598.49,210.37h-4.98v-5.08h4.98V210.37z M598.49,244.74h-4.98v-27.37h4.98V244.74z"/>
		<path class="st9" d="M617.02,241.38c1.53,0,2.88-0.51,4.02-1.53c1.15-1.02,1.72-2.27,1.72-3.76h4.5l0.08,0.15
			c0.07,2.36-0.94,4.46-3.04,6.29c-2.09,1.83-4.52,2.74-7.28,2.74c-3.84,0-6.81-1.31-8.9-3.92c-2.09-2.61-3.14-5.87-3.14-9.76v-1.06
			c0-3.86,1.05-7.1,3.15-9.72c2.1-2.62,5.06-3.93,8.89-3.93c3.05,0,5.55,0.94,7.5,2.83c1.95,1.89,2.89,4.21,2.82,6.96l-0.05,0.15
			h-4.53c0-1.67-0.54-3.09-1.63-4.26c-1.09-1.17-2.46-1.76-4.11-1.76c-2.44,0-4.23,0.95-5.35,2.85c-1.12,1.9-1.68,4.19-1.68,6.89
			v1.06c0,2.75,0.55,5.07,1.66,6.96C612.75,240.43,614.55,241.38,617.02,241.38z"/>
		<path class="st9" d="M638.25,221.04c0.94-1.32,2.1-2.34,3.48-3.07c1.37-0.73,2.9-1.1,4.57-1.1c2.92,0,5.19,0.88,6.82,2.63
			c1.63,1.75,2.44,4.45,2.44,8.09v17.15h-4.98v-17.2c0-2.26-0.49-3.93-1.45-5.01c-0.97-1.08-2.42-1.62-4.34-1.62
			c-1.48,0-2.77,0.29-3.87,0.87c-1.1,0.58-1.98,1.4-2.66,2.44v20.51h-4.98v-39.46h4.98V221.04z"/>
		<path class="st9" d="M669.63,210.77v6.6h5.19v3.69h-5.19v16.62c0,1.28,0.27,2.18,0.8,2.71c0.53,0.52,1.24,0.78,2.11,0.78
			c0.29,0,0.61-0.04,0.96-0.11c0.35-0.08,0.65-0.16,0.88-0.24l0.68,3.41c-0.37,0.3-0.92,0.55-1.64,0.75
			c-0.73,0.19-1.44,0.29-2.15,0.29c-2.02,0-3.63-0.61-4.83-1.83c-1.2-1.22-1.8-3.14-1.8-5.75v-16.62h-4.35v-3.69h4.35v-6.6H669.63z"
			/>
	</g>
	<g>
		<path class="st0" d="M372.96,394.94h-7.78v-10.59h-8.57v10.59h-7.78v-27.88h7.78v10.17h8.57v-10.17h7.78V394.94z"/>
		<path class="st0" d="M378.19,394.94v-27.88h20.97v6.69h-13.19v3.84h11.3v6.41h-11.3v4.25h13.43v6.69H378.19z"/>
		<path class="st0" d="M403.66,394.94v-27.88h7.78v20.76h12.45v7.12H403.66z"/>
		<path class="st0" d="M440.78,367.06c1.15,0,2.2,0.23,3.15,0.69c0.95,0.46,1.77,1.1,2.45,1.92c0.68,0.82,1.21,1.78,1.59,2.9
			c0.38,1.12,0.57,2.33,0.57,3.65v0.51c0,1.32-0.19,2.54-0.57,3.66c-0.38,1.12-0.91,2.09-1.59,2.92c-0.68,0.82-1.5,1.47-2.45,1.93
			c-0.95,0.46-2,0.69-3.15,0.69h-5.82v9h-7.78v-27.88H440.78z M434.96,373.67v5.76h3.22c0.83,0,1.44-0.25,1.85-0.74
			c0.41-0.49,0.61-1.16,0.61-1.99v-0.32c0-0.83-0.2-1.49-0.59-1.98c-0.4-0.49-1.02-0.73-1.87-0.73H434.96z"/>
		<path class="st0" d="M458.1,384.96h-4.48l-1.95-17.91h8.44L458.1,384.96z M459.38,394.94h-6.99v-7.5h6.99V394.94z"/>
		<path class="st0" d="M469.85,384.96h-4.48l-1.95-17.91h8.44L469.85,384.96z M471.12,394.94h-6.99v-7.5h6.99V394.94z"/>
		<path class="st0" d="M481.59,384.96h-4.48l-1.95-17.91h8.44L481.59,384.96z M482.86,394.94h-6.99v-7.5h6.99V394.94z"/>
	</g>
</g>
<g id="Ebene_2">
</g>
</svg>
