<?xml version="1.0" encoding="utf-8"?>
<!-- Generator: Adobe Illustrator 23.0.2, SVG Export Plug-In . SVG Version: 6.00 Build 0)  -->
<svg version="1.1" xmlns="http://www.w3.org/2000/svg" xmlns:xlink="http://www.w3.org/1999/xlink" x="0px" y="0px"
	 viewBox="0 0 51 51" style="enable-background:new 0 0 51 51;" xml:space="preserve">
<style type="text/css">
	.st0{fill:#C84528;}
	.st1{fill:#FFFFFF;}
	.st2{opacity:0.1;fill:#FFFFFF;}
	.st3{opacity:0.2;}
</style>
<g id="Ebene_2">
	<circle class="st0" cx="25.5" cy="25.5" r="25"/>
</g>
<g id="Ebene_1">
	<g>
		<path class="st1" d="M29.8,36.48c0,0,2.96-2.6,3.4-6.01c0.44-3.41,0-7.96,0-7.96S38.67,33.24,29.8,36.48z"/>
		<path class="st1" d="M17.06,43.56c0,0-2.63-4.87-1.15-9.1c1.48-4.22,6.06-10.4,5.03-16.73c0,0-1.49,5.47-5.48,10.61
			C11.47,33.49,13.77,37.88,17.06,43.56z"/>
		<path class="st1" d="M28.25,37.23c-2.22-4.87,11.24-10.61-2.22-33.73c0,0,3.22,12.98-4.14,22.52c-6.38,8.28-5.78,18.58,0.86,20.01
			c0.31,0.07,0.61,0.11,0.92,0.14l0,0c0,0-3.99-1.96-3.55-6.99c0.44-5.04,2.66-5.88,3.55-9.03c0,0-1.28,7.29,0,10.17
			c0.87,1.95,3.84,2.75,5.32,0.65c0,0-0.05,3.53-1.95,4.93l0,0c4.71-1.29,8.3-6.09,8.3-9.91C35.34,35.99,30.47,42.11,28.25,37.23z"
			/>
		<path class="st2" d="M28.07,44.67c-0.26,0.47-0.6,0.91-1.03,1.23c4.71-1.29,8.3-6.09,8.3-9.91
			C35.34,35.99,32.33,41.63,28.07,44.67z"/>
		<path class="st2" d="M17.82,34.53c-1.24,5.63,0.5,10.55,4.93,11.5c0.31,0.07,0.61,0.11,0.92,0.14l0,0c0,0-0.09-0.04-0.23-0.13l0,0
			C23.43,46.05,16.65,43.75,17.82,34.53z"/>
		<path class="st2" d="M15.91,34.46c0.93-2.66,3.1-6.1,4.31-9.86c-0.04,0.07-3.22,5.79-4.8,8c-1.25,1.76-1.16,5.94,1.64,10.96
			C17.06,43.56,14.43,38.69,15.91,34.46z"/>
		<path class="st2" d="M34.87,29.1c0,0.02-0.76,5.07-5.07,7.38C33.85,35,34.91,31.97,34.87,29.1z"/>
	</g>
</g>
</svg>
