<?xml version="1.0" encoding="utf-8"?>
<!-- Generator: Adobe Illustrator 23.0.2, SVG Export Plug-In . SVG Version: 6.00 Build 0)  -->
<svg version="1.1" xmlns="http://www.w3.org/2000/svg" xmlns:xlink="http://www.w3.org/1999/xlink" x="0px" y="0px"
	 viewBox="0 0 51 51" style="enable-background:new 0 0 51 51;" xml:space="preserve">
<style type="text/css">
	.st0{fill:#C84528;}
	.st1{fill:#FFFFFF;}
	.st2{opacity:0.1;fill:#FFFFFF;}
	.st3{opacity:0.2;}
</style>
<g id="Ebene_2">
	<circle class="st0" cx="25.5" cy="25.5" r="25"/>
	<g>
		<path class="st1" d="M36.61,25.47c0.14-0.7,0.22-1.41,0.26-2.14l-2.48-0.78c-0.01-0.64-0.06-1.28-0.16-1.9l2.28-1.29
			c-0.16-0.7-0.37-1.37-0.63-2.03l-2.58,0.29c-0.27-0.6-0.6-1.18-0.96-1.73l1.56-2.1c-0.42-0.56-0.88-1.08-1.38-1.57l-2.24,1.32
			c-0.51-0.45-1.05-0.85-1.63-1.21l0.57-2.55c-0.6-0.33-1.23-0.61-1.88-0.85l-1.51,2.12c-0.65-0.2-1.33-0.35-2.02-0.44l-0.52-2.55
			c-0.34-0.02-0.68-0.04-1.03-0.04s-0.69,0.01-1.03,0.04l-0.52,2.55c-0.69,0.09-1.37,0.24-2.02,0.44l-1.51-2.12
			c-0.65,0.24-1.28,0.53-1.88,0.85l0.57,2.55c-0.58,0.36-1.12,0.76-1.63,1.21l-2.24-1.32c-0.5,0.49-0.96,1.01-1.38,1.57l1.56,2.1
			c-0.37,0.55-0.69,1.12-0.96,1.73l-2.58-0.29C8.37,17.98,8.16,18.66,8,19.35l2.28,1.29c-0.1,0.62-0.16,1.25-0.16,1.9l-2.48,0.78
			c0.03,0.73,0.12,1.44,0.26,2.14l2.61,0.25c0.15,0.6,0.35,1.17,0.59,1.73l-1.95,1.72c0.33,0.66,0.7,1.29,1.12,1.88l2.49-0.83
			c0.37,0.46,0.77,0.89,1.2,1.29l-1.08,2.37c0.57,0.47,1.17,0.91,1.81,1.29l1.93-1.77c0.51,0.27,1.03,0.5,1.58,0.69l-0.02,2.61
			c0.71,0.21,1.44,0.36,2.19,0.46l1.04-2.4c0.28,0.02,0.56,0.03,0.85,0.03c0.29,0,0.57-0.01,0.85-0.03l1.04,2.4
			c0.75-0.1,1.48-0.25,2.19-0.46l-0.02-2.61c0.54-0.19,1.07-0.42,1.58-0.69l1.93,1.77c0.64-0.38,1.24-0.82,1.81-1.29l-1.08-2.37
			c0.43-0.4,0.83-0.83,1.2-1.29l2.49,0.83c0.42-0.6,0.79-1.23,1.12-1.88l-1.95-1.72c0.24-0.56,0.44-1.13,0.59-1.73L36.61,25.47z
			 M22.25,29.52c-3.83,0-6.93-3.1-6.93-6.93c0-3.83,3.1-6.93,6.93-6.93c3.83,0,6.93,3.1,6.93,6.93
			C29.18,26.42,26.08,29.52,22.25,29.52z"/>
		<path class="st1" d="M22.25,18.1c-2.48,0-4.49,2.01-4.49,4.49c0,2.48,2.01,4.49,4.49,4.49c2.48,0,4.49-2.01,4.49-4.49
			C26.75,20.11,24.73,18.1,22.25,18.1z"/>
	</g>
</g>
<g id="Ebene_1">
	<path class="st1" d="M38.38,25.76c0.65-1.75,1.17-3.52,0.81-5.48c-0.26-1.4-0.68-2.18-1.26-3.15c0.15,0.13,1.6,1.26,2.79,2.87
		c1.97,2.66,3.13,5.41,3.28,8.61c0.08,1.73-0.21,3.96-1.42,5.29c-1.19,1.33-3.21,0.95-3.93,0.48c-1.48-0.97-2-2.92-1.63-4.59
		C37.33,28.4,37.89,27.08,38.38,25.76z"/>
	<path class="st1" d="M32.71,40.93c-0.18-0.59-0.23-1.22-0.26-1.77c-0.14-2.5,0.47-4.94,1.52-7.22c0.22-0.49,0.47-0.97,0.72-1.45
		c0.13-0.24,0.26-0.47,0.39-0.7c0.11-0.19,0.24-0.42,0.41-0.69c0,0-0.87,5.41,2.03,9.22c0.84,1.1,0.81,2.5-0.06,3.52
		c-0.83,0.98-2.62,1.53-3.84,0.54C33.15,42,32.88,41.48,32.71,40.93z"/>
</g>
</svg>
